M48
; DRILL file {KiCad (5.1.2)-1} date 8/24/2020 12:42:06 PM
; FORMAT={-:-/ absolute / inch / decimal}
; #@! TF.CreationDate,2020-08-24T12:42:06-07:00
; #@! TF.GenerationSoftware,Kicad,Pcbnew,(5.1.2)-1
; #@! TF.FileFunction,Plated,1,4,PTH
FMAT,2
INCH
T1C0.0157
T2C0.0315
T3C0.0394
T4C0.0402
T5C0.0634
T6C0.2402
%
G90
G05
T1
X0.72Y-3.97
X0.72Y-4.01
X0.72Y-4.19
X0.76Y-3.97
X0.76Y-4.01
X0.77Y-4.19
X0.8Y-3.97
X0.8Y-4.01
X0.89Y-6.03
X0.91Y-4.36
X0.91Y-4.41
X0.96Y-4.36
X0.96Y-4.41
X1.01Y-4.36
X1.01Y-4.41
X1.06Y-4.36
X1.06Y-4.41
X1.14Y-3.89
X1.14Y-3.94
X1.165Y-6.135
X1.19Y-3.89
X1.19Y-3.94
X1.46Y-6.27
X1.601Y-6.269
X1.675Y-6.035
X2.9515Y1.014
X2.9515Y0.6203
X2.9515Y0.2266
X2.9515Y-0.1671
X2.9515Y-0.5608
X2.9515Y-0.9545
X2.9515Y-1.3482
X2.9515Y-1.7419
X2.9515Y-2.1356
X2.9515Y-2.5293
X2.9515Y-2.923
X2.9515Y-3.3167
X2.9515Y-3.7104
X2.9515Y-4.1041
X2.9515Y-4.4978
X2.9515Y-4.8915
X2.9515Y-5.2852
X2.9515Y-5.6789
X2.9515Y-6.0726
X2.9515Y-6.4663
X2.9515Y-6.86
X3.1415Y1.014
X3.1415Y0.6203
X3.1415Y0.2266
X3.1415Y-0.1671
X3.1415Y-0.5608
X3.1415Y-0.9545
X3.1415Y-1.3482
X3.1415Y-1.7419
X3.1415Y-2.1356
X3.1415Y-2.5293
X3.1415Y-2.923
X3.1415Y-3.3167
X3.1415Y-3.7104
X3.1415Y-4.1041
X3.1415Y-4.4978
X3.1415Y-4.8915
X3.1415Y-5.2852
X3.1415Y-5.6789
X3.1415Y-6.0726
X3.1415Y-6.4663
X3.1415Y-6.86
X3.2615Y0.954
X3.2615Y0.5603
X3.2615Y0.1666
X3.2615Y-0.2271
X3.2615Y-0.6208
X3.2615Y-1.0145
X3.2615Y-1.4082
X3.2615Y-1.8019
X3.2615Y-2.1956
X3.2615Y-2.5893
X3.2615Y-2.983
X3.2615Y-3.3767
X3.2615Y-3.7704
X3.2615Y-4.1641
X3.2615Y-4.5578
X3.2615Y-4.9515
X3.2615Y-5.3452
X3.2615Y-5.7389
X3.2615Y-6.1326
X3.2615Y-6.5263
X3.2615Y-6.92
X3.3115Y1.004
X3.3115Y0.6103
X3.3115Y0.2166
X3.3115Y-0.1771
X3.3115Y-0.5708
X3.3115Y-0.9645
X3.3115Y-1.3582
X3.3115Y-1.7519
X3.3115Y-2.1456
X3.3115Y-2.5393
X3.3115Y-2.933
X3.3115Y-3.3267
X3.3115Y-3.7204
X3.3115Y-4.1141
X3.3115Y-4.5078
X3.3115Y-4.9015
X3.3115Y-5.2952
X3.3115Y-5.6889
X3.3115Y-6.0826
X3.3115Y-6.4763
X3.3115Y-6.87
X3.3515Y0.934
X3.3515Y0.5403
X3.3515Y0.1466
X3.3515Y-0.2471
X3.3515Y-0.6408
X3.3515Y-1.0345
X3.3515Y-1.4282
X3.3515Y-1.8219
X3.3515Y-2.2156
X3.3515Y-2.6093
X3.3515Y-3.003
X3.3515Y-3.3967
X3.3515Y-3.7904
X3.3515Y-4.1841
X3.3515Y-4.5778
X3.3515Y-4.9715
X3.3515Y-5.3652
X3.3515Y-5.7589
X3.3515Y-6.1526
X3.3515Y-6.5463
X3.3515Y-6.94
X3.46Y-2.79
X3.4715Y0.924
X3.4715Y0.5303
X3.4715Y0.1366
X3.4715Y-0.2571
X3.4715Y-0.6508
X3.4715Y-1.0445
X3.4715Y-1.4382
X3.4715Y-1.8319
X3.4715Y-2.2256
X3.4715Y-2.6193
X3.4715Y-3.013
X3.4715Y-3.4067
X3.4715Y-3.8004
X3.4715Y-4.1941
X3.4715Y-4.5878
X3.4715Y-4.9815
X3.4715Y-5.3752
X3.4715Y-5.7689
X3.4715Y-6.1626
X3.4715Y-6.5563
X3.4715Y-6.95
X3.62Y-3.57
X3.6339Y1.3583
X3.639Y-2.071
X3.64Y-3.51
X3.66Y-2.79
X3.7264Y1.5805
X3.7269Y1.35
X3.7359Y1.429
X3.7419Y1.485
X3.7493Y-3.2893
X3.75Y-3.13
X3.75Y-3.69
X3.77Y-2.2
X3.78Y-2.53
X3.7992Y-2.4094
X3.8Y-3.54
X3.8Y-3.71
X3.805Y-1.995
X3.81Y-3.29
X3.82Y-2.95
X3.826Y-2.174
X3.83Y-6.83
X3.83Y1.7631
X3.85Y-3.71
X3.85Y-3.78
X3.855Y-1.995
X3.9Y-3.81
X3.9028Y-1.9972
X3.91Y-3.22
X3.95Y-2.0
X3.9669Y1.29
X3.97Y-2.04
X4.0Y-2.19
X4.01Y-3.53
X4.03Y-6.42
X4.04Y-6.03
X4.05Y1.0
X4.08Y0.64
X4.08Y-5.64
X4.085Y-5.245
X4.11Y-0.11
X4.11Y-4.86
X4.12Y0.27
X4.12Y-4.46
X4.13Y-0.53
X4.14Y-4.06
X4.15Y-0.9
X4.16Y-3.74
X4.17Y-1.29
X4.19Y-1.68
X4.21Y-3.56
X4.23Y-2.48
X4.24Y-2.44
X4.3268Y1.3465
X4.3268Y1.2992
X4.3268Y1.252
X4.3268Y1.2047
X4.92Y1.014
X4.92Y0.6203
X4.92Y0.2266
X4.92Y-0.1671
X4.92Y-0.5608
X4.92Y-0.9545
X4.92Y-1.3482
X4.92Y-1.7419
X4.92Y-2.1356
X4.92Y-2.5293
X4.92Y-2.923
X4.92Y-3.3167
X4.92Y-3.7104
X4.92Y-4.1041
X4.92Y-4.4978
X4.92Y-4.8915
X4.92Y-5.2852
X4.92Y-5.6789
X4.92Y-6.0726
X4.92Y-6.4663
X4.92Y-6.86
X5.11Y1.014
X5.11Y0.6203
X5.11Y0.2266
X5.11Y-0.1671
X5.11Y-0.5608
X5.11Y-0.9545
X5.11Y-1.3482
X5.11Y-1.7419
X5.11Y-2.1356
X5.11Y-2.5293
X5.11Y-2.923
X5.11Y-3.3167
X5.11Y-3.7104
X5.11Y-4.1041
X5.11Y-4.4978
X5.11Y-4.8915
X5.11Y-5.2852
X5.11Y-5.6789
X5.11Y-6.0726
X5.11Y-6.4663
X5.11Y-6.86
X5.23Y0.954
X5.23Y0.5603
X5.23Y0.1666
X5.23Y-0.2271
X5.23Y-0.6208
X5.23Y-1.0145
X5.23Y-1.4082
X5.23Y-1.8019
X5.23Y-2.1956
X5.23Y-2.5893
X5.23Y-2.983
X5.23Y-3.3767
X5.23Y-3.7704
X5.23Y-4.1641
X5.23Y-4.5578
X5.23Y-4.9515
X5.23Y-5.3452
X5.23Y-5.7389
X5.23Y-6.1326
X5.23Y-6.5263
X5.23Y-6.9163
X5.28Y1.004
X5.28Y0.6103
X5.28Y0.2166
X5.28Y-0.1771
X5.28Y-0.5708
X5.28Y-0.9645
X5.28Y-1.3582
X5.28Y-1.7519
X5.28Y-2.1456
X5.28Y-2.5393
X5.28Y-2.933
X5.28Y-3.3267
X5.28Y-3.7204
X5.28Y-4.1141
X5.28Y-4.5078
X5.28Y-4.9015
X5.28Y-5.2952
X5.28Y-5.6889
X5.28Y-6.0826
X5.28Y-6.4763
X5.28Y-6.8663
X5.32Y0.934
X5.32Y0.5403
X5.32Y0.1466
X5.32Y-0.2471
X5.32Y-0.6408
X5.32Y-1.0345
X5.32Y-1.4282
X5.32Y-1.8219
X5.32Y-2.2156
X5.32Y-2.6093
X5.32Y-3.003
X5.32Y-3.3967
X5.32Y-3.7904
X5.32Y-4.1841
X5.32Y-4.5778
X5.32Y-4.9715
X5.32Y-5.3652
X5.32Y-5.7589
X5.32Y-6.1526
X5.32Y-6.5463
X5.32Y-6.9363
X5.425Y1.515
X5.425Y1.465
X5.425Y1.415
X5.44Y0.924
X5.44Y0.5303
X5.44Y0.1366
X5.44Y-0.2571
X5.44Y-0.6508
X5.44Y-1.0445
X5.44Y-1.4382
X5.44Y-1.8319
X5.44Y-2.2256
X5.44Y-2.6193
X5.44Y-3.013
X5.44Y-3.4067
X5.44Y-3.8004
X5.44Y-4.1941
X5.44Y-4.5878
X5.44Y-4.9815
X5.44Y-5.3752
X5.44Y-5.7689
X5.44Y-6.1626
X5.44Y-6.5563
X5.44Y-6.95
X5.52Y-0.12
X5.52Y-0.53
X5.53Y0.28
X5.58Y0.94
X5.585Y1.565
X5.63Y-3.59
X5.69Y-3.59
X5.75Y-3.59
X5.78Y-2.78
X5.79Y0.6
X5.8Y-3.59
X5.85Y-2.84
X5.89Y-2.82
X5.9Y-5.67
X5.96Y-2.89
X5.97Y-5.67
X6.08Y-2.92
X6.09Y-6.04
X6.09Y-6.43
X6.09Y-6.83
X6.14Y-2.86
X6.15Y-2.17
X6.15Y-5.63
X6.16Y0.94
X6.16Y0.87
X6.16Y0.8
X6.16Y0.73
X6.18Y-0.95
X6.18Y-1.73
X6.18Y-5.27
X6.185Y-1.355
X6.19Y-2.54
X6.2Y-4.9
X6.21Y0.94
X6.21Y0.87
X6.21Y0.8
X6.21Y0.73
X6.2159Y-2.9259
X6.22Y-4.47
X6.24Y-4.09
X6.26Y0.94
X6.26Y0.87
X6.26Y0.8
X6.26Y0.73
X6.27Y-3.69
X6.29Y-3.31
X6.31Y0.94
X6.31Y0.87
X6.31Y0.8
X6.31Y0.73
X6.36Y0.94
X6.36Y0.87
X6.36Y0.8
X6.36Y0.73
X6.41Y0.94
X6.41Y0.87
X6.41Y0.8
X6.41Y0.73
X6.45Y-2.54
X6.46Y0.94
X6.46Y0.87
X6.46Y0.8
X6.46Y0.73
X6.5Y-2.49
X6.55Y-2.2
X6.59Y-2.17
X6.63Y-2.14
X6.67Y-2.11
X7.6Y0.834
X7.6Y0.4403
X7.6Y0.0466
X7.6Y-0.3471
X7.6Y-0.7408
X7.6Y-1.1345
X7.6Y-1.5282
X7.6Y-1.9219
X7.6Y-2.3156
X7.6Y-2.7093
X7.6Y-3.103
X7.6Y-3.4967
X7.6Y-3.8904
X7.6Y-4.2841
X7.6Y-4.6778
X7.6Y-5.0715
X7.6Y-5.4652
X7.6Y-5.8589
X7.6Y-6.2526
X7.6Y-6.6463
X7.6Y-7.04
X7.77Y0.834
X7.77Y0.4403
X7.77Y0.0466
X7.77Y-0.3471
X7.77Y-0.7408
X7.77Y-1.1345
X7.77Y-1.5282
X7.77Y-1.9219
X7.77Y-2.3156
X7.77Y-2.7093
X7.77Y-3.103
X7.77Y-3.4967
X7.77Y-3.8904
X7.77Y-4.2841
X7.77Y-4.6778
X7.77Y-5.0715
X7.77Y-5.4652
X7.77Y-5.8589
X7.77Y-6.2526
X7.77Y-6.6463
X7.77Y-7.04
X7.79Y1.48
X7.83Y-1.61
X7.87Y-5.93
X7.89Y-1.24
X7.92Y-5.93
X7.93Y-0.82
X8.0Y-0.39
X8.1Y0.6
X8.11Y0.26
X8.14Y-5.77
X8.16Y-6.07
X8.19Y-5.77
X8.21Y-5.65
X8.21Y-6.05
X8.24Y0.83
X8.24Y-5.56
X8.24Y-5.6
X8.24Y-5.81
X8.25Y0.52
X8.27Y0.11
X8.42Y-0.27
X8.42Y-0.79
X8.42Y-1.24
X8.42Y-1.64
X8.637Y-6.033
T2
X1.05Y-5.56
X1.05Y-5.6387
X1.05Y-5.7175
X1.05Y-5.7962
X1.05Y-5.875
X1.05Y-5.9537
X1.05Y-6.0324
X1.1287Y-5.56
X1.1287Y-5.6387
X1.1287Y-5.7175
X1.1287Y-5.7962
X1.1287Y-5.875
X1.1287Y-5.9537
X1.1287Y-6.0324
X1.05Y-6.27
X1.05Y-6.3487
X1.05Y-6.4275
X1.05Y-6.5062
X1.05Y-6.585
X1.05Y-6.6637
X1.05Y-6.7424
X1.1287Y-6.27
X1.1287Y-6.3487
X1.1287Y-6.4275
X1.1287Y-6.5062
X1.1287Y-6.585
X1.1287Y-6.6637
X1.1287Y-6.7424
T3
X4.3185Y-1.7719
X4.3185Y-1.9719
X4.4185Y-1.7719
X4.4185Y-1.9719
X4.5185Y-1.7719
X4.5185Y-1.9719
X4.6185Y-1.7719
X4.6185Y-1.9719
X4.8185Y-1.7719
X4.8185Y-1.9719
X2.35Y-6.89
X2.35Y-7.09
X2.45Y-6.89
X2.45Y-7.09
X2.55Y-6.89
X2.55Y-7.09
X2.65Y-6.89
X2.65Y-7.09
X2.85Y-6.89
X2.85Y-7.09
X4.3185Y-5.7089
X4.3185Y-5.9089
X4.4185Y-5.7089
X4.4185Y-5.9089
X4.5185Y-5.7089
X4.5185Y-5.9089
X4.6185Y-5.7089
X4.6185Y-5.9089
X4.8185Y-5.7089
X4.8185Y-5.9089
X2.35Y-2.5593
X2.35Y-2.7593
X2.45Y-2.5593
X2.45Y-2.7593
X2.55Y-2.5593
X2.55Y-2.7593
X2.65Y-2.5593
X2.65Y-2.7593
X2.85Y-2.5593
X2.85Y-2.7593
X4.3185Y-2.1656
X4.3185Y-2.3656
X4.4185Y-2.1656
X4.4185Y-2.3656
X4.5185Y-2.1656
X4.5185Y-2.3656
X4.6185Y-2.1656
X4.6185Y-2.3656
X4.8185Y-2.1656
X4.8185Y-2.3656
X4.3185Y-2.5593
X4.3185Y-2.7593
X4.4185Y-2.5593
X4.4185Y-2.7593
X4.5185Y-2.5593
X4.5185Y-2.7593
X4.6185Y-2.5593
X4.6185Y-2.7593
X4.8185Y-2.5593
X4.8185Y-2.7593
X2.35Y0.1966
X2.35Y-0.0034
X2.45Y0.1966
X2.45Y-0.0034
X2.55Y0.1966
X2.55Y-0.0034
X2.65Y0.1966
X2.65Y-0.0034
X2.85Y0.1966
X2.85Y-0.0034
X2.35Y-6.1026
X2.35Y-6.3026
X2.45Y-6.1026
X2.45Y-6.3026
X2.55Y-6.1026
X2.55Y-6.3026
X2.65Y-6.1026
X2.65Y-6.3026
X2.85Y-6.1026
X2.85Y-6.3026
X4.3185Y-0.1971
X4.3185Y-0.3971
X4.4185Y-0.1971
X4.4185Y-0.3971
X4.5185Y-0.1971
X4.5185Y-0.3971
X4.6185Y-0.1971
X4.6185Y-0.3971
X4.8185Y-0.1971
X4.8185Y-0.3971
X2.35Y-3.7404
X2.35Y-3.9404
X2.45Y-3.7404
X2.45Y-3.9404
X2.55Y-3.7404
X2.55Y-3.9404
X2.65Y-3.7404
X2.65Y-3.9404
X2.85Y-3.7404
X2.85Y-3.9404
X2.35Y0.5903
X2.35Y0.3903
X2.45Y0.5903
X2.45Y0.3903
X2.55Y0.5903
X2.55Y0.3903
X2.65Y0.5903
X2.65Y0.3903
X2.85Y0.5903
X2.85Y0.3903
X2.35Y-5.3152
X2.35Y-5.5152
X2.45Y-5.3152
X2.45Y-5.5152
X2.55Y-5.3152
X2.55Y-5.5152
X2.65Y-5.3152
X2.65Y-5.5152
X2.85Y-5.3152
X2.85Y-5.5152
X4.3185Y0.984
X4.3185Y0.784
X4.4185Y0.984
X4.4185Y0.784
X4.5185Y0.984
X4.5185Y0.784
X4.6185Y0.984
X4.6185Y0.784
X4.8185Y0.984
X4.8185Y0.784
X4.3185Y0.5903
X4.3185Y0.3903
X4.4185Y0.5903
X4.4185Y0.3903
X4.5185Y0.5903
X4.5185Y0.3903
X4.6185Y0.5903
X4.6185Y0.3903
X4.8185Y0.5903
X4.8185Y0.3903
X4.3185Y-6.4963
X4.3185Y-6.6963
X4.4185Y-6.4963
X4.4185Y-6.6963
X4.5185Y-6.4963
X4.5185Y-6.6963
X4.6185Y-6.4963
X4.6185Y-6.6963
X4.8185Y-6.4963
X4.8185Y-6.6963
X2.35Y-4.9215
X2.35Y-5.1215
X2.45Y-4.9215
X2.45Y-5.1215
X2.55Y-4.9215
X2.55Y-5.1215
X2.65Y-4.9215
X2.65Y-5.1215
X2.85Y-4.9215
X2.85Y-5.1215
X2.35Y-5.7089
X2.35Y-5.9089
X2.45Y-5.7089
X2.45Y-5.9089
X2.55Y-5.7089
X2.55Y-5.9089
X2.65Y-5.7089
X2.65Y-5.9089
X2.85Y-5.7089
X2.85Y-5.9089
X2.35Y-1.3782
X2.35Y-1.5782
X2.45Y-1.3782
X2.45Y-1.5782
X2.55Y-1.3782
X2.55Y-1.5782
X2.65Y-1.3782
X2.65Y-1.5782
X2.85Y-1.3782
X2.85Y-1.5782
X2.35Y-0.5908
X2.35Y-0.7908
X2.45Y-0.5908
X2.45Y-0.7908
X2.55Y-0.5908
X2.55Y-0.7908
X2.65Y-0.5908
X2.65Y-0.7908
X2.85Y-0.5908
X2.85Y-0.7908
X2.35Y-2.1656
X2.35Y-2.3656
X2.45Y-2.1656
X2.45Y-2.3656
X2.55Y-2.1656
X2.55Y-2.3656
X2.65Y-2.1656
X2.65Y-2.3656
X2.85Y-2.1656
X2.85Y-2.3656
X4.3185Y-6.89
X4.3185Y-7.09
X4.4185Y-6.89
X4.4185Y-7.09
X4.5185Y-6.89
X4.5185Y-7.09
X4.6185Y-6.89
X4.6185Y-7.09
X4.8185Y-6.89
X4.8185Y-7.09
X2.35Y-1.7719
X2.35Y-1.9719
X2.45Y-1.7719
X2.45Y-1.9719
X2.55Y-1.7719
X2.55Y-1.9719
X2.65Y-1.7719
X2.65Y-1.9719
X2.85Y-1.7719
X2.85Y-1.9719
X2.35Y-0.1971
X2.35Y-0.3971
X2.45Y-0.1971
X2.45Y-0.3971
X2.55Y-0.1971
X2.55Y-0.3971
X2.65Y-0.1971
X2.65Y-0.3971
X2.85Y-0.1971
X2.85Y-0.3971
X4.3185Y-2.953
X4.3185Y-3.153
X4.4185Y-2.953
X4.4185Y-3.153
X4.5185Y-2.953
X4.5185Y-3.153
X4.6185Y-2.953
X4.6185Y-3.153
X4.8185Y-2.953
X4.8185Y-3.153
X4.3185Y-0.9845
X4.3185Y-1.1845
X4.4185Y-0.9845
X4.4185Y-1.1845
X4.5185Y-0.9845
X4.5185Y-1.1845
X4.6185Y-0.9845
X4.6185Y-1.1845
X4.8185Y-0.9845
X4.8185Y-1.1845
X4.3185Y-4.1341
X4.3185Y-4.3341
X4.4185Y-4.1341
X4.4185Y-4.3341
X4.5185Y-4.1341
X4.5185Y-4.3341
X4.6185Y-4.1341
X4.6185Y-4.3341
X4.8185Y-4.1341
X4.8185Y-4.3341
X2.35Y-2.953
X2.35Y-3.153
X2.45Y-2.953
X2.45Y-3.153
X2.55Y-2.953
X2.55Y-3.153
X2.65Y-2.953
X2.65Y-3.153
X2.85Y-2.953
X2.85Y-3.153
X2.35Y-6.4963
X2.35Y-6.6963
X2.45Y-6.4963
X2.45Y-6.6963
X2.55Y-6.4963
X2.55Y-6.6963
X2.65Y-6.4963
X2.65Y-6.6963
X2.85Y-6.4963
X2.85Y-6.6963
X4.3185Y-4.5278
X4.3185Y-4.7278
X4.4185Y-4.5278
X4.4185Y-4.7278
X4.5185Y-4.5278
X4.5185Y-4.7278
X4.6185Y-4.5278
X4.6185Y-4.7278
X4.8185Y-4.5278
X4.8185Y-4.7278
X2.35Y-4.5278
X2.35Y-4.7278
X2.45Y-4.5278
X2.45Y-4.7278
X2.55Y-4.5278
X2.55Y-4.7278
X2.65Y-4.5278
X2.65Y-4.7278
X2.85Y-4.5278
X2.85Y-4.7278
X2.35Y-0.9845
X2.35Y-1.1845
X2.45Y-0.9845
X2.45Y-1.1845
X2.55Y-0.9845
X2.55Y-1.1845
X2.65Y-0.9845
X2.65Y-1.1845
X2.85Y-0.9845
X2.85Y-1.1845
X4.3185Y-4.9215
X4.3185Y-5.1215
X4.4185Y-4.9215
X4.4185Y-5.1215
X4.5185Y-4.9215
X4.5185Y-5.1215
X4.6185Y-4.9215
X4.6185Y-5.1215
X4.8185Y-4.9215
X4.8185Y-5.1215
X4.3185Y-5.3152
X4.3185Y-5.5152
X4.4185Y-5.3152
X4.4185Y-5.5152
X4.5185Y-5.3152
X4.5185Y-5.5152
X4.6185Y-5.3152
X4.6185Y-5.5152
X4.8185Y-5.3152
X4.8185Y-5.5152
X4.3185Y-0.5908
X4.3185Y-0.7908
X4.4185Y-0.5908
X4.4185Y-0.7908
X4.5185Y-0.5908
X4.5185Y-0.7908
X4.6185Y-0.5908
X4.6185Y-0.7908
X4.8185Y-0.5908
X4.8185Y-0.7908
X4.3185Y-3.7404
X4.3185Y-3.9404
X4.4185Y-3.7404
X4.4185Y-3.9404
X4.5185Y-3.7404
X4.5185Y-3.9404
X4.6185Y-3.7404
X4.6185Y-3.9404
X4.8185Y-3.7404
X4.8185Y-3.9404
X4.3185Y0.1966
X4.3185Y-0.0034
X4.4185Y0.1966
X4.4185Y-0.0034
X4.5185Y0.1966
X4.5185Y-0.0034
X4.6185Y0.1966
X4.6185Y-0.0034
X4.8185Y0.1966
X4.8185Y-0.0034
X2.35Y-4.1341
X2.35Y-4.3341
X2.45Y-4.1341
X2.45Y-4.3341
X2.55Y-4.1341
X2.55Y-4.3341
X2.65Y-4.1341
X2.65Y-4.3341
X2.85Y-4.1341
X2.85Y-4.3341
X4.3185Y-3.3467
X4.3185Y-3.5467
X4.4185Y-3.3467
X4.4185Y-3.5467
X4.5185Y-3.3467
X4.5185Y-3.5467
X4.6185Y-3.3467
X4.6185Y-3.5467
X4.8185Y-3.3467
X4.8185Y-3.5467
X2.35Y-3.3467
X2.35Y-3.5467
X2.45Y-3.3467
X2.45Y-3.5467
X2.55Y-3.3467
X2.55Y-3.5467
X2.65Y-3.3467
X2.65Y-3.5467
X2.85Y-3.3467
X2.85Y-3.5467
X4.3185Y-6.1026
X4.3185Y-6.3026
X4.4185Y-6.1026
X4.4185Y-6.3026
X4.5185Y-6.1026
X4.5185Y-6.3026
X4.6185Y-6.1026
X4.6185Y-6.3026
X4.8185Y-6.1026
X4.8185Y-6.3026
X4.3185Y-1.3782
X4.3185Y-1.5782
X4.4185Y-1.3782
X4.4185Y-1.5782
X4.5185Y-1.3782
X4.5185Y-1.5782
X4.6185Y-1.3782
X4.6185Y-1.5782
X4.8185Y-1.3782
X4.8185Y-1.5782
X2.35Y0.984
X2.35Y0.784
X2.45Y0.984
X2.45Y0.784
X2.55Y0.984
X2.55Y0.784
X2.65Y0.984
X2.65Y0.784
X2.85Y0.984
X2.85Y0.784
T4
X8.6619Y-4.4211
X8.6619Y-4.5392
X8.6619Y-4.6573
X8.6619Y-4.7754
X8.78Y-4.4211
X8.78Y-4.5392
X8.78Y-4.6573
X8.78Y-4.7754
X8.6619Y-2.0589
X8.6619Y-2.177
X8.6619Y-2.2951
X8.6619Y-2.4132
X8.78Y-2.0589
X8.78Y-2.177
X8.78Y-2.2951
X8.78Y-2.4132
X1.02Y-4.663
X1.02Y-4.7811
X1.02Y-4.8992
X1.02Y-5.0173
X1.1381Y-4.663
X1.1381Y-4.7811
X1.1381Y-4.8992
X1.1381Y-5.0173
X8.6619Y-3.24
X8.6619Y-3.3581
X8.6619Y-3.4762
X8.6619Y-3.5943
X8.78Y-3.24
X8.78Y-3.3581
X8.78Y-3.4762
X8.78Y-3.5943
X1.02Y-2.0646
X1.02Y-2.1827
X1.02Y-2.3008
X1.02Y-2.4189
X1.1381Y-2.0646
X1.1381Y-2.1827
X1.1381Y-2.3008
X1.1381Y-2.4189
X1.02Y-3.2457
X1.02Y-3.3638
X1.02Y-3.4819
X1.02Y-3.6
X1.1381Y-3.2457
X1.1381Y-3.3638
X1.1381Y-3.4819
X1.1381Y-3.6
T5
X6.787Y-0.6892
X6.937Y-0.6892
X7.237Y-0.6892
X7.387Y-0.6892
X6.787Y-0.2955
X6.937Y-0.2955
X7.237Y-0.2955
X7.387Y-0.2955
X6.787Y-3.0514
X6.937Y-3.0514
X7.237Y-3.0514
X7.387Y-3.0514
X6.787Y0.8856
X6.937Y0.8856
X7.237Y0.8856
X7.387Y0.8856
X6.787Y-4.2325
X6.937Y-4.2325
X7.237Y-4.2325
X7.387Y-4.2325
X6.787Y0.0982
X6.937Y0.0982
X7.237Y0.0982
X7.387Y0.0982
X6.787Y-5.4136
X6.937Y-5.4136
X7.237Y-5.4136
X7.387Y-5.4136
X6.787Y-1.4766
X6.937Y-1.4766
X7.237Y-1.4766
X7.387Y-1.4766
X6.787Y-6.5947
X6.937Y-6.5947
X7.237Y-6.5947
X7.387Y-6.5947
X6.787Y-3.4451
X6.937Y-3.4451
X7.237Y-3.4451
X7.387Y-3.4451
X6.787Y-5.0199
X6.937Y-5.0199
X7.237Y-5.0199
X7.387Y-5.0199
X6.787Y-1.0829
X6.937Y-1.0829
X7.237Y-1.0829
X7.387Y-1.0829
X6.787Y-6.201
X6.937Y-6.201
X7.237Y-6.201
X7.387Y-6.201
X6.787Y-6.9884
X6.937Y-6.9884
X7.237Y-6.9884
X7.387Y-6.9884
X6.787Y-1.8703
X6.937Y-1.8703
X7.237Y-1.8703
X7.387Y-1.8703
X6.787Y-2.6577
X6.937Y-2.6577
X7.237Y-2.6577
X7.387Y-2.6577
X6.787Y0.4919
X6.937Y0.4919
X7.237Y0.4919
X7.387Y0.4919
X6.787Y-3.8388
X6.937Y-3.8388
X7.237Y-3.8388
X7.387Y-3.8388
X6.787Y-5.8073
X6.937Y-5.8073
X7.237Y-5.8073
X7.387Y-5.8073
X6.787Y-4.6262
X6.937Y-4.6262
X7.237Y-4.6262
X7.387Y-4.6262
X6.787Y-2.264
X6.937Y-2.264
X7.237Y-2.264
X7.387Y-2.264
T6
X6.7387Y1.98
X7.3292Y1.98
X1.6206Y1.98
X1.03Y1.98
X2.8017Y1.98
X2.2111Y1.98
T0
M30
