M48
; DRILL file {KiCad (5.1.6)-1} date 10/21/20 11:35:38
; FORMAT={-:-/ absolute / inch / decimal}
; #@! TF.CreationDate,2020-10-21T11:35:38-07:00
; #@! TF.GenerationSoftware,Kicad,Pcbnew,(5.1.6)-1
; #@! TF.FileFunction,NonPlated,1,4,NPTH
FMAT,2
INCH
T1C0.1181
T2C0.1969
%
G90
G05
T1
X8.9501Y-2.1431
X8.9501Y-2.3282
X0.8499Y-3.3307
X0.8499Y-3.5157
X0.8499Y-4.748
X0.8499Y-4.9331
X0.8499Y-1.1646
X0.8499Y-1.3496
X8.9501Y-3.3243
X8.9501Y-3.5093
X0.8499Y-2.1496
X0.8499Y-2.3346
X8.9501Y-1.1597
X8.9501Y-1.3447
X8.9501Y-4.5054
X8.9501Y-4.6904
T2
X8.92Y-2.83
X9.11Y2.22
X0.83Y1.5
X9.11Y-7.12
X0.86Y-2.83
X0.74Y-7.12
T0
M30
