M48
; DRILL file {KiCad (5.1.2)-1} date 11/22/2019 11:25:05 AM
; FORMAT={-:-/ absolute / inch / decimal}
; #@! TF.CreationDate,2019-11-22T11:25:05-08:00
; #@! TF.GenerationSoftware,Kicad,Pcbnew,(5.1.2)-1
; #@! TF.FileFunction,Plated,1,4,PTH
FMAT,2
INCH
T1C0.0157
T2C0.0315
T3C0.0374
T4C0.0394
T5C0.0470
T6C0.1200
T7C0.2402
%
G90
G05
T1
X0.75Y-5.25
X0.85Y-4.55
X0.85Y-4.6
X0.85Y-4.65
X0.85Y-4.7
X0.95Y-5.25
X1.15Y-5.25
X1.85Y0.4
X1.9Y0.4
X1.95Y0.4
X2.0Y0.4
X2.05Y0.4
X2.1Y0.4
X2.15Y0.3
X2.15Y-0.2
X2.15Y-0.7
X2.15Y-1.2
X2.15Y-1.7
X2.15Y-2.2
X2.15Y-2.7
X2.15Y-3.2
X2.15Y-3.7
X2.15Y-4.2
X2.15Y-4.7
X2.15Y-5.15
X2.15Y-5.65
X2.15Y-6.2
X2.15Y-6.7
X2.15Y-7.2
X2.15Y-7.7
X2.15Y-8.2
X2.15Y-8.7
X2.15Y-9.2
X2.2Y-5.15
X2.25Y-5.15
X2.4Y0.2
X2.4Y-0.15
X2.4Y-0.3
X2.4Y-0.65
X2.4Y-0.8
X2.4Y-1.15
X2.4Y-1.3
X2.4Y-1.65
X2.4Y-1.8
X2.4Y-2.15
X2.4Y-2.3
X2.4Y-2.65
X2.4Y-2.8
X2.4Y-3.15
X2.4Y-3.3
X2.4Y-3.65
X2.4Y-3.8
X2.4Y-4.15
X2.4Y-4.3
X2.4Y-4.65
X2.4Y-4.8
X2.4Y-5.15
X2.4Y-5.3
X2.4Y-5.65
X2.4Y-5.8
X2.4Y-6.15
X2.4Y-6.3
X2.4Y-6.65
X2.4Y-6.8
X2.4Y-7.15
X2.4Y-7.3
X2.4Y-7.65
X2.4Y-7.8
X2.4Y-8.15
X2.4Y-8.3
X2.4Y-8.65
X2.4Y-8.8
X2.4Y-9.15
X2.4Y-9.3
X2.4106Y-9.6394
X2.5Y-0.1
X2.5Y-0.6
X2.5Y-1.1
X2.5Y-1.6
X2.5Y-2.1
X2.5Y-2.6
X2.5Y-3.1
X2.5Y-3.6
X2.5Y-4.1
X2.5Y-4.6
X2.5Y-5.1
X2.5Y-5.65
X2.5Y-6.1
X2.5Y-6.6
X2.5Y-7.1
X2.5Y-7.6
X2.5Y-8.1
X2.5Y-8.6
X2.5Y-9.1
X2.5Y-9.65
X2.65Y0.2
X2.65Y-0.3
X2.65Y-0.8
X2.65Y-1.3
X2.65Y-1.8
X2.65Y-2.3
X2.65Y-2.8
X2.65Y-3.3
X2.65Y-3.8
X2.65Y-4.3
X2.65Y-4.8
X2.65Y-5.3
X2.65Y-5.8
X2.65Y-6.3
X2.65Y-6.8
X2.65Y-7.3
X2.65Y-7.8
X2.65Y-8.3
X2.65Y-8.8
X2.65Y-9.3
X2.75Y-5.2
X2.75Y-5.25
X2.8Y-5.7
X2.8Y-5.75
X2.8Y-5.8
X3.175Y-4.575
X3.175Y-4.65
X3.175Y-4.725
X3.225Y-4.575
X3.225Y-4.65
X3.225Y-4.725
X3.25Y-3.7
X3.25Y-3.75
X3.25Y-3.8
X3.275Y-4.575
X3.275Y-4.65
X3.275Y-4.725
X3.2922Y-5.0578
X3.3Y-4.0
X3.3Y-4.05
X3.3Y-4.1
X3.3Y-5.25
X3.325Y-4.575
X3.325Y-4.65
X3.325Y-4.725
X3.35Y-5.2
X3.35Y-5.55
X3.35Y-5.6
X3.35Y-5.65
X3.35Y-5.7
X3.4Y-4.1
X3.4Y-4.15
X3.4Y-4.2
X3.4Y-4.25
X3.4Y-4.3
X3.4Y-5.2
X3.45Y-4.5
X3.45Y-4.8
X3.45Y-5.15
X3.45Y-5.25
X3.5Y-4.8
X3.5Y-5.15
X3.55Y-4.8
X3.55Y-5.15
X3.6Y-3.7
X3.6Y-4.8
X3.6Y-5.15
X3.65Y-3.2
X3.65Y-4.8
X3.7Y-2.7
X3.7Y-4.8
X3.75Y-2.2
X3.75Y-4.8
X3.8Y-1.7
X3.85Y-1.2
X3.9Y-0.7
X3.95Y0.3
X3.95Y-0.2
X4.25Y0.3
X4.25Y-0.2
X4.25Y-0.7
X4.25Y-1.2
X4.25Y-1.7
X4.25Y-1.7
X4.25Y-2.2
X4.25Y-2.7
X4.25Y-3.2
X4.25Y-3.7
X4.25Y-4.2
X4.25Y-4.7
X4.25Y-5.2
X4.25Y-5.7
X4.25Y-6.2
X4.25Y-6.7
X4.25Y-7.2
X4.25Y-7.7
X4.25Y-8.2
X4.25Y-8.7
X4.25Y-9.2
X4.35Y-0.15
X4.35Y-0.65
X4.35Y-1.15
X4.35Y-1.65
X4.35Y-2.15
X4.35Y-2.65
X4.35Y-3.15
X4.35Y-3.65
X4.35Y-4.15
X4.35Y-4.65
X4.35Y-5.15
X4.35Y-5.65
X4.35Y-6.15
X4.35Y-6.65
X4.35Y-7.15
X4.35Y-7.65
X4.35Y-8.15
X4.35Y-8.65
X4.35Y-9.15
X4.35Y-9.65
X4.4Y0.25
X4.4Y-0.25
X4.4Y-0.75
X4.4Y-1.25
X4.4Y-1.75
X4.4Y-2.25
X4.4Y-2.75
X4.4Y-3.25
X4.4Y-3.75
X4.4Y-4.25
X4.4Y-4.75
X4.4Y-5.25
X4.4Y-5.75
X4.4Y-6.25
X4.4Y-6.75
X4.4Y-7.25
X4.4Y-7.75
X4.4Y-8.25
X4.4Y-8.75
X4.4Y-9.25
X4.45Y0.3
X4.475Y-0.2
X4.475Y-0.7
X4.475Y-1.2
X4.475Y-1.7
X4.475Y-2.2
X4.475Y-2.7
X4.475Y-3.2
X4.475Y-3.7
X4.475Y-4.2
X4.475Y-4.7
X4.475Y-5.2
X4.475Y-5.7
X4.475Y-6.2
X4.475Y-6.7
X4.475Y-7.2
X4.475Y-7.7
X4.475Y-8.2
X4.475Y-8.7
X4.475Y-9.2
X4.55Y-0.15
X4.55Y-0.65
X4.55Y-1.15
X4.55Y-1.65
X4.55Y-2.15
X4.55Y-2.65
X4.55Y-3.15
X4.55Y-3.65
X4.55Y-4.15
X4.55Y-4.65
X4.55Y-5.15
X4.55Y-5.65
X4.55Y-6.15
X4.55Y-6.65
X4.55Y-7.15
X4.55Y-7.65
X4.55Y-8.15
X4.55Y-8.65
X4.55Y-9.15
X4.55Y-9.65
X4.6Y0.2
X4.6Y-0.3
X4.6Y-0.8
X4.6Y-1.3
X4.6Y-1.8
X4.6Y-2.3
X4.6Y-2.8
X4.6Y-3.3
X4.6Y-3.8
X4.6Y-4.3
X4.6Y-4.8
X4.6Y-5.3
X4.6Y-5.8
X4.6Y-6.3
X4.6Y-6.8
X4.6Y-7.3
X4.6Y-7.8
X4.6Y-8.3
X4.6Y-8.8
X4.6Y-9.3
X4.7Y-5.05
X4.7Y-5.1
X4.7Y-5.15
X4.7Y-5.2
X4.7Y-5.25
X4.7Y-5.5
X4.7Y-5.55
X4.7Y-5.6
X4.7Y-5.65
X4.7Y-5.75
X5.2Y0.15
X5.25Y0.1
X5.3Y0.05
X5.35Y0.0
T2
X0.25Y-7.2
X0.25Y-7.2787
X0.25Y-7.3575
X0.25Y-7.4362
X0.25Y-7.515
X0.25Y-7.5937
X0.25Y-7.6724
X0.3287Y-7.2
X0.3287Y-7.2787
X0.3287Y-7.3575
X0.3287Y-7.4362
X0.3287Y-7.515
X0.3287Y-7.5937
X0.3287Y-7.6724
X0.95Y-4.55
X0.95Y-4.6287
X0.95Y-4.7075
X0.75Y-4.55
X0.75Y-4.6287
X0.75Y-4.7075
X0.25Y-8.45
X0.25Y-8.5287
X0.25Y-8.6075
X0.25Y-8.6862
X0.25Y-8.765
X0.25Y-8.8437
X0.25Y-8.9224
X0.3287Y-8.45
X0.3287Y-8.5287
X0.3287Y-8.6075
X0.3287Y-8.6862
X0.3287Y-8.765
X0.3287Y-8.8437
X0.3287Y-8.9224
X1.15Y-4.55
X1.15Y-4.6287
X1.15Y-4.7075
T3
X6.45Y-2.9878
X6.45Y-3.0862
X6.45Y-3.1846
X6.45Y-3.2831
X6.45Y-3.3815
X6.45Y-3.4799
X6.45Y-3.5783
X6.45Y-3.6768
X6.45Y-3.7752
X6.45Y-3.8736
X0.0Y-5.3642
X0.0Y-5.4626
X0.0Y-5.561
X0.0Y-5.6594
X0.0Y-5.7579
X0.0Y-5.8563
X0.0Y-5.9547
X0.0Y-6.0531
X0.0Y-6.1516
X0.0Y-6.25
X0.0Y-3.0512
X0.0Y-3.1496
X0.0Y-3.248
X0.0Y-3.3465
X0.0Y-3.4449
X0.0Y-3.5433
X0.0Y-3.6417
X0.0Y-3.7402
X0.0Y-3.8386
X0.0Y-3.937
X6.45Y-5.35
X6.45Y-5.4484
X6.45Y-5.5469
X6.45Y-5.6453
X6.45Y-5.7437
X6.45Y-5.8421
X6.45Y-5.9406
X6.45Y-6.039
X6.45Y-6.1374
X6.45Y-6.2358
X6.15Y-7.45
X6.15Y-7.5484
X6.15Y-7.6469
X6.15Y-7.7453
X6.15Y-7.8437
X6.15Y-7.9421
X6.15Y-8.0406
X6.15Y-8.139
X6.15Y-8.2374
X6.15Y-8.3358
T4
X0.625Y-7.4
X0.625Y-7.5
T5
X5.7Y-0.106
X5.7Y-0.215
X5.7Y-0.324
X5.7Y-0.433
X5.7Y-0.542
X5.7Y-0.651
X5.7Y-0.76
X5.7Y-0.869
X5.7Y-0.978
X5.7Y-1.087
X5.7Y-1.196
X5.7Y-1.305
X5.7Y-1.414
X5.7Y-1.523
X5.7Y-1.632
X5.7Y-1.741
X5.7Y-1.85
X5.812Y-0.1605
X5.812Y-0.2695
X5.812Y-0.3785
X5.812Y-0.4875
X5.812Y-0.5965
X5.812Y-0.7055
X5.812Y-0.8145
X5.812Y-0.9235
X5.812Y-1.0325
X5.812Y-1.1415
X5.812Y-1.2505
X5.812Y-1.3595
X5.812Y-1.4685
X5.812Y-1.5775
X5.812Y-1.6865
X5.812Y-1.7955
X5.924Y-0.106
X5.924Y-0.215
X5.924Y-0.324
X5.924Y-0.433
X5.924Y-0.542
X5.924Y-0.651
X5.924Y-0.76
X5.924Y-0.869
X5.924Y-0.978
X5.924Y-1.087
X5.924Y-1.196
X5.924Y-1.305
X5.924Y-1.414
X5.924Y-1.523
X5.924Y-1.632
X5.924Y-1.741
X5.924Y-1.85
T6
X5.812Y0.227
X5.812Y-2.183
T7
X0.1Y-1.8
X0.1Y-1.05
X0.1Y-0.3
X0.85Y-1.8
X0.85Y-1.05
X0.85Y-0.3
T0
M30
