G04 #@! TF.GenerationSoftware,KiCad,Pcbnew,(5.1.2)-1*
G04 #@! TF.CreationDate,2019-11-22T11:24:58-08:00*
G04 #@! TF.ProjectId,relayBoard,72656c61-7942-46f6-9172-642e6b696361,rev?*
G04 #@! TF.SameCoordinates,Original*
G04 #@! TF.FileFunction,Legend,Top*
G04 #@! TF.FilePolarity,Positive*
%FSLAX46Y46*%
G04 Gerber Fmt 4.6, Leading zero omitted, Abs format (unit mm)*
G04 Created by KiCad (PCBNEW (5.1.2)-1) date 2019-11-22 11:24:58*
%MOMM*%
%LPD*%
G04 APERTURE LIST*
%ADD10C,0.120000*%
%ADD11C,0.300000*%
%ADD12C,0.150000*%
G04 APERTURE END LIST*
D10*
X14605000Y-233680000D02*
X46355000Y-233680000D01*
D11*
X30607857Y-240708571D02*
X30607857Y-239208571D01*
X30607857Y-239922857D02*
X31465000Y-239922857D01*
X31465000Y-240708571D02*
X31465000Y-239208571D01*
X32179285Y-240708571D02*
X32179285Y-239708571D01*
X32179285Y-239208571D02*
X32107857Y-239280000D01*
X32179285Y-239351428D01*
X32250714Y-239280000D01*
X32179285Y-239208571D01*
X32179285Y-239351428D01*
X33536428Y-239708571D02*
X33536428Y-240922857D01*
X33465000Y-241065714D01*
X33393571Y-241137142D01*
X33250714Y-241208571D01*
X33036428Y-241208571D01*
X32893571Y-241137142D01*
X33536428Y-240637142D02*
X33393571Y-240708571D01*
X33107857Y-240708571D01*
X32965000Y-240637142D01*
X32893571Y-240565714D01*
X32822142Y-240422857D01*
X32822142Y-239994285D01*
X32893571Y-239851428D01*
X32965000Y-239780000D01*
X33107857Y-239708571D01*
X33393571Y-239708571D01*
X33536428Y-239780000D01*
X34250714Y-240708571D02*
X34250714Y-239208571D01*
X34893571Y-240708571D02*
X34893571Y-239922857D01*
X34822142Y-239780000D01*
X34679285Y-239708571D01*
X34465000Y-239708571D01*
X34322142Y-239780000D01*
X34250714Y-239851428D01*
X36536428Y-239208571D02*
X37036428Y-240708571D01*
X37536428Y-239208571D01*
X38250714Y-240708571D02*
X38107857Y-240637142D01*
X38036428Y-240565714D01*
X37965000Y-240422857D01*
X37965000Y-239994285D01*
X38036428Y-239851428D01*
X38107857Y-239780000D01*
X38250714Y-239708571D01*
X38465000Y-239708571D01*
X38607857Y-239780000D01*
X38679285Y-239851428D01*
X38750714Y-239994285D01*
X38750714Y-240422857D01*
X38679285Y-240565714D01*
X38607857Y-240637142D01*
X38465000Y-240708571D01*
X38250714Y-240708571D01*
X39607857Y-240708571D02*
X39465000Y-240637142D01*
X39393571Y-240494285D01*
X39393571Y-239208571D01*
X39965000Y-239708571D02*
X40536428Y-239708571D01*
X40179285Y-239208571D02*
X40179285Y-240494285D01*
X40250714Y-240637142D01*
X40393571Y-240708571D01*
X40536428Y-240708571D01*
X41679285Y-240708571D02*
X41679285Y-239922857D01*
X41607857Y-239780000D01*
X41465000Y-239708571D01*
X41179285Y-239708571D01*
X41036428Y-239780000D01*
X41679285Y-240637142D02*
X41536428Y-240708571D01*
X41179285Y-240708571D01*
X41036428Y-240637142D01*
X40965000Y-240494285D01*
X40965000Y-240351428D01*
X41036428Y-240208571D01*
X41179285Y-240137142D01*
X41536428Y-240137142D01*
X41679285Y-240065714D01*
X43036428Y-239708571D02*
X43036428Y-240922857D01*
X42965000Y-241065714D01*
X42893571Y-241137142D01*
X42750714Y-241208571D01*
X42536428Y-241208571D01*
X42393571Y-241137142D01*
X43036428Y-240637142D02*
X42893571Y-240708571D01*
X42607857Y-240708571D01*
X42465000Y-240637142D01*
X42393571Y-240565714D01*
X42322142Y-240422857D01*
X42322142Y-239994285D01*
X42393571Y-239851428D01*
X42465000Y-239780000D01*
X42607857Y-239708571D01*
X42893571Y-239708571D01*
X43036428Y-239780000D01*
X44322142Y-240637142D02*
X44179285Y-240708571D01*
X43893571Y-240708571D01*
X43750714Y-240637142D01*
X43679285Y-240494285D01*
X43679285Y-239922857D01*
X43750714Y-239780000D01*
X43893571Y-239708571D01*
X44179285Y-239708571D01*
X44322142Y-239780000D01*
X44393571Y-239922857D01*
X44393571Y-240065714D01*
X43679285Y-240208571D01*
X15427142Y-240708571D02*
X14570000Y-240708571D01*
X14998571Y-240708571D02*
X14998571Y-239208571D01*
X14855714Y-239422857D01*
X14712857Y-239565714D01*
X14570000Y-239637142D01*
X15998571Y-239351428D02*
X16070000Y-239280000D01*
X16212857Y-239208571D01*
X16570000Y-239208571D01*
X16712857Y-239280000D01*
X16784285Y-239351428D01*
X16855714Y-239494285D01*
X16855714Y-239637142D01*
X16784285Y-239851428D01*
X15927142Y-240708571D01*
X16855714Y-240708571D01*
X17284285Y-239208571D02*
X17784285Y-240708571D01*
X18284285Y-239208571D01*
X19927142Y-240708571D02*
X19927142Y-239208571D01*
X20784285Y-240708571D01*
X20784285Y-239208571D01*
X21712857Y-240708571D02*
X21570000Y-240637142D01*
X21498571Y-240565714D01*
X21427142Y-240422857D01*
X21427142Y-239994285D01*
X21498571Y-239851428D01*
X21570000Y-239780000D01*
X21712857Y-239708571D01*
X21927142Y-239708571D01*
X22070000Y-239780000D01*
X22141428Y-239851428D01*
X22212857Y-239994285D01*
X22212857Y-240422857D01*
X22141428Y-240565714D01*
X22070000Y-240637142D01*
X21927142Y-240708571D01*
X21712857Y-240708571D01*
X24712857Y-239208571D02*
X23998571Y-239208571D01*
X23927142Y-239922857D01*
X23998571Y-239851428D01*
X24141428Y-239780000D01*
X24498571Y-239780000D01*
X24641428Y-239851428D01*
X24712857Y-239922857D01*
X24784285Y-240065714D01*
X24784285Y-240422857D01*
X24712857Y-240565714D01*
X24641428Y-240637142D01*
X24498571Y-240708571D01*
X24141428Y-240708571D01*
X23998571Y-240637142D01*
X23927142Y-240565714D01*
X25212857Y-239208571D02*
X25712857Y-240708571D01*
X26212857Y-239208571D01*
X35893571Y-243740714D02*
X35822142Y-243812142D01*
X35607857Y-243883571D01*
X35465000Y-243883571D01*
X35250714Y-243812142D01*
X35107857Y-243669285D01*
X35036428Y-243526428D01*
X34965000Y-243240714D01*
X34965000Y-243026428D01*
X35036428Y-242740714D01*
X35107857Y-242597857D01*
X35250714Y-242455000D01*
X35465000Y-242383571D01*
X35607857Y-242383571D01*
X35822142Y-242455000D01*
X35893571Y-242526428D01*
X37107857Y-243812142D02*
X36965000Y-243883571D01*
X36679285Y-243883571D01*
X36536428Y-243812142D01*
X36465000Y-243669285D01*
X36465000Y-243097857D01*
X36536428Y-242955000D01*
X36679285Y-242883571D01*
X36965000Y-242883571D01*
X37107857Y-242955000D01*
X37179285Y-243097857D01*
X37179285Y-243240714D01*
X36465000Y-243383571D01*
X38036428Y-243883571D02*
X37893571Y-243812142D01*
X37822142Y-243669285D01*
X37822142Y-242383571D01*
X38822142Y-243883571D02*
X38679285Y-243812142D01*
X38607857Y-243669285D01*
X38607857Y-242383571D01*
X39322142Y-243812142D02*
X39465000Y-243883571D01*
X39750714Y-243883571D01*
X39893571Y-243812142D01*
X39965000Y-243669285D01*
X39965000Y-243597857D01*
X39893571Y-243455000D01*
X39750714Y-243383571D01*
X39536428Y-243383571D01*
X39393571Y-243312142D01*
X39322142Y-243169285D01*
X39322142Y-243097857D01*
X39393571Y-242955000D01*
X39536428Y-242883571D01*
X39750714Y-242883571D01*
X39893571Y-242955000D01*
X17177142Y-242383571D02*
X16462857Y-242383571D01*
X16391428Y-243097857D01*
X16462857Y-243026428D01*
X16605714Y-242955000D01*
X16962857Y-242955000D01*
X17105714Y-243026428D01*
X17177142Y-243097857D01*
X17248571Y-243240714D01*
X17248571Y-243597857D01*
X17177142Y-243740714D01*
X17105714Y-243812142D01*
X16962857Y-243883571D01*
X16605714Y-243883571D01*
X16462857Y-243812142D01*
X16391428Y-243740714D01*
X17677142Y-242383571D02*
X18177142Y-243883571D01*
X18677142Y-242383571D01*
X20248571Y-242312142D02*
X18962857Y-244240714D01*
X21534285Y-243883571D02*
X20677142Y-243883571D01*
X21105714Y-243883571D02*
X21105714Y-242383571D01*
X20962857Y-242597857D01*
X20820000Y-242740714D01*
X20677142Y-242812142D01*
X22105714Y-242526428D02*
X22177142Y-242455000D01*
X22320000Y-242383571D01*
X22677142Y-242383571D01*
X22820000Y-242455000D01*
X22891428Y-242526428D01*
X22962857Y-242669285D01*
X22962857Y-242812142D01*
X22891428Y-243026428D01*
X22034285Y-243883571D01*
X22962857Y-243883571D01*
X23391428Y-242383571D02*
X23891428Y-243883571D01*
X24391428Y-242383571D01*
X30607857Y-237533571D02*
X30607857Y-236033571D01*
X30607857Y-236747857D02*
X31465000Y-236747857D01*
X31465000Y-237533571D02*
X31465000Y-236033571D01*
X32179285Y-237533571D02*
X32179285Y-236533571D01*
X32179285Y-236033571D02*
X32107857Y-236105000D01*
X32179285Y-236176428D01*
X32250714Y-236105000D01*
X32179285Y-236033571D01*
X32179285Y-236176428D01*
X33536428Y-236533571D02*
X33536428Y-237747857D01*
X33465000Y-237890714D01*
X33393571Y-237962142D01*
X33250714Y-238033571D01*
X33036428Y-238033571D01*
X32893571Y-237962142D01*
X33536428Y-237462142D02*
X33393571Y-237533571D01*
X33107857Y-237533571D01*
X32965000Y-237462142D01*
X32893571Y-237390714D01*
X32822142Y-237247857D01*
X32822142Y-236819285D01*
X32893571Y-236676428D01*
X32965000Y-236605000D01*
X33107857Y-236533571D01*
X33393571Y-236533571D01*
X33536428Y-236605000D01*
X34250714Y-237533571D02*
X34250714Y-236033571D01*
X34893571Y-237533571D02*
X34893571Y-236747857D01*
X34822142Y-236605000D01*
X34679285Y-236533571D01*
X34465000Y-236533571D01*
X34322142Y-236605000D01*
X34250714Y-236676428D01*
X36536428Y-236033571D02*
X37036428Y-237533571D01*
X37536428Y-236033571D01*
X38250714Y-237533571D02*
X38107857Y-237462142D01*
X38036428Y-237390714D01*
X37965000Y-237247857D01*
X37965000Y-236819285D01*
X38036428Y-236676428D01*
X38107857Y-236605000D01*
X38250714Y-236533571D01*
X38465000Y-236533571D01*
X38607857Y-236605000D01*
X38679285Y-236676428D01*
X38750714Y-236819285D01*
X38750714Y-237247857D01*
X38679285Y-237390714D01*
X38607857Y-237462142D01*
X38465000Y-237533571D01*
X38250714Y-237533571D01*
X39607857Y-237533571D02*
X39465000Y-237462142D01*
X39393571Y-237319285D01*
X39393571Y-236033571D01*
X39965000Y-236533571D02*
X40536428Y-236533571D01*
X40179285Y-236033571D02*
X40179285Y-237319285D01*
X40250714Y-237462142D01*
X40393571Y-237533571D01*
X40536428Y-237533571D01*
X41679285Y-237533571D02*
X41679285Y-236747857D01*
X41607857Y-236605000D01*
X41465000Y-236533571D01*
X41179285Y-236533571D01*
X41036428Y-236605000D01*
X41679285Y-237462142D02*
X41536428Y-237533571D01*
X41179285Y-237533571D01*
X41036428Y-237462142D01*
X40965000Y-237319285D01*
X40965000Y-237176428D01*
X41036428Y-237033571D01*
X41179285Y-236962142D01*
X41536428Y-236962142D01*
X41679285Y-236890714D01*
X43036428Y-236533571D02*
X43036428Y-237747857D01*
X42965000Y-237890714D01*
X42893571Y-237962142D01*
X42750714Y-238033571D01*
X42536428Y-238033571D01*
X42393571Y-237962142D01*
X43036428Y-237462142D02*
X42893571Y-237533571D01*
X42607857Y-237533571D01*
X42465000Y-237462142D01*
X42393571Y-237390714D01*
X42322142Y-237247857D01*
X42322142Y-236819285D01*
X42393571Y-236676428D01*
X42465000Y-236605000D01*
X42607857Y-236533571D01*
X42893571Y-236533571D01*
X43036428Y-236605000D01*
X44322142Y-237462142D02*
X44179285Y-237533571D01*
X43893571Y-237533571D01*
X43750714Y-237462142D01*
X43679285Y-237319285D01*
X43679285Y-236747857D01*
X43750714Y-236605000D01*
X43893571Y-236533571D01*
X44179285Y-236533571D01*
X44322142Y-236605000D01*
X44393571Y-236747857D01*
X44393571Y-236890714D01*
X43679285Y-237033571D01*
X15320000Y-237533571D02*
X15320000Y-236033571D01*
X16177142Y-237533571D01*
X16177142Y-236033571D01*
X17105714Y-237533571D02*
X16962857Y-237462142D01*
X16891428Y-237390714D01*
X16820000Y-237247857D01*
X16820000Y-236819285D01*
X16891428Y-236676428D01*
X16962857Y-236605000D01*
X17105714Y-236533571D01*
X17320000Y-236533571D01*
X17462857Y-236605000D01*
X17534285Y-236676428D01*
X17605714Y-236819285D01*
X17605714Y-237247857D01*
X17534285Y-237390714D01*
X17462857Y-237462142D01*
X17320000Y-237533571D01*
X17105714Y-237533571D01*
X19391428Y-237533571D02*
X19391428Y-236033571D01*
X19962857Y-236033571D01*
X20105714Y-236105000D01*
X20177142Y-236176428D01*
X20248571Y-236319285D01*
X20248571Y-236533571D01*
X20177142Y-236676428D01*
X20105714Y-236747857D01*
X19962857Y-236819285D01*
X19391428Y-236819285D01*
X21105714Y-237533571D02*
X20962857Y-237462142D01*
X20891428Y-237390714D01*
X20820000Y-237247857D01*
X20820000Y-236819285D01*
X20891428Y-236676428D01*
X20962857Y-236605000D01*
X21105714Y-236533571D01*
X21320000Y-236533571D01*
X21462857Y-236605000D01*
X21534285Y-236676428D01*
X21605714Y-236819285D01*
X21605714Y-237247857D01*
X21534285Y-237390714D01*
X21462857Y-237462142D01*
X21320000Y-237533571D01*
X21105714Y-237533571D01*
X22105714Y-236533571D02*
X22391428Y-237533571D01*
X22677142Y-236819285D01*
X22962857Y-237533571D01*
X23248571Y-236533571D01*
X24391428Y-237462142D02*
X24248571Y-237533571D01*
X23962857Y-237533571D01*
X23820000Y-237462142D01*
X23748571Y-237319285D01*
X23748571Y-236747857D01*
X23820000Y-236605000D01*
X23962857Y-236533571D01*
X24248571Y-236533571D01*
X24391428Y-236605000D01*
X24462857Y-236747857D01*
X24462857Y-236890714D01*
X23748571Y-237033571D01*
X25105714Y-237533571D02*
X25105714Y-236533571D01*
X25105714Y-236819285D02*
X25177142Y-236676428D01*
X25248571Y-236605000D01*
X25391428Y-236533571D01*
X25534285Y-236533571D01*
X31393571Y-232453571D02*
X30893571Y-231739285D01*
X30536428Y-232453571D02*
X30536428Y-230953571D01*
X31107857Y-230953571D01*
X31250714Y-231025000D01*
X31322142Y-231096428D01*
X31393571Y-231239285D01*
X31393571Y-231453571D01*
X31322142Y-231596428D01*
X31250714Y-231667857D01*
X31107857Y-231739285D01*
X30536428Y-231739285D01*
X32607857Y-232382142D02*
X32465000Y-232453571D01*
X32179285Y-232453571D01*
X32036428Y-232382142D01*
X31965000Y-232239285D01*
X31965000Y-231667857D01*
X32036428Y-231525000D01*
X32179285Y-231453571D01*
X32465000Y-231453571D01*
X32607857Y-231525000D01*
X32679285Y-231667857D01*
X32679285Y-231810714D01*
X31965000Y-231953571D01*
X33536428Y-232453571D02*
X33393571Y-232382142D01*
X33322142Y-232239285D01*
X33322142Y-230953571D01*
X34750714Y-232453571D02*
X34750714Y-231667857D01*
X34679285Y-231525000D01*
X34536428Y-231453571D01*
X34250714Y-231453571D01*
X34107857Y-231525000D01*
X34750714Y-232382142D02*
X34607857Y-232453571D01*
X34250714Y-232453571D01*
X34107857Y-232382142D01*
X34036428Y-232239285D01*
X34036428Y-232096428D01*
X34107857Y-231953571D01*
X34250714Y-231882142D01*
X34607857Y-231882142D01*
X34750714Y-231810714D01*
X35322142Y-231453571D02*
X35679285Y-232453571D01*
X36036428Y-231453571D02*
X35679285Y-232453571D01*
X35536428Y-232810714D01*
X35465000Y-232882142D01*
X35322142Y-232953571D01*
X38036428Y-230953571D02*
X38322142Y-230953571D01*
X38465000Y-231025000D01*
X38607857Y-231167857D01*
X38679285Y-231453571D01*
X38679285Y-231953571D01*
X38607857Y-232239285D01*
X38465000Y-232382142D01*
X38322142Y-232453571D01*
X38036428Y-232453571D01*
X37893571Y-232382142D01*
X37750714Y-232239285D01*
X37679285Y-231953571D01*
X37679285Y-231453571D01*
X37750714Y-231167857D01*
X37893571Y-231025000D01*
X38036428Y-230953571D01*
X39965000Y-231453571D02*
X39965000Y-232453571D01*
X39322142Y-231453571D02*
X39322142Y-232239285D01*
X39393571Y-232382142D01*
X39536428Y-232453571D01*
X39750714Y-232453571D01*
X39893571Y-232382142D01*
X39965000Y-232310714D01*
X40465000Y-231453571D02*
X41036428Y-231453571D01*
X40679285Y-230953571D02*
X40679285Y-232239285D01*
X40750714Y-232382142D01*
X40893571Y-232453571D01*
X41036428Y-232453571D01*
X41536428Y-231453571D02*
X41536428Y-232953571D01*
X41536428Y-231525000D02*
X41679285Y-231453571D01*
X41965000Y-231453571D01*
X42107857Y-231525000D01*
X42179285Y-231596428D01*
X42250714Y-231739285D01*
X42250714Y-232167857D01*
X42179285Y-232310714D01*
X42107857Y-232382142D01*
X41965000Y-232453571D01*
X41679285Y-232453571D01*
X41536428Y-232382142D01*
X43536428Y-231453571D02*
X43536428Y-232453571D01*
X42893571Y-231453571D02*
X42893571Y-232239285D01*
X42965000Y-232382142D01*
X43107857Y-232453571D01*
X43322142Y-232453571D01*
X43465000Y-232382142D01*
X43536428Y-232310714D01*
X44036428Y-231453571D02*
X44607857Y-231453571D01*
X44250714Y-230953571D02*
X44250714Y-232239285D01*
X44322142Y-232382142D01*
X44465000Y-232453571D01*
X44607857Y-232453571D01*
X17355714Y-232453571D02*
X17355714Y-230953571D01*
X17927142Y-230953571D01*
X18070000Y-231025000D01*
X18141428Y-231096428D01*
X18212857Y-231239285D01*
X18212857Y-231453571D01*
X18141428Y-231596428D01*
X18070000Y-231667857D01*
X17927142Y-231739285D01*
X17355714Y-231739285D01*
X19070000Y-232453571D02*
X18927142Y-232382142D01*
X18855714Y-232310714D01*
X18784285Y-232167857D01*
X18784285Y-231739285D01*
X18855714Y-231596428D01*
X18927142Y-231525000D01*
X19070000Y-231453571D01*
X19284285Y-231453571D01*
X19427142Y-231525000D01*
X19498571Y-231596428D01*
X19570000Y-231739285D01*
X19570000Y-232167857D01*
X19498571Y-232310714D01*
X19427142Y-232382142D01*
X19284285Y-232453571D01*
X19070000Y-232453571D01*
X20070000Y-231453571D02*
X20355714Y-232453571D01*
X20641428Y-231739285D01*
X20927142Y-232453571D01*
X21212857Y-231453571D01*
X22355714Y-232382142D02*
X22212857Y-232453571D01*
X21927142Y-232453571D01*
X21784285Y-232382142D01*
X21712857Y-232239285D01*
X21712857Y-231667857D01*
X21784285Y-231525000D01*
X21927142Y-231453571D01*
X22212857Y-231453571D01*
X22355714Y-231525000D01*
X22427142Y-231667857D01*
X22427142Y-231810714D01*
X21712857Y-231953571D01*
X23070000Y-232453571D02*
X23070000Y-231453571D01*
X23070000Y-231739285D02*
X23141428Y-231596428D01*
X23212857Y-231525000D01*
X23355714Y-231453571D01*
X23498571Y-231453571D01*
X10938571Y-186098571D02*
X10224285Y-186098571D01*
X10224285Y-184598571D01*
X11438571Y-186098571D02*
X11438571Y-185098571D01*
X11438571Y-184598571D02*
X11367142Y-184670000D01*
X11438571Y-184741428D01*
X11510000Y-184670000D01*
X11438571Y-184598571D01*
X11438571Y-184741428D01*
X12152857Y-185098571D02*
X12152857Y-186098571D01*
X12152857Y-185241428D02*
X12224285Y-185170000D01*
X12367142Y-185098571D01*
X12581428Y-185098571D01*
X12724285Y-185170000D01*
X12795714Y-185312857D01*
X12795714Y-186098571D01*
X14152857Y-186098571D02*
X14152857Y-184598571D01*
X14152857Y-186027142D02*
X14010000Y-186098571D01*
X13724285Y-186098571D01*
X13581428Y-186027142D01*
X13510000Y-185955714D01*
X13438571Y-185812857D01*
X13438571Y-185384285D01*
X13510000Y-185241428D01*
X13581428Y-185170000D01*
X13724285Y-185098571D01*
X14010000Y-185098571D01*
X14152857Y-185170000D01*
X15510000Y-185098571D02*
X15510000Y-186098571D01*
X14867142Y-185098571D02*
X14867142Y-185884285D01*
X14938571Y-186027142D01*
X15081428Y-186098571D01*
X15295714Y-186098571D01*
X15438571Y-186027142D01*
X15510000Y-185955714D01*
X16224285Y-186098571D02*
X16224285Y-185098571D01*
X16224285Y-184598571D02*
X16152857Y-184670000D01*
X16224285Y-184741428D01*
X16295714Y-184670000D01*
X16224285Y-184598571D01*
X16224285Y-184741428D01*
X16938571Y-185098571D02*
X16938571Y-186098571D01*
X16938571Y-185241428D02*
X17010000Y-185170000D01*
X17152857Y-185098571D01*
X17367142Y-185098571D01*
X17510000Y-185170000D01*
X17581428Y-185312857D01*
X17581428Y-186098571D01*
X18510000Y-186098571D02*
X18367142Y-186027142D01*
X18295714Y-185955714D01*
X18224285Y-185812857D01*
X18224285Y-185384285D01*
X18295714Y-185241428D01*
X18367142Y-185170000D01*
X18510000Y-185098571D01*
X18724285Y-185098571D01*
X18867142Y-185170000D01*
X18938571Y-185241428D01*
X19010000Y-185384285D01*
X19010000Y-185812857D01*
X18938571Y-185955714D01*
X18867142Y-186027142D01*
X18724285Y-186098571D01*
X18510000Y-186098571D01*
X21510000Y-184598571D02*
X20795714Y-184598571D01*
X20724285Y-185312857D01*
X20795714Y-185241428D01*
X20938571Y-185170000D01*
X21295714Y-185170000D01*
X21438571Y-185241428D01*
X21510000Y-185312857D01*
X21581428Y-185455714D01*
X21581428Y-185812857D01*
X21510000Y-185955714D01*
X21438571Y-186027142D01*
X21295714Y-186098571D01*
X20938571Y-186098571D01*
X20795714Y-186027142D01*
X20724285Y-185955714D01*
X22010000Y-184598571D02*
X22510000Y-186098571D01*
X23010000Y-184598571D01*
X28138571Y-122805000D02*
X28852857Y-122805000D01*
X27995714Y-123233571D02*
X28495714Y-121733571D01*
X28995714Y-123233571D01*
X29424285Y-121876428D02*
X29495714Y-121805000D01*
X29638571Y-121733571D01*
X29995714Y-121733571D01*
X30138571Y-121805000D01*
X30210000Y-121876428D01*
X30281428Y-122019285D01*
X30281428Y-122162142D01*
X30210000Y-122376428D01*
X29352857Y-123233571D01*
X30281428Y-123233571D01*
X23058571Y-122805000D02*
X23772857Y-122805000D01*
X22915714Y-123233571D02*
X23415714Y-121733571D01*
X23915714Y-123233571D01*
X25201428Y-123233571D02*
X24344285Y-123233571D01*
X24772857Y-123233571D02*
X24772857Y-121733571D01*
X24630000Y-121947857D01*
X24487142Y-122090714D01*
X24344285Y-122162142D01*
X17978571Y-122805000D02*
X18692857Y-122805000D01*
X17835714Y-123233571D02*
X18335714Y-121733571D01*
X18835714Y-123233571D01*
X19621428Y-121733571D02*
X19764285Y-121733571D01*
X19907142Y-121805000D01*
X19978571Y-121876428D01*
X20050000Y-122019285D01*
X20121428Y-122305000D01*
X20121428Y-122662142D01*
X20050000Y-122947857D01*
X19978571Y-123090714D01*
X19907142Y-123162142D01*
X19764285Y-123233571D01*
X19621428Y-123233571D01*
X19478571Y-123162142D01*
X19407142Y-123090714D01*
X19335714Y-122947857D01*
X19264285Y-122662142D01*
X19264285Y-122305000D01*
X19335714Y-122019285D01*
X19407142Y-121876428D01*
X19478571Y-121805000D01*
X19621428Y-121733571D01*
X167048571Y-124153571D02*
X166334285Y-124653571D01*
X167048571Y-125010714D02*
X165548571Y-125010714D01*
X165548571Y-124439285D01*
X165620000Y-124296428D01*
X165691428Y-124225000D01*
X165834285Y-124153571D01*
X166048571Y-124153571D01*
X166191428Y-124225000D01*
X166262857Y-124296428D01*
X166334285Y-124439285D01*
X166334285Y-125010714D01*
X166977142Y-122939285D02*
X167048571Y-123082142D01*
X167048571Y-123367857D01*
X166977142Y-123510714D01*
X166834285Y-123582142D01*
X166262857Y-123582142D01*
X166120000Y-123510714D01*
X166048571Y-123367857D01*
X166048571Y-123082142D01*
X166120000Y-122939285D01*
X166262857Y-122867857D01*
X166405714Y-122867857D01*
X166548571Y-123582142D01*
X167048571Y-122010714D02*
X166977142Y-122153571D01*
X166834285Y-122225000D01*
X165548571Y-122225000D01*
X167048571Y-120796428D02*
X166262857Y-120796428D01*
X166120000Y-120867857D01*
X166048571Y-121010714D01*
X166048571Y-121296428D01*
X166120000Y-121439285D01*
X166977142Y-120796428D02*
X167048571Y-120939285D01*
X167048571Y-121296428D01*
X166977142Y-121439285D01*
X166834285Y-121510714D01*
X166691428Y-121510714D01*
X166548571Y-121439285D01*
X166477142Y-121296428D01*
X166477142Y-120939285D01*
X166405714Y-120796428D01*
X166048571Y-120225000D02*
X167048571Y-119867857D01*
X166048571Y-119510714D02*
X167048571Y-119867857D01*
X167405714Y-120010714D01*
X167477142Y-120082142D01*
X167548571Y-120225000D01*
X165548571Y-117510714D02*
X165548571Y-117225000D01*
X165620000Y-117082142D01*
X165762857Y-116939285D01*
X166048571Y-116867857D01*
X166548571Y-116867857D01*
X166834285Y-116939285D01*
X166977142Y-117082142D01*
X167048571Y-117225000D01*
X167048571Y-117510714D01*
X166977142Y-117653571D01*
X166834285Y-117796428D01*
X166548571Y-117867857D01*
X166048571Y-117867857D01*
X165762857Y-117796428D01*
X165620000Y-117653571D01*
X165548571Y-117510714D01*
X166048571Y-115582142D02*
X167048571Y-115582142D01*
X166048571Y-116225000D02*
X166834285Y-116225000D01*
X166977142Y-116153571D01*
X167048571Y-116010714D01*
X167048571Y-115796428D01*
X166977142Y-115653571D01*
X166905714Y-115582142D01*
X166048571Y-115082142D02*
X166048571Y-114510714D01*
X165548571Y-114867857D02*
X166834285Y-114867857D01*
X166977142Y-114796428D01*
X167048571Y-114653571D01*
X167048571Y-114510714D01*
X166048571Y-114010714D02*
X167548571Y-114010714D01*
X166120000Y-114010714D02*
X166048571Y-113867857D01*
X166048571Y-113582142D01*
X166120000Y-113439285D01*
X166191428Y-113367857D01*
X166334285Y-113296428D01*
X166762857Y-113296428D01*
X166905714Y-113367857D01*
X166977142Y-113439285D01*
X167048571Y-113582142D01*
X167048571Y-113867857D01*
X166977142Y-114010714D01*
X166048571Y-112010714D02*
X167048571Y-112010714D01*
X166048571Y-112653571D02*
X166834285Y-112653571D01*
X166977142Y-112582142D01*
X167048571Y-112439285D01*
X167048571Y-112225000D01*
X166977142Y-112082142D01*
X166905714Y-112010714D01*
X166048571Y-111510714D02*
X166048571Y-110939285D01*
X165548571Y-111296428D02*
X166834285Y-111296428D01*
X166977142Y-111225000D01*
X167048571Y-111082142D01*
X167048571Y-110939285D01*
X166977142Y-110510714D02*
X167048571Y-110367857D01*
X167048571Y-110082142D01*
X166977142Y-109939285D01*
X166834285Y-109867857D01*
X166762857Y-109867857D01*
X166620000Y-109939285D01*
X166548571Y-110082142D01*
X166548571Y-110296428D01*
X166477142Y-110439285D01*
X166334285Y-110510714D01*
X166262857Y-110510714D01*
X166120000Y-110439285D01*
X166048571Y-110296428D01*
X166048571Y-110082142D01*
X166120000Y-109939285D01*
X-2004285Y-122439285D02*
X-1932857Y-122510714D01*
X-1861428Y-122725000D01*
X-1861428Y-122867857D01*
X-1932857Y-123082142D01*
X-2075714Y-123225000D01*
X-2218571Y-123296428D01*
X-2504285Y-123367857D01*
X-2718571Y-123367857D01*
X-3004285Y-123296428D01*
X-3147142Y-123225000D01*
X-3290000Y-123082142D01*
X-3361428Y-122867857D01*
X-3361428Y-122725000D01*
X-3290000Y-122510714D01*
X-3218571Y-122439285D01*
X-1932857Y-121225000D02*
X-1861428Y-121367857D01*
X-1861428Y-121653571D01*
X-1932857Y-121796428D01*
X-2075714Y-121867857D01*
X-2647142Y-121867857D01*
X-2790000Y-121796428D01*
X-2861428Y-121653571D01*
X-2861428Y-121367857D01*
X-2790000Y-121225000D01*
X-2647142Y-121153571D01*
X-2504285Y-121153571D01*
X-2361428Y-121867857D01*
X-1861428Y-120296428D02*
X-1932857Y-120439285D01*
X-2075714Y-120510714D01*
X-3361428Y-120510714D01*
X-1861428Y-119510714D02*
X-1932857Y-119653571D01*
X-2075714Y-119725000D01*
X-3361428Y-119725000D01*
X-1861428Y-117796428D02*
X-3361428Y-117796428D01*
X-2861428Y-117082142D02*
X-1861428Y-117082142D01*
X-2718571Y-117082142D02*
X-2790000Y-117010714D01*
X-2861428Y-116867857D01*
X-2861428Y-116653571D01*
X-2790000Y-116510714D01*
X-2647142Y-116439285D01*
X-1861428Y-116439285D01*
X-2861428Y-115725000D02*
X-1361428Y-115725000D01*
X-2790000Y-115725000D02*
X-2861428Y-115582142D01*
X-2861428Y-115296428D01*
X-2790000Y-115153571D01*
X-2718571Y-115082142D01*
X-2575714Y-115010714D01*
X-2147142Y-115010714D01*
X-2004285Y-115082142D01*
X-1932857Y-115153571D01*
X-1861428Y-115296428D01*
X-1861428Y-115582142D01*
X-1932857Y-115725000D01*
X-2861428Y-113725000D02*
X-1861428Y-113725000D01*
X-2861428Y-114367857D02*
X-2075714Y-114367857D01*
X-1932857Y-114296428D01*
X-1861428Y-114153571D01*
X-1861428Y-113939285D01*
X-1932857Y-113796428D01*
X-2004285Y-113725000D01*
X-2861428Y-113225000D02*
X-2861428Y-112653571D01*
X-3361428Y-113010714D02*
X-2075714Y-113010714D01*
X-1932857Y-112939285D01*
X-1861428Y-112796428D01*
X-1861428Y-112653571D01*
X-1932857Y-112225000D02*
X-1861428Y-112082142D01*
X-1861428Y-111796428D01*
X-1932857Y-111653571D01*
X-2075714Y-111582142D01*
X-2147142Y-111582142D01*
X-2289999Y-111653571D01*
X-2361428Y-111796428D01*
X-2361428Y-112010714D01*
X-2432857Y-112153571D01*
X-2575714Y-112225000D01*
X-2647142Y-112225000D01*
X-2789999Y-112153571D01*
X-2861428Y-112010714D01*
X-2861428Y-111796428D01*
X-2789999Y-111653571D01*
X11779285Y-39818571D02*
X11065000Y-39818571D01*
X10993571Y-40532857D01*
X11065000Y-40461428D01*
X11207857Y-40390000D01*
X11565000Y-40390000D01*
X11707857Y-40461428D01*
X11779285Y-40532857D01*
X11850714Y-40675714D01*
X11850714Y-41032857D01*
X11779285Y-41175714D01*
X11707857Y-41247142D01*
X11565000Y-41318571D01*
X11207857Y-41318571D01*
X11065000Y-41247142D01*
X10993571Y-41175714D01*
X12279285Y-39818571D02*
X12779285Y-41318571D01*
X13279285Y-39818571D01*
X11136428Y-21633571D02*
X10279285Y-21633571D01*
X10707857Y-21633571D02*
X10707857Y-20133571D01*
X10565000Y-20347857D01*
X10422142Y-20490714D01*
X10279285Y-20562142D01*
X11707857Y-20276428D02*
X11779285Y-20205000D01*
X11922142Y-20133571D01*
X12279285Y-20133571D01*
X12422142Y-20205000D01*
X12493571Y-20276428D01*
X12565000Y-20419285D01*
X12565000Y-20562142D01*
X12493571Y-20776428D01*
X11636428Y-21633571D01*
X12565000Y-21633571D01*
X12993571Y-20133571D02*
X13493571Y-21633571D01*
X13993571Y-20133571D01*
X5207857Y-1313571D02*
X5207857Y186428D01*
X5207857Y-527857D02*
X6065000Y-527857D01*
X6065000Y-1313571D02*
X6065000Y186428D01*
X6779285Y-1313571D02*
X6779285Y-313571D01*
X6779285Y186428D02*
X6707857Y115000D01*
X6779285Y43571D01*
X6850714Y115000D01*
X6779285Y186428D01*
X6779285Y43571D01*
X8136428Y-313571D02*
X8136428Y-1527857D01*
X8065000Y-1670714D01*
X7993571Y-1742142D01*
X7850714Y-1813571D01*
X7636428Y-1813571D01*
X7493571Y-1742142D01*
X8136428Y-1242142D02*
X7993571Y-1313571D01*
X7707857Y-1313571D01*
X7565000Y-1242142D01*
X7493571Y-1170714D01*
X7422142Y-1027857D01*
X7422142Y-599285D01*
X7493571Y-456428D01*
X7565000Y-385000D01*
X7707857Y-313571D01*
X7993571Y-313571D01*
X8136428Y-385000D01*
X8850714Y-1313571D02*
X8850714Y186428D01*
X9493571Y-1313571D02*
X9493571Y-527857D01*
X9422142Y-385000D01*
X9279285Y-313571D01*
X9065000Y-313571D01*
X8922142Y-385000D01*
X8850714Y-456428D01*
X11136428Y186428D02*
X11636428Y-1313571D01*
X12136428Y186428D01*
X12850714Y-1313571D02*
X12707857Y-1242142D01*
X12636428Y-1170714D01*
X12565000Y-1027857D01*
X12565000Y-599285D01*
X12636428Y-456428D01*
X12707857Y-385000D01*
X12850714Y-313571D01*
X13065000Y-313571D01*
X13207857Y-385000D01*
X13279285Y-456428D01*
X13350714Y-599285D01*
X13350714Y-1027857D01*
X13279285Y-1170714D01*
X13207857Y-1242142D01*
X13065000Y-1313571D01*
X12850714Y-1313571D01*
X14207857Y-1313571D02*
X14065000Y-1242142D01*
X13993571Y-1099285D01*
X13993571Y186428D01*
X14565000Y-313571D02*
X15136428Y-313571D01*
X14779285Y186428D02*
X14779285Y-1099285D01*
X14850714Y-1242142D01*
X14993571Y-1313571D01*
X15136428Y-1313571D01*
X16279285Y-1313571D02*
X16279285Y-527857D01*
X16207857Y-385000D01*
X16065000Y-313571D01*
X15779285Y-313571D01*
X15636428Y-385000D01*
X16279285Y-1242142D02*
X16136428Y-1313571D01*
X15779285Y-1313571D01*
X15636428Y-1242142D01*
X15565000Y-1099285D01*
X15565000Y-956428D01*
X15636428Y-813571D01*
X15779285Y-742142D01*
X16136428Y-742142D01*
X16279285Y-670714D01*
X17636428Y-313571D02*
X17636428Y-1527857D01*
X17565000Y-1670714D01*
X17493571Y-1742142D01*
X17350714Y-1813571D01*
X17136428Y-1813571D01*
X16993571Y-1742142D01*
X17636428Y-1242142D02*
X17493571Y-1313571D01*
X17207857Y-1313571D01*
X17065000Y-1242142D01*
X16993571Y-1170714D01*
X16922142Y-1027857D01*
X16922142Y-599285D01*
X16993571Y-456428D01*
X17065000Y-385000D01*
X17207857Y-313571D01*
X17493571Y-313571D01*
X17636428Y-385000D01*
X18922142Y-1242142D02*
X18779285Y-1313571D01*
X18493571Y-1313571D01*
X18350714Y-1242142D01*
X18279285Y-1099285D01*
X18279285Y-527857D01*
X18350714Y-385000D01*
X18493571Y-313571D01*
X18779285Y-313571D01*
X18922142Y-385000D01*
X18993571Y-527857D01*
X18993571Y-670714D01*
X18279285Y-813571D01*
D10*
X115620000Y6840000D02*
X115620000Y6440000D01*
X115620000Y6440000D02*
X116020000Y6440000D01*
X116020000Y6440000D02*
X116020000Y-1260000D01*
X116020000Y-1260000D02*
X115620000Y-1260000D01*
X113920000Y-1260000D02*
X110620000Y-1260000D01*
X113920000Y6440000D02*
X110620000Y6440000D01*
X113920000Y6440000D02*
X113920000Y6840000D01*
X108920000Y6440000D02*
X107920000Y6440000D01*
X106320000Y6440000D02*
X105420000Y6440000D01*
X101220000Y6440000D02*
X100920000Y6440000D01*
X100920000Y6440000D02*
X100920000Y-1260000D01*
X100920000Y-1260000D02*
X101220000Y-1260000D01*
X105420000Y-1260000D02*
X106320000Y-1260000D01*
X107920000Y-1260000D02*
X108920000Y-1260000D01*
X103820000Y-1260000D02*
X102920000Y-1260000D01*
X102920000Y6440000D02*
X103820000Y6440000D01*
X115620000Y-5860000D02*
X115620000Y-6260000D01*
X115620000Y-6260000D02*
X116020000Y-6260000D01*
X116020000Y-6260000D02*
X116020000Y-13960000D01*
X116020000Y-13960000D02*
X115620000Y-13960000D01*
X113920000Y-13960000D02*
X110620000Y-13960000D01*
X113920000Y-6260000D02*
X110620000Y-6260000D01*
X113920000Y-6260000D02*
X113920000Y-5860000D01*
X108920000Y-6260000D02*
X107920000Y-6260000D01*
X106320000Y-6260000D02*
X105420000Y-6260000D01*
X101220000Y-6260000D02*
X100920000Y-6260000D01*
X100920000Y-6260000D02*
X100920000Y-13960000D01*
X100920000Y-13960000D02*
X101220000Y-13960000D01*
X105420000Y-13960000D02*
X106320000Y-13960000D01*
X107920000Y-13960000D02*
X108920000Y-13960000D01*
X103820000Y-13960000D02*
X102920000Y-13960000D01*
X102920000Y-6260000D02*
X103820000Y-6260000D01*
X115620000Y-18560000D02*
X115620000Y-18960000D01*
X115620000Y-18960000D02*
X116020000Y-18960000D01*
X116020000Y-18960000D02*
X116020000Y-26660000D01*
X116020000Y-26660000D02*
X115620000Y-26660000D01*
X113920000Y-26660000D02*
X110620000Y-26660000D01*
X113920000Y-18960000D02*
X110620000Y-18960000D01*
X113920000Y-18960000D02*
X113920000Y-18560000D01*
X108920000Y-18960000D02*
X107920000Y-18960000D01*
X106320000Y-18960000D02*
X105420000Y-18960000D01*
X101220000Y-18960000D02*
X100920000Y-18960000D01*
X100920000Y-18960000D02*
X100920000Y-26660000D01*
X100920000Y-26660000D02*
X101220000Y-26660000D01*
X105420000Y-26660000D02*
X106320000Y-26660000D01*
X107920000Y-26660000D02*
X108920000Y-26660000D01*
X103820000Y-26660000D02*
X102920000Y-26660000D01*
X102920000Y-18960000D02*
X103820000Y-18960000D01*
X115620000Y-31260000D02*
X115620000Y-31660000D01*
X115620000Y-31660000D02*
X116020000Y-31660000D01*
X116020000Y-31660000D02*
X116020000Y-39360000D01*
X116020000Y-39360000D02*
X115620000Y-39360000D01*
X113920000Y-39360000D02*
X110620000Y-39360000D01*
X113920000Y-31660000D02*
X110620000Y-31660000D01*
X113920000Y-31660000D02*
X113920000Y-31260000D01*
X108920000Y-31660000D02*
X107920000Y-31660000D01*
X106320000Y-31660000D02*
X105420000Y-31660000D01*
X101220000Y-31660000D02*
X100920000Y-31660000D01*
X100920000Y-31660000D02*
X100920000Y-39360000D01*
X100920000Y-39360000D02*
X101220000Y-39360000D01*
X105420000Y-39360000D02*
X106320000Y-39360000D01*
X107920000Y-39360000D02*
X108920000Y-39360000D01*
X103820000Y-39360000D02*
X102920000Y-39360000D01*
X102920000Y-31660000D02*
X103820000Y-31660000D01*
X115620000Y-43960000D02*
X115620000Y-44360000D01*
X115620000Y-44360000D02*
X116020000Y-44360000D01*
X116020000Y-44360000D02*
X116020000Y-52060000D01*
X116020000Y-52060000D02*
X115620000Y-52060000D01*
X113920000Y-52060000D02*
X110620000Y-52060000D01*
X113920000Y-44360000D02*
X110620000Y-44360000D01*
X113920000Y-44360000D02*
X113920000Y-43960000D01*
X108920000Y-44360000D02*
X107920000Y-44360000D01*
X106320000Y-44360000D02*
X105420000Y-44360000D01*
X101220000Y-44360000D02*
X100920000Y-44360000D01*
X100920000Y-44360000D02*
X100920000Y-52060000D01*
X100920000Y-52060000D02*
X101220000Y-52060000D01*
X105420000Y-52060000D02*
X106320000Y-52060000D01*
X107920000Y-52060000D02*
X108920000Y-52060000D01*
X103820000Y-52060000D02*
X102920000Y-52060000D01*
X102920000Y-44360000D02*
X103820000Y-44360000D01*
X115620000Y-56660000D02*
X115620000Y-57060000D01*
X115620000Y-57060000D02*
X116020000Y-57060000D01*
X116020000Y-57060000D02*
X116020000Y-64760000D01*
X116020000Y-64760000D02*
X115620000Y-64760000D01*
X113920000Y-64760000D02*
X110620000Y-64760000D01*
X113920000Y-57060000D02*
X110620000Y-57060000D01*
X113920000Y-57060000D02*
X113920000Y-56660000D01*
X108920000Y-57060000D02*
X107920000Y-57060000D01*
X106320000Y-57060000D02*
X105420000Y-57060000D01*
X101220000Y-57060000D02*
X100920000Y-57060000D01*
X100920000Y-57060000D02*
X100920000Y-64760000D01*
X100920000Y-64760000D02*
X101220000Y-64760000D01*
X105420000Y-64760000D02*
X106320000Y-64760000D01*
X107920000Y-64760000D02*
X108920000Y-64760000D01*
X103820000Y-64760000D02*
X102920000Y-64760000D01*
X102920000Y-57060000D02*
X103820000Y-57060000D01*
X115620000Y-69360000D02*
X115620000Y-69760000D01*
X115620000Y-69760000D02*
X116020000Y-69760000D01*
X116020000Y-69760000D02*
X116020000Y-77460000D01*
X116020000Y-77460000D02*
X115620000Y-77460000D01*
X113920000Y-77460000D02*
X110620000Y-77460000D01*
X113920000Y-69760000D02*
X110620000Y-69760000D01*
X113920000Y-69760000D02*
X113920000Y-69360000D01*
X108920000Y-69760000D02*
X107920000Y-69760000D01*
X106320000Y-69760000D02*
X105420000Y-69760000D01*
X101220000Y-69760000D02*
X100920000Y-69760000D01*
X100920000Y-69760000D02*
X100920000Y-77460000D01*
X100920000Y-77460000D02*
X101220000Y-77460000D01*
X105420000Y-77460000D02*
X106320000Y-77460000D01*
X107920000Y-77460000D02*
X108920000Y-77460000D01*
X103820000Y-77460000D02*
X102920000Y-77460000D01*
X102920000Y-69760000D02*
X103820000Y-69760000D01*
X115620000Y-82060000D02*
X115620000Y-82460000D01*
X115620000Y-82460000D02*
X116020000Y-82460000D01*
X116020000Y-82460000D02*
X116020000Y-90160000D01*
X116020000Y-90160000D02*
X115620000Y-90160000D01*
X113920000Y-90160000D02*
X110620000Y-90160000D01*
X113920000Y-82460000D02*
X110620000Y-82460000D01*
X113920000Y-82460000D02*
X113920000Y-82060000D01*
X108920000Y-82460000D02*
X107920000Y-82460000D01*
X106320000Y-82460000D02*
X105420000Y-82460000D01*
X101220000Y-82460000D02*
X100920000Y-82460000D01*
X100920000Y-82460000D02*
X100920000Y-90160000D01*
X100920000Y-90160000D02*
X101220000Y-90160000D01*
X105420000Y-90160000D02*
X106320000Y-90160000D01*
X107920000Y-90160000D02*
X108920000Y-90160000D01*
X103820000Y-90160000D02*
X102920000Y-90160000D01*
X102920000Y-82460000D02*
X103820000Y-82460000D01*
X115620000Y-94760000D02*
X115620000Y-95160000D01*
X115620000Y-95160000D02*
X116020000Y-95160000D01*
X116020000Y-95160000D02*
X116020000Y-102860000D01*
X116020000Y-102860000D02*
X115620000Y-102860000D01*
X113920000Y-102860000D02*
X110620000Y-102860000D01*
X113920000Y-95160000D02*
X110620000Y-95160000D01*
X113920000Y-95160000D02*
X113920000Y-94760000D01*
X108920000Y-95160000D02*
X107920000Y-95160000D01*
X106320000Y-95160000D02*
X105420000Y-95160000D01*
X101220000Y-95160000D02*
X100920000Y-95160000D01*
X100920000Y-95160000D02*
X100920000Y-102860000D01*
X100920000Y-102860000D02*
X101220000Y-102860000D01*
X105420000Y-102860000D02*
X106320000Y-102860000D01*
X107920000Y-102860000D02*
X108920000Y-102860000D01*
X103820000Y-102860000D02*
X102920000Y-102860000D01*
X102920000Y-95160000D02*
X103820000Y-95160000D01*
X115620000Y-107460000D02*
X115620000Y-107860000D01*
X115620000Y-107860000D02*
X116020000Y-107860000D01*
X116020000Y-107860000D02*
X116020000Y-115560000D01*
X116020000Y-115560000D02*
X115620000Y-115560000D01*
X113920000Y-115560000D02*
X110620000Y-115560000D01*
X113920000Y-107860000D02*
X110620000Y-107860000D01*
X113920000Y-107860000D02*
X113920000Y-107460000D01*
X108920000Y-107860000D02*
X107920000Y-107860000D01*
X106320000Y-107860000D02*
X105420000Y-107860000D01*
X101220000Y-107860000D02*
X100920000Y-107860000D01*
X100920000Y-107860000D02*
X100920000Y-115560000D01*
X100920000Y-115560000D02*
X101220000Y-115560000D01*
X105420000Y-115560000D02*
X106320000Y-115560000D01*
X107920000Y-115560000D02*
X108920000Y-115560000D01*
X103820000Y-115560000D02*
X102920000Y-115560000D01*
X102920000Y-107860000D02*
X103820000Y-107860000D01*
X115620000Y-120160000D02*
X115620000Y-120560000D01*
X115620000Y-120560000D02*
X116020000Y-120560000D01*
X116020000Y-120560000D02*
X116020000Y-128260000D01*
X116020000Y-128260000D02*
X115620000Y-128260000D01*
X113920000Y-128260000D02*
X110620000Y-128260000D01*
X113920000Y-120560000D02*
X110620000Y-120560000D01*
X113920000Y-120560000D02*
X113920000Y-120160000D01*
X108920000Y-120560000D02*
X107920000Y-120560000D01*
X106320000Y-120560000D02*
X105420000Y-120560000D01*
X101220000Y-120560000D02*
X100920000Y-120560000D01*
X100920000Y-120560000D02*
X100920000Y-128260000D01*
X100920000Y-128260000D02*
X101220000Y-128260000D01*
X105420000Y-128260000D02*
X106320000Y-128260000D01*
X107920000Y-128260000D02*
X108920000Y-128260000D01*
X103820000Y-128260000D02*
X102920000Y-128260000D01*
X102920000Y-120560000D02*
X103820000Y-120560000D01*
X115620000Y-132860000D02*
X115620000Y-133260000D01*
X115620000Y-133260000D02*
X116020000Y-133260000D01*
X116020000Y-133260000D02*
X116020000Y-140960000D01*
X116020000Y-140960000D02*
X115620000Y-140960000D01*
X113920000Y-140960000D02*
X110620000Y-140960000D01*
X113920000Y-133260000D02*
X110620000Y-133260000D01*
X113920000Y-133260000D02*
X113920000Y-132860000D01*
X108920000Y-133260000D02*
X107920000Y-133260000D01*
X106320000Y-133260000D02*
X105420000Y-133260000D01*
X101220000Y-133260000D02*
X100920000Y-133260000D01*
X100920000Y-133260000D02*
X100920000Y-140960000D01*
X100920000Y-140960000D02*
X101220000Y-140960000D01*
X105420000Y-140960000D02*
X106320000Y-140960000D01*
X107920000Y-140960000D02*
X108920000Y-140960000D01*
X103820000Y-140960000D02*
X102920000Y-140960000D01*
X102920000Y-133260000D02*
X103820000Y-133260000D01*
X115620000Y-145560000D02*
X115620000Y-145960000D01*
X115620000Y-145960000D02*
X116020000Y-145960000D01*
X116020000Y-145960000D02*
X116020000Y-153660000D01*
X116020000Y-153660000D02*
X115620000Y-153660000D01*
X113920000Y-153660000D02*
X110620000Y-153660000D01*
X113920000Y-145960000D02*
X110620000Y-145960000D01*
X113920000Y-145960000D02*
X113920000Y-145560000D01*
X108920000Y-145960000D02*
X107920000Y-145960000D01*
X106320000Y-145960000D02*
X105420000Y-145960000D01*
X101220000Y-145960000D02*
X100920000Y-145960000D01*
X100920000Y-145960000D02*
X100920000Y-153660000D01*
X100920000Y-153660000D02*
X101220000Y-153660000D01*
X105420000Y-153660000D02*
X106320000Y-153660000D01*
X107920000Y-153660000D02*
X108920000Y-153660000D01*
X103820000Y-153660000D02*
X102920000Y-153660000D01*
X102920000Y-145960000D02*
X103820000Y-145960000D01*
X115620000Y-158260000D02*
X115620000Y-158660000D01*
X115620000Y-158660000D02*
X116020000Y-158660000D01*
X116020000Y-158660000D02*
X116020000Y-166360000D01*
X116020000Y-166360000D02*
X115620000Y-166360000D01*
X113920000Y-166360000D02*
X110620000Y-166360000D01*
X113920000Y-158660000D02*
X110620000Y-158660000D01*
X113920000Y-158660000D02*
X113920000Y-158260000D01*
X108920000Y-158660000D02*
X107920000Y-158660000D01*
X106320000Y-158660000D02*
X105420000Y-158660000D01*
X101220000Y-158660000D02*
X100920000Y-158660000D01*
X100920000Y-158660000D02*
X100920000Y-166360000D01*
X100920000Y-166360000D02*
X101220000Y-166360000D01*
X105420000Y-166360000D02*
X106320000Y-166360000D01*
X107920000Y-166360000D02*
X108920000Y-166360000D01*
X103820000Y-166360000D02*
X102920000Y-166360000D01*
X102920000Y-158660000D02*
X103820000Y-158660000D01*
X115620000Y-170960000D02*
X115620000Y-171360000D01*
X115620000Y-171360000D02*
X116020000Y-171360000D01*
X116020000Y-171360000D02*
X116020000Y-179060000D01*
X116020000Y-179060000D02*
X115620000Y-179060000D01*
X113920000Y-179060000D02*
X110620000Y-179060000D01*
X113920000Y-171360000D02*
X110620000Y-171360000D01*
X113920000Y-171360000D02*
X113920000Y-170960000D01*
X108920000Y-171360000D02*
X107920000Y-171360000D01*
X106320000Y-171360000D02*
X105420000Y-171360000D01*
X101220000Y-171360000D02*
X100920000Y-171360000D01*
X100920000Y-171360000D02*
X100920000Y-179060000D01*
X100920000Y-179060000D02*
X101220000Y-179060000D01*
X105420000Y-179060000D02*
X106320000Y-179060000D01*
X107920000Y-179060000D02*
X108920000Y-179060000D01*
X103820000Y-179060000D02*
X102920000Y-179060000D01*
X102920000Y-171360000D02*
X103820000Y-171360000D01*
X115620000Y-183660000D02*
X115620000Y-184060000D01*
X115620000Y-184060000D02*
X116020000Y-184060000D01*
X116020000Y-184060000D02*
X116020000Y-191760000D01*
X116020000Y-191760000D02*
X115620000Y-191760000D01*
X113920000Y-191760000D02*
X110620000Y-191760000D01*
X113920000Y-184060000D02*
X110620000Y-184060000D01*
X113920000Y-184060000D02*
X113920000Y-183660000D01*
X108920000Y-184060000D02*
X107920000Y-184060000D01*
X106320000Y-184060000D02*
X105420000Y-184060000D01*
X101220000Y-184060000D02*
X100920000Y-184060000D01*
X100920000Y-184060000D02*
X100920000Y-191760000D01*
X100920000Y-191760000D02*
X101220000Y-191760000D01*
X105420000Y-191760000D02*
X106320000Y-191760000D01*
X107920000Y-191760000D02*
X108920000Y-191760000D01*
X103820000Y-191760000D02*
X102920000Y-191760000D01*
X102920000Y-184060000D02*
X103820000Y-184060000D01*
X115620000Y-196360000D02*
X115620000Y-196760000D01*
X115620000Y-196760000D02*
X116020000Y-196760000D01*
X116020000Y-196760000D02*
X116020000Y-204460000D01*
X116020000Y-204460000D02*
X115620000Y-204460000D01*
X113920000Y-204460000D02*
X110620000Y-204460000D01*
X113920000Y-196760000D02*
X110620000Y-196760000D01*
X113920000Y-196760000D02*
X113920000Y-196360000D01*
X108920000Y-196760000D02*
X107920000Y-196760000D01*
X106320000Y-196760000D02*
X105420000Y-196760000D01*
X101220000Y-196760000D02*
X100920000Y-196760000D01*
X100920000Y-196760000D02*
X100920000Y-204460000D01*
X100920000Y-204460000D02*
X101220000Y-204460000D01*
X105420000Y-204460000D02*
X106320000Y-204460000D01*
X107920000Y-204460000D02*
X108920000Y-204460000D01*
X103820000Y-204460000D02*
X102920000Y-204460000D01*
X102920000Y-196760000D02*
X103820000Y-196760000D01*
X115620000Y-209060000D02*
X115620000Y-209460000D01*
X115620000Y-209460000D02*
X116020000Y-209460000D01*
X116020000Y-209460000D02*
X116020000Y-217160000D01*
X116020000Y-217160000D02*
X115620000Y-217160000D01*
X113920000Y-217160000D02*
X110620000Y-217160000D01*
X113920000Y-209460000D02*
X110620000Y-209460000D01*
X113920000Y-209460000D02*
X113920000Y-209060000D01*
X108920000Y-209460000D02*
X107920000Y-209460000D01*
X106320000Y-209460000D02*
X105420000Y-209460000D01*
X101220000Y-209460000D02*
X100920000Y-209460000D01*
X100920000Y-209460000D02*
X100920000Y-217160000D01*
X100920000Y-217160000D02*
X101220000Y-217160000D01*
X105420000Y-217160000D02*
X106320000Y-217160000D01*
X107920000Y-217160000D02*
X108920000Y-217160000D01*
X103820000Y-217160000D02*
X102920000Y-217160000D01*
X102920000Y-209460000D02*
X103820000Y-209460000D01*
X115620000Y-221760000D02*
X115620000Y-222160000D01*
X115620000Y-222160000D02*
X116020000Y-222160000D01*
X116020000Y-222160000D02*
X116020000Y-229860000D01*
X116020000Y-229860000D02*
X115620000Y-229860000D01*
X113920000Y-229860000D02*
X110620000Y-229860000D01*
X113920000Y-222160000D02*
X110620000Y-222160000D01*
X113920000Y-222160000D02*
X113920000Y-221760000D01*
X108920000Y-222160000D02*
X107920000Y-222160000D01*
X106320000Y-222160000D02*
X105420000Y-222160000D01*
X101220000Y-222160000D02*
X100920000Y-222160000D01*
X100920000Y-222160000D02*
X100920000Y-229860000D01*
X100920000Y-229860000D02*
X101220000Y-229860000D01*
X105420000Y-229860000D02*
X106320000Y-229860000D01*
X107920000Y-229860000D02*
X108920000Y-229860000D01*
X103820000Y-229860000D02*
X102920000Y-229860000D01*
X102920000Y-222160000D02*
X103820000Y-222160000D01*
X115620000Y-234460000D02*
X115620000Y-234860000D01*
X115620000Y-234860000D02*
X116020000Y-234860000D01*
X116020000Y-234860000D02*
X116020000Y-242560000D01*
X116020000Y-242560000D02*
X115620000Y-242560000D01*
X113920000Y-242560000D02*
X110620000Y-242560000D01*
X113920000Y-234860000D02*
X110620000Y-234860000D01*
X113920000Y-234860000D02*
X113920000Y-234460000D01*
X108920000Y-234860000D02*
X107920000Y-234860000D01*
X106320000Y-234860000D02*
X105420000Y-234860000D01*
X101220000Y-234860000D02*
X100920000Y-234860000D01*
X100920000Y-234860000D02*
X100920000Y-242560000D01*
X100920000Y-242560000D02*
X101220000Y-242560000D01*
X105420000Y-242560000D02*
X106320000Y-242560000D01*
X107920000Y-242560000D02*
X108920000Y-242560000D01*
X103820000Y-242560000D02*
X102920000Y-242560000D01*
X102920000Y-234860000D02*
X103820000Y-234860000D01*
X65620000Y6840000D02*
X65620000Y6440000D01*
X65620000Y6440000D02*
X66020000Y6440000D01*
X66020000Y6440000D02*
X66020000Y-1260000D01*
X66020000Y-1260000D02*
X65620000Y-1260000D01*
X63920000Y-1260000D02*
X60620000Y-1260000D01*
X63920000Y6440000D02*
X60620000Y6440000D01*
X63920000Y6440000D02*
X63920000Y6840000D01*
X58920000Y6440000D02*
X57920000Y6440000D01*
X56320000Y6440000D02*
X55420000Y6440000D01*
X51220000Y6440000D02*
X50920000Y6440000D01*
X50920000Y6440000D02*
X50920000Y-1260000D01*
X50920000Y-1260000D02*
X51220000Y-1260000D01*
X55420000Y-1260000D02*
X56320000Y-1260000D01*
X57920000Y-1260000D02*
X58920000Y-1260000D01*
X53820000Y-1260000D02*
X52920000Y-1260000D01*
X52920000Y6440000D02*
X53820000Y6440000D01*
X65620000Y-5860000D02*
X65620000Y-6260000D01*
X65620000Y-6260000D02*
X66020000Y-6260000D01*
X66020000Y-6260000D02*
X66020000Y-13960000D01*
X66020000Y-13960000D02*
X65620000Y-13960000D01*
X63920000Y-13960000D02*
X60620000Y-13960000D01*
X63920000Y-6260000D02*
X60620000Y-6260000D01*
X63920000Y-6260000D02*
X63920000Y-5860000D01*
X58920000Y-6260000D02*
X57920000Y-6260000D01*
X56320000Y-6260000D02*
X55420000Y-6260000D01*
X51220000Y-6260000D02*
X50920000Y-6260000D01*
X50920000Y-6260000D02*
X50920000Y-13960000D01*
X50920000Y-13960000D02*
X51220000Y-13960000D01*
X55420000Y-13960000D02*
X56320000Y-13960000D01*
X57920000Y-13960000D02*
X58920000Y-13960000D01*
X53820000Y-13960000D02*
X52920000Y-13960000D01*
X52920000Y-6260000D02*
X53820000Y-6260000D01*
X65620000Y-18560000D02*
X65620000Y-18960000D01*
X65620000Y-18960000D02*
X66020000Y-18960000D01*
X66020000Y-18960000D02*
X66020000Y-26660000D01*
X66020000Y-26660000D02*
X65620000Y-26660000D01*
X63920000Y-26660000D02*
X60620000Y-26660000D01*
X63920000Y-18960000D02*
X60620000Y-18960000D01*
X63920000Y-18960000D02*
X63920000Y-18560000D01*
X58920000Y-18960000D02*
X57920000Y-18960000D01*
X56320000Y-18960000D02*
X55420000Y-18960000D01*
X51220000Y-18960000D02*
X50920000Y-18960000D01*
X50920000Y-18960000D02*
X50920000Y-26660000D01*
X50920000Y-26660000D02*
X51220000Y-26660000D01*
X55420000Y-26660000D02*
X56320000Y-26660000D01*
X57920000Y-26660000D02*
X58920000Y-26660000D01*
X53820000Y-26660000D02*
X52920000Y-26660000D01*
X52920000Y-18960000D02*
X53820000Y-18960000D01*
X65620000Y-31260000D02*
X65620000Y-31660000D01*
X65620000Y-31660000D02*
X66020000Y-31660000D01*
X66020000Y-31660000D02*
X66020000Y-39360000D01*
X66020000Y-39360000D02*
X65620000Y-39360000D01*
X63920000Y-39360000D02*
X60620000Y-39360000D01*
X63920000Y-31660000D02*
X60620000Y-31660000D01*
X63920000Y-31660000D02*
X63920000Y-31260000D01*
X58920000Y-31660000D02*
X57920000Y-31660000D01*
X56320000Y-31660000D02*
X55420000Y-31660000D01*
X51220000Y-31660000D02*
X50920000Y-31660000D01*
X50920000Y-31660000D02*
X50920000Y-39360000D01*
X50920000Y-39360000D02*
X51220000Y-39360000D01*
X55420000Y-39360000D02*
X56320000Y-39360000D01*
X57920000Y-39360000D02*
X58920000Y-39360000D01*
X53820000Y-39360000D02*
X52920000Y-39360000D01*
X52920000Y-31660000D02*
X53820000Y-31660000D01*
X65620000Y-43960000D02*
X65620000Y-44360000D01*
X65620000Y-44360000D02*
X66020000Y-44360000D01*
X66020000Y-44360000D02*
X66020000Y-52060000D01*
X66020000Y-52060000D02*
X65620000Y-52060000D01*
X63920000Y-52060000D02*
X60620000Y-52060000D01*
X63920000Y-44360000D02*
X60620000Y-44360000D01*
X63920000Y-44360000D02*
X63920000Y-43960000D01*
X58920000Y-44360000D02*
X57920000Y-44360000D01*
X56320000Y-44360000D02*
X55420000Y-44360000D01*
X51220000Y-44360000D02*
X50920000Y-44360000D01*
X50920000Y-44360000D02*
X50920000Y-52060000D01*
X50920000Y-52060000D02*
X51220000Y-52060000D01*
X55420000Y-52060000D02*
X56320000Y-52060000D01*
X57920000Y-52060000D02*
X58920000Y-52060000D01*
X53820000Y-52060000D02*
X52920000Y-52060000D01*
X52920000Y-44360000D02*
X53820000Y-44360000D01*
X65620000Y-56660000D02*
X65620000Y-57060000D01*
X65620000Y-57060000D02*
X66020000Y-57060000D01*
X66020000Y-57060000D02*
X66020000Y-64760000D01*
X66020000Y-64760000D02*
X65620000Y-64760000D01*
X63920000Y-64760000D02*
X60620000Y-64760000D01*
X63920000Y-57060000D02*
X60620000Y-57060000D01*
X63920000Y-57060000D02*
X63920000Y-56660000D01*
X58920000Y-57060000D02*
X57920000Y-57060000D01*
X56320000Y-57060000D02*
X55420000Y-57060000D01*
X51220000Y-57060000D02*
X50920000Y-57060000D01*
X50920000Y-57060000D02*
X50920000Y-64760000D01*
X50920000Y-64760000D02*
X51220000Y-64760000D01*
X55420000Y-64760000D02*
X56320000Y-64760000D01*
X57920000Y-64760000D02*
X58920000Y-64760000D01*
X53820000Y-64760000D02*
X52920000Y-64760000D01*
X52920000Y-57060000D02*
X53820000Y-57060000D01*
X65620000Y-69360000D02*
X65620000Y-69760000D01*
X65620000Y-69760000D02*
X66020000Y-69760000D01*
X66020000Y-69760000D02*
X66020000Y-77460000D01*
X66020000Y-77460000D02*
X65620000Y-77460000D01*
X63920000Y-77460000D02*
X60620000Y-77460000D01*
X63920000Y-69760000D02*
X60620000Y-69760000D01*
X63920000Y-69760000D02*
X63920000Y-69360000D01*
X58920000Y-69760000D02*
X57920000Y-69760000D01*
X56320000Y-69760000D02*
X55420000Y-69760000D01*
X51220000Y-69760000D02*
X50920000Y-69760000D01*
X50920000Y-69760000D02*
X50920000Y-77460000D01*
X50920000Y-77460000D02*
X51220000Y-77460000D01*
X55420000Y-77460000D02*
X56320000Y-77460000D01*
X57920000Y-77460000D02*
X58920000Y-77460000D01*
X53820000Y-77460000D02*
X52920000Y-77460000D01*
X52920000Y-69760000D02*
X53820000Y-69760000D01*
X65620000Y-82060000D02*
X65620000Y-82460000D01*
X65620000Y-82460000D02*
X66020000Y-82460000D01*
X66020000Y-82460000D02*
X66020000Y-90160000D01*
X66020000Y-90160000D02*
X65620000Y-90160000D01*
X63920000Y-90160000D02*
X60620000Y-90160000D01*
X63920000Y-82460000D02*
X60620000Y-82460000D01*
X63920000Y-82460000D02*
X63920000Y-82060000D01*
X58920000Y-82460000D02*
X57920000Y-82460000D01*
X56320000Y-82460000D02*
X55420000Y-82460000D01*
X51220000Y-82460000D02*
X50920000Y-82460000D01*
X50920000Y-82460000D02*
X50920000Y-90160000D01*
X50920000Y-90160000D02*
X51220000Y-90160000D01*
X55420000Y-90160000D02*
X56320000Y-90160000D01*
X57920000Y-90160000D02*
X58920000Y-90160000D01*
X53820000Y-90160000D02*
X52920000Y-90160000D01*
X52920000Y-82460000D02*
X53820000Y-82460000D01*
X65620000Y-94760000D02*
X65620000Y-95160000D01*
X65620000Y-95160000D02*
X66020000Y-95160000D01*
X66020000Y-95160000D02*
X66020000Y-102860000D01*
X66020000Y-102860000D02*
X65620000Y-102860000D01*
X63920000Y-102860000D02*
X60620000Y-102860000D01*
X63920000Y-95160000D02*
X60620000Y-95160000D01*
X63920000Y-95160000D02*
X63920000Y-94760000D01*
X58920000Y-95160000D02*
X57920000Y-95160000D01*
X56320000Y-95160000D02*
X55420000Y-95160000D01*
X51220000Y-95160000D02*
X50920000Y-95160000D01*
X50920000Y-95160000D02*
X50920000Y-102860000D01*
X50920000Y-102860000D02*
X51220000Y-102860000D01*
X55420000Y-102860000D02*
X56320000Y-102860000D01*
X57920000Y-102860000D02*
X58920000Y-102860000D01*
X53820000Y-102860000D02*
X52920000Y-102860000D01*
X52920000Y-95160000D02*
X53820000Y-95160000D01*
X65620000Y-107460000D02*
X65620000Y-107860000D01*
X65620000Y-107860000D02*
X66020000Y-107860000D01*
X66020000Y-107860000D02*
X66020000Y-115560000D01*
X66020000Y-115560000D02*
X65620000Y-115560000D01*
X63920000Y-115560000D02*
X60620000Y-115560000D01*
X63920000Y-107860000D02*
X60620000Y-107860000D01*
X63920000Y-107860000D02*
X63920000Y-107460000D01*
X58920000Y-107860000D02*
X57920000Y-107860000D01*
X56320000Y-107860000D02*
X55420000Y-107860000D01*
X51220000Y-107860000D02*
X50920000Y-107860000D01*
X50920000Y-107860000D02*
X50920000Y-115560000D01*
X50920000Y-115560000D02*
X51220000Y-115560000D01*
X55420000Y-115560000D02*
X56320000Y-115560000D01*
X57920000Y-115560000D02*
X58920000Y-115560000D01*
X53820000Y-115560000D02*
X52920000Y-115560000D01*
X52920000Y-107860000D02*
X53820000Y-107860000D01*
X65620000Y-120160000D02*
X65620000Y-120560000D01*
X65620000Y-120560000D02*
X66020000Y-120560000D01*
X66020000Y-120560000D02*
X66020000Y-128260000D01*
X66020000Y-128260000D02*
X65620000Y-128260000D01*
X63920000Y-128260000D02*
X60620000Y-128260000D01*
X63920000Y-120560000D02*
X60620000Y-120560000D01*
X63920000Y-120560000D02*
X63920000Y-120160000D01*
X58920000Y-120560000D02*
X57920000Y-120560000D01*
X56320000Y-120560000D02*
X55420000Y-120560000D01*
X51220000Y-120560000D02*
X50920000Y-120560000D01*
X50920000Y-120560000D02*
X50920000Y-128260000D01*
X50920000Y-128260000D02*
X51220000Y-128260000D01*
X55420000Y-128260000D02*
X56320000Y-128260000D01*
X57920000Y-128260000D02*
X58920000Y-128260000D01*
X53820000Y-128260000D02*
X52920000Y-128260000D01*
X52920000Y-120560000D02*
X53820000Y-120560000D01*
X65620000Y-132860000D02*
X65620000Y-133260000D01*
X65620000Y-133260000D02*
X66020000Y-133260000D01*
X66020000Y-133260000D02*
X66020000Y-140960000D01*
X66020000Y-140960000D02*
X65620000Y-140960000D01*
X63920000Y-140960000D02*
X60620000Y-140960000D01*
X63920000Y-133260000D02*
X60620000Y-133260000D01*
X63920000Y-133260000D02*
X63920000Y-132860000D01*
X58920000Y-133260000D02*
X57920000Y-133260000D01*
X56320000Y-133260000D02*
X55420000Y-133260000D01*
X51220000Y-133260000D02*
X50920000Y-133260000D01*
X50920000Y-133260000D02*
X50920000Y-140960000D01*
X50920000Y-140960000D02*
X51220000Y-140960000D01*
X55420000Y-140960000D02*
X56320000Y-140960000D01*
X57920000Y-140960000D02*
X58920000Y-140960000D01*
X53820000Y-140960000D02*
X52920000Y-140960000D01*
X52920000Y-133260000D02*
X53820000Y-133260000D01*
X65620000Y-145560000D02*
X65620000Y-145960000D01*
X65620000Y-145960000D02*
X66020000Y-145960000D01*
X66020000Y-145960000D02*
X66020000Y-153660000D01*
X66020000Y-153660000D02*
X65620000Y-153660000D01*
X63920000Y-153660000D02*
X60620000Y-153660000D01*
X63920000Y-145960000D02*
X60620000Y-145960000D01*
X63920000Y-145960000D02*
X63920000Y-145560000D01*
X58920000Y-145960000D02*
X57920000Y-145960000D01*
X56320000Y-145960000D02*
X55420000Y-145960000D01*
X51220000Y-145960000D02*
X50920000Y-145960000D01*
X50920000Y-145960000D02*
X50920000Y-153660000D01*
X50920000Y-153660000D02*
X51220000Y-153660000D01*
X55420000Y-153660000D02*
X56320000Y-153660000D01*
X57920000Y-153660000D02*
X58920000Y-153660000D01*
X53820000Y-153660000D02*
X52920000Y-153660000D01*
X52920000Y-145960000D02*
X53820000Y-145960000D01*
X65620000Y-158260000D02*
X65620000Y-158660000D01*
X65620000Y-158660000D02*
X66020000Y-158660000D01*
X66020000Y-158660000D02*
X66020000Y-166360000D01*
X66020000Y-166360000D02*
X65620000Y-166360000D01*
X63920000Y-166360000D02*
X60620000Y-166360000D01*
X63920000Y-158660000D02*
X60620000Y-158660000D01*
X63920000Y-158660000D02*
X63920000Y-158260000D01*
X58920000Y-158660000D02*
X57920000Y-158660000D01*
X56320000Y-158660000D02*
X55420000Y-158660000D01*
X51220000Y-158660000D02*
X50920000Y-158660000D01*
X50920000Y-158660000D02*
X50920000Y-166360000D01*
X50920000Y-166360000D02*
X51220000Y-166360000D01*
X55420000Y-166360000D02*
X56320000Y-166360000D01*
X57920000Y-166360000D02*
X58920000Y-166360000D01*
X53820000Y-166360000D02*
X52920000Y-166360000D01*
X52920000Y-158660000D02*
X53820000Y-158660000D01*
X65620000Y-170960000D02*
X65620000Y-171360000D01*
X65620000Y-171360000D02*
X66020000Y-171360000D01*
X66020000Y-171360000D02*
X66020000Y-179060000D01*
X66020000Y-179060000D02*
X65620000Y-179060000D01*
X63920000Y-179060000D02*
X60620000Y-179060000D01*
X63920000Y-171360000D02*
X60620000Y-171360000D01*
X63920000Y-171360000D02*
X63920000Y-170960000D01*
X58920000Y-171360000D02*
X57920000Y-171360000D01*
X56320000Y-171360000D02*
X55420000Y-171360000D01*
X51220000Y-171360000D02*
X50920000Y-171360000D01*
X50920000Y-171360000D02*
X50920000Y-179060000D01*
X50920000Y-179060000D02*
X51220000Y-179060000D01*
X55420000Y-179060000D02*
X56320000Y-179060000D01*
X57920000Y-179060000D02*
X58920000Y-179060000D01*
X53820000Y-179060000D02*
X52920000Y-179060000D01*
X52920000Y-171360000D02*
X53820000Y-171360000D01*
X65620000Y-183660000D02*
X65620000Y-184060000D01*
X65620000Y-184060000D02*
X66020000Y-184060000D01*
X66020000Y-184060000D02*
X66020000Y-191760000D01*
X66020000Y-191760000D02*
X65620000Y-191760000D01*
X63920000Y-191760000D02*
X60620000Y-191760000D01*
X63920000Y-184060000D02*
X60620000Y-184060000D01*
X63920000Y-184060000D02*
X63920000Y-183660000D01*
X58920000Y-184060000D02*
X57920000Y-184060000D01*
X56320000Y-184060000D02*
X55420000Y-184060000D01*
X51220000Y-184060000D02*
X50920000Y-184060000D01*
X50920000Y-184060000D02*
X50920000Y-191760000D01*
X50920000Y-191760000D02*
X51220000Y-191760000D01*
X55420000Y-191760000D02*
X56320000Y-191760000D01*
X57920000Y-191760000D02*
X58920000Y-191760000D01*
X53820000Y-191760000D02*
X52920000Y-191760000D01*
X52920000Y-184060000D02*
X53820000Y-184060000D01*
X65620000Y-196360000D02*
X65620000Y-196760000D01*
X65620000Y-196760000D02*
X66020000Y-196760000D01*
X66020000Y-196760000D02*
X66020000Y-204460000D01*
X66020000Y-204460000D02*
X65620000Y-204460000D01*
X63920000Y-204460000D02*
X60620000Y-204460000D01*
X63920000Y-196760000D02*
X60620000Y-196760000D01*
X63920000Y-196760000D02*
X63920000Y-196360000D01*
X58920000Y-196760000D02*
X57920000Y-196760000D01*
X56320000Y-196760000D02*
X55420000Y-196760000D01*
X51220000Y-196760000D02*
X50920000Y-196760000D01*
X50920000Y-196760000D02*
X50920000Y-204460000D01*
X50920000Y-204460000D02*
X51220000Y-204460000D01*
X55420000Y-204460000D02*
X56320000Y-204460000D01*
X57920000Y-204460000D02*
X58920000Y-204460000D01*
X53820000Y-204460000D02*
X52920000Y-204460000D01*
X52920000Y-196760000D02*
X53820000Y-196760000D01*
X65620000Y-209060000D02*
X65620000Y-209460000D01*
X65620000Y-209460000D02*
X66020000Y-209460000D01*
X66020000Y-209460000D02*
X66020000Y-217160000D01*
X66020000Y-217160000D02*
X65620000Y-217160000D01*
X63920000Y-217160000D02*
X60620000Y-217160000D01*
X63920000Y-209460000D02*
X60620000Y-209460000D01*
X63920000Y-209460000D02*
X63920000Y-209060000D01*
X58920000Y-209460000D02*
X57920000Y-209460000D01*
X56320000Y-209460000D02*
X55420000Y-209460000D01*
X51220000Y-209460000D02*
X50920000Y-209460000D01*
X50920000Y-209460000D02*
X50920000Y-217160000D01*
X50920000Y-217160000D02*
X51220000Y-217160000D01*
X55420000Y-217160000D02*
X56320000Y-217160000D01*
X57920000Y-217160000D02*
X58920000Y-217160000D01*
X53820000Y-217160000D02*
X52920000Y-217160000D01*
X52920000Y-209460000D02*
X53820000Y-209460000D01*
X65620000Y-221760000D02*
X65620000Y-222160000D01*
X65620000Y-222160000D02*
X66020000Y-222160000D01*
X66020000Y-222160000D02*
X66020000Y-229860000D01*
X66020000Y-229860000D02*
X65620000Y-229860000D01*
X63920000Y-229860000D02*
X60620000Y-229860000D01*
X63920000Y-222160000D02*
X60620000Y-222160000D01*
X63920000Y-222160000D02*
X63920000Y-221760000D01*
X58920000Y-222160000D02*
X57920000Y-222160000D01*
X56320000Y-222160000D02*
X55420000Y-222160000D01*
X51220000Y-222160000D02*
X50920000Y-222160000D01*
X50920000Y-222160000D02*
X50920000Y-229860000D01*
X50920000Y-229860000D02*
X51220000Y-229860000D01*
X55420000Y-229860000D02*
X56320000Y-229860000D01*
X57920000Y-229860000D02*
X58920000Y-229860000D01*
X53820000Y-229860000D02*
X52920000Y-229860000D01*
X52920000Y-222160000D02*
X53820000Y-222160000D01*
X65620000Y-234460000D02*
X65620000Y-234860000D01*
X65620000Y-234860000D02*
X66020000Y-234860000D01*
X66020000Y-234860000D02*
X66020000Y-242560000D01*
X66020000Y-242560000D02*
X65620000Y-242560000D01*
X63920000Y-242560000D02*
X60620000Y-242560000D01*
X63920000Y-234860000D02*
X60620000Y-234860000D01*
X63920000Y-234860000D02*
X63920000Y-234460000D01*
X58920000Y-234860000D02*
X57920000Y-234860000D01*
X56320000Y-234860000D02*
X55420000Y-234860000D01*
X51220000Y-234860000D02*
X50920000Y-234860000D01*
X50920000Y-234860000D02*
X50920000Y-242560000D01*
X50920000Y-242560000D02*
X51220000Y-242560000D01*
X55420000Y-242560000D02*
X56320000Y-242560000D01*
X57920000Y-242560000D02*
X58920000Y-242560000D01*
X53820000Y-242560000D02*
X52920000Y-242560000D01*
X52920000Y-234860000D02*
X53820000Y-234860000D01*
X17205000Y-191830000D02*
X15875000Y-191830000D01*
X17205000Y-190500000D02*
X17205000Y-191830000D01*
X17205000Y-189230000D02*
X14545000Y-189230000D01*
X14545000Y-189230000D02*
X14545000Y-186630000D01*
X17205000Y-189230000D02*
X17205000Y-186630000D01*
X17205000Y-186630000D02*
X14545000Y-186630000D01*
X27090000Y-45720000D02*
G75*
G03X27090000Y-45720000I-5500000J0D01*
G01*
X5290000Y-213570000D02*
X6350000Y-213570000D01*
X5290000Y-214630000D02*
X5290000Y-213570000D01*
X7350000Y-213570000D02*
X9410000Y-213570000D01*
X7350000Y-215630000D02*
X7350000Y-213570000D01*
X5290000Y-215630000D02*
X7350000Y-215630000D01*
X9410000Y-213570000D02*
X9410000Y-227690000D01*
X5290000Y-215630000D02*
X5290000Y-227690000D01*
X5290000Y-227690000D02*
X9410000Y-227690000D01*
X27090000Y-26670000D02*
G75*
G03X27090000Y-26670000I-5500000J0D01*
G01*
X11601267Y-35050000D02*
X11258733Y-35050000D01*
X11601267Y-36070000D02*
X11258733Y-36070000D01*
X154110000Y-189530000D02*
X154710000Y-189230000D01*
X154110000Y-188930000D02*
X154110000Y-189530000D01*
X154710000Y-189230000D02*
X154110000Y-188930000D01*
X157800000Y-212050000D02*
X157800000Y-211730000D01*
X161220000Y-212050000D02*
X157800000Y-212050000D01*
X161300000Y-211730000D02*
X161220000Y-212050000D01*
X161220000Y-211410000D02*
X161300000Y-211730000D01*
X157800000Y-211410000D02*
X161220000Y-211410000D01*
X157800000Y-211730000D02*
X157800000Y-211410000D01*
X156800000Y-210400000D02*
X156800000Y-210560000D01*
X157800000Y-209550000D02*
X157800000Y-209230000D01*
X161220000Y-209550000D02*
X157800000Y-209550000D01*
X161300000Y-209230000D02*
X161220000Y-209550000D01*
X161220000Y-208910000D02*
X161300000Y-209230000D01*
X157800000Y-208910000D02*
X161220000Y-208910000D01*
X157800000Y-209230000D02*
X157800000Y-208910000D01*
X156800000Y-207900000D02*
X156800000Y-208060000D01*
X157800000Y-207050000D02*
X157800000Y-206730000D01*
X161220000Y-207050000D02*
X157800000Y-207050000D01*
X161300000Y-206730000D02*
X161220000Y-207050000D01*
X161220000Y-206410000D02*
X161300000Y-206730000D01*
X157800000Y-206410000D02*
X161220000Y-206410000D01*
X157800000Y-206730000D02*
X157800000Y-206410000D01*
X156800000Y-205400000D02*
X156800000Y-205560000D01*
X157800000Y-204550000D02*
X157800000Y-204230000D01*
X161220000Y-204550000D02*
X157800000Y-204550000D01*
X161300000Y-204230000D02*
X161220000Y-204550000D01*
X161220000Y-203910000D02*
X161300000Y-204230000D01*
X157800000Y-203910000D02*
X161220000Y-203910000D01*
X157800000Y-204230000D02*
X157800000Y-203910000D01*
X156800000Y-202900000D02*
X156800000Y-203060000D01*
X157800000Y-202050000D02*
X157800000Y-201730000D01*
X161220000Y-202050000D02*
X157800000Y-202050000D01*
X161300000Y-201730000D02*
X161220000Y-202050000D01*
X161220000Y-201410000D02*
X161300000Y-201730000D01*
X157800000Y-201410000D02*
X161220000Y-201410000D01*
X157800000Y-201730000D02*
X157800000Y-201410000D01*
X156800000Y-200400000D02*
X156800000Y-200560000D01*
X157800000Y-199550000D02*
X157800000Y-199230000D01*
X161220000Y-199550000D02*
X157800000Y-199550000D01*
X161300000Y-199230000D02*
X161220000Y-199550000D01*
X161220000Y-198910000D02*
X161300000Y-199230000D01*
X157800000Y-198910000D02*
X161220000Y-198910000D01*
X157800000Y-199230000D02*
X157800000Y-198910000D01*
X156800000Y-197900000D02*
X156800000Y-198060000D01*
X157800000Y-197050000D02*
X157800000Y-196730000D01*
X161220000Y-197050000D02*
X157800000Y-197050000D01*
X161300000Y-196730000D02*
X161220000Y-197050000D01*
X161220000Y-196410000D02*
X161300000Y-196730000D01*
X157800000Y-196410000D02*
X161220000Y-196410000D01*
X157800000Y-196730000D02*
X157800000Y-196410000D01*
X156800000Y-195400000D02*
X156800000Y-195560000D01*
X157800000Y-194550000D02*
X157800000Y-194230000D01*
X161220000Y-194550000D02*
X157800000Y-194550000D01*
X161300000Y-194230000D02*
X161220000Y-194550000D01*
X161220000Y-193910000D02*
X161300000Y-194230000D01*
X157800000Y-193910000D02*
X161220000Y-193910000D01*
X157800000Y-194230000D02*
X157800000Y-193910000D01*
X156800000Y-192900000D02*
X156800000Y-193060000D01*
X157800000Y-192050000D02*
X157800000Y-191730000D01*
X161220000Y-192050000D02*
X157800000Y-192050000D01*
X161300000Y-191730000D02*
X161220000Y-192050000D01*
X161220000Y-191410000D02*
X161300000Y-191730000D01*
X157800000Y-191410000D02*
X161220000Y-191410000D01*
X157800000Y-191730000D02*
X157800000Y-191410000D01*
X156800000Y-190400000D02*
X156800000Y-190560000D01*
X157800000Y-189550000D02*
X157800000Y-189230000D01*
X161220000Y-189550000D02*
X157800000Y-189550000D01*
X161300000Y-189230000D02*
X161220000Y-189550000D01*
X161220000Y-188910000D02*
X161300000Y-189230000D01*
X157800000Y-188910000D02*
X161220000Y-188910000D01*
X157800000Y-189230000D02*
X157800000Y-188910000D01*
X157800000Y-187840000D02*
X157800000Y-213120000D01*
X156800000Y-213120000D02*
X156800000Y-214340000D01*
X161800000Y-213120000D02*
X156800000Y-213120000D01*
X161800000Y-214340000D02*
X161800000Y-213120000D01*
X156800000Y-187840000D02*
X156800000Y-186620000D01*
X161800000Y-187840000D02*
X156800000Y-187840000D01*
X161800000Y-186620000D02*
X161800000Y-187840000D01*
X154600000Y-213120000D02*
X156800000Y-213120000D01*
X154600000Y-214340000D02*
X154600000Y-213120000D01*
X163020000Y-214340000D02*
X154600000Y-214340000D01*
X163020000Y-186620000D02*
X163020000Y-214340000D01*
X154600000Y-186620000D02*
X163020000Y-186620000D01*
X154600000Y-187840000D02*
X154600000Y-186620000D01*
X156800000Y-187840000D02*
X154600000Y-187840000D01*
X8040000Y-7620000D02*
G75*
G03X8040000Y-7620000I-5500000J0D01*
G01*
X8040000Y-26670000D02*
G75*
G03X8040000Y-26670000I-5500000J0D01*
G01*
X8040000Y-45720000D02*
G75*
G03X8040000Y-45720000I-5500000J0D01*
G01*
X27090000Y-7620000D02*
G75*
G03X27090000Y-7620000I-5500000J0D01*
G01*
X11601267Y-52830000D02*
X11258733Y-52830000D01*
X11601267Y-53850000D02*
X11258733Y-53850000D01*
X69140000Y-242828578D02*
X69140000Y-242311422D01*
X70560000Y-242828578D02*
X70560000Y-242311422D01*
X70560000Y-230128578D02*
X70560000Y-229611422D01*
X69140000Y-230128578D02*
X69140000Y-229611422D01*
X69140000Y-217428578D02*
X69140000Y-216911422D01*
X70560000Y-217428578D02*
X70560000Y-216911422D01*
X70560000Y-204728578D02*
X70560000Y-204211422D01*
X69140000Y-204728578D02*
X69140000Y-204211422D01*
X69140000Y-192028578D02*
X69140000Y-191511422D01*
X70560000Y-192028578D02*
X70560000Y-191511422D01*
X70560000Y-179328578D02*
X70560000Y-178811422D01*
X69140000Y-179328578D02*
X69140000Y-178811422D01*
X70560000Y-166628578D02*
X70560000Y-166111422D01*
X69140000Y-166628578D02*
X69140000Y-166111422D01*
X70560000Y-153928578D02*
X70560000Y-153411422D01*
X69140000Y-153928578D02*
X69140000Y-153411422D01*
X69140000Y-141228578D02*
X69140000Y-140711422D01*
X70560000Y-141228578D02*
X70560000Y-140711422D01*
X70560000Y-128528578D02*
X70560000Y-128011422D01*
X69140000Y-128528578D02*
X69140000Y-128011422D01*
X70560000Y-115828578D02*
X70560000Y-115311422D01*
X69140000Y-115828578D02*
X69140000Y-115311422D01*
X70560000Y-103128578D02*
X70560000Y-102611422D01*
X69140000Y-103128578D02*
X69140000Y-102611422D01*
X70560000Y-90428578D02*
X70560000Y-89911422D01*
X69140000Y-90428578D02*
X69140000Y-89911422D01*
X69140000Y-77728578D02*
X69140000Y-77211422D01*
X70560000Y-77728578D02*
X70560000Y-77211422D01*
X70560000Y-65028578D02*
X70560000Y-64511422D01*
X69140000Y-65028578D02*
X69140000Y-64511422D01*
X69140000Y-52328578D02*
X69140000Y-51811422D01*
X70560000Y-52328578D02*
X70560000Y-51811422D01*
X69140000Y-39628578D02*
X69140000Y-39111422D01*
X70560000Y-39628578D02*
X70560000Y-39111422D01*
X69140000Y-26928578D02*
X69140000Y-26411422D01*
X70560000Y-26928578D02*
X70560000Y-26411422D01*
X69140000Y-14228578D02*
X69140000Y-13711422D01*
X70560000Y-14228578D02*
X70560000Y-13711422D01*
X70560000Y-1528578D02*
X70560000Y-1011422D01*
X69140000Y-1528578D02*
X69140000Y-1011422D01*
X98500000Y-242828578D02*
X98500000Y-242311422D01*
X97080000Y-242828578D02*
X97080000Y-242311422D01*
X97080000Y-230128578D02*
X97080000Y-229611422D01*
X98500000Y-230128578D02*
X98500000Y-229611422D01*
X98500000Y-217428578D02*
X98500000Y-216911422D01*
X97080000Y-217428578D02*
X97080000Y-216911422D01*
X97080000Y-204728578D02*
X97080000Y-204211422D01*
X98500000Y-204728578D02*
X98500000Y-204211422D01*
X97080000Y-192028578D02*
X97080000Y-191511422D01*
X98500000Y-192028578D02*
X98500000Y-191511422D01*
X98500000Y-179328578D02*
X98500000Y-178811422D01*
X97080000Y-179328578D02*
X97080000Y-178811422D01*
X97080000Y-166628578D02*
X97080000Y-166111422D01*
X98500000Y-166628578D02*
X98500000Y-166111422D01*
X97080000Y-153928578D02*
X97080000Y-153411422D01*
X98500000Y-153928578D02*
X98500000Y-153411422D01*
X98500000Y-141228578D02*
X98500000Y-140711422D01*
X97080000Y-141228578D02*
X97080000Y-140711422D01*
X98500000Y-128528578D02*
X98500000Y-128011422D01*
X97080000Y-128528578D02*
X97080000Y-128011422D01*
X98500000Y-115828578D02*
X98500000Y-115311422D01*
X97080000Y-115828578D02*
X97080000Y-115311422D01*
X98500000Y-103128578D02*
X98500000Y-102611422D01*
X97080000Y-103128578D02*
X97080000Y-102611422D01*
X97080000Y-90428578D02*
X97080000Y-89911422D01*
X98500000Y-90428578D02*
X98500000Y-89911422D01*
X98500000Y-77728578D02*
X98500000Y-77211422D01*
X97080000Y-77728578D02*
X97080000Y-77211422D01*
X97080000Y-65028578D02*
X97080000Y-64511422D01*
X98500000Y-65028578D02*
X98500000Y-64511422D01*
X97080000Y-52328578D02*
X97080000Y-51811422D01*
X98500000Y-52328578D02*
X98500000Y-51811422D01*
X97080000Y-39628578D02*
X97080000Y-39111422D01*
X98500000Y-39628578D02*
X98500000Y-39111422D01*
X97080000Y-26928578D02*
X97080000Y-26411422D01*
X98500000Y-26928578D02*
X98500000Y-26411422D01*
X97080000Y-14228578D02*
X97080000Y-13711422D01*
X98500000Y-14228578D02*
X98500000Y-13711422D01*
X98500000Y-1528578D02*
X98500000Y-1011422D01*
X97080000Y-1528578D02*
X97080000Y-1011422D01*
X-590000Y-101390000D02*
X1610000Y-101390000D01*
X1610000Y-101390000D02*
X1610000Y-102610000D01*
X1610000Y-102610000D02*
X-6810000Y-102610000D01*
X-6810000Y-102610000D02*
X-6810000Y-74890000D01*
X-6810000Y-74890000D02*
X1610000Y-74890000D01*
X1610000Y-74890000D02*
X1610000Y-76110000D01*
X1610000Y-76110000D02*
X-590000Y-76110000D01*
X-5590000Y-102610000D02*
X-5590000Y-101390000D01*
X-5590000Y-101390000D02*
X-590000Y-101390000D01*
X-590000Y-101390000D02*
X-590000Y-102610000D01*
X-5590000Y-74890000D02*
X-5590000Y-76110000D01*
X-5590000Y-76110000D02*
X-590000Y-76110000D01*
X-590000Y-76110000D02*
X-590000Y-74890000D01*
X-1590000Y-101390000D02*
X-1590000Y-76110000D01*
X-1590000Y-100000000D02*
X-1590000Y-100320000D01*
X-1590000Y-100320000D02*
X-5010000Y-100320000D01*
X-5010000Y-100320000D02*
X-5090000Y-100000000D01*
X-5090000Y-100000000D02*
X-5010000Y-99680000D01*
X-5010000Y-99680000D02*
X-1590000Y-99680000D01*
X-1590000Y-99680000D02*
X-1590000Y-100000000D01*
X-590000Y-98830000D02*
X-590000Y-98670000D01*
X-1590000Y-97500000D02*
X-1590000Y-97820000D01*
X-1590000Y-97820000D02*
X-5010000Y-97820000D01*
X-5010000Y-97820000D02*
X-5090000Y-97500000D01*
X-5090000Y-97500000D02*
X-5010000Y-97180000D01*
X-5010000Y-97180000D02*
X-1590000Y-97180000D01*
X-1590000Y-97180000D02*
X-1590000Y-97500000D01*
X-590000Y-96330000D02*
X-590000Y-96170000D01*
X-1590000Y-95000000D02*
X-1590000Y-95320000D01*
X-1590000Y-95320000D02*
X-5010000Y-95320000D01*
X-5010000Y-95320000D02*
X-5090000Y-95000000D01*
X-5090000Y-95000000D02*
X-5010000Y-94680000D01*
X-5010000Y-94680000D02*
X-1590000Y-94680000D01*
X-1590000Y-94680000D02*
X-1590000Y-95000000D01*
X-590000Y-93830000D02*
X-590000Y-93670000D01*
X-1590000Y-92500000D02*
X-1590000Y-92820000D01*
X-1590000Y-92820000D02*
X-5010000Y-92820000D01*
X-5010000Y-92820000D02*
X-5090000Y-92500000D01*
X-5090000Y-92500000D02*
X-5010000Y-92180000D01*
X-5010000Y-92180000D02*
X-1590000Y-92180000D01*
X-1590000Y-92180000D02*
X-1590000Y-92500000D01*
X-590000Y-91330000D02*
X-590000Y-91170000D01*
X-1590000Y-90000000D02*
X-1590000Y-90320000D01*
X-1590000Y-90320000D02*
X-5010000Y-90320000D01*
X-5010000Y-90320000D02*
X-5090000Y-90000000D01*
X-5090000Y-90000000D02*
X-5010000Y-89680000D01*
X-5010000Y-89680000D02*
X-1590000Y-89680000D01*
X-1590000Y-89680000D02*
X-1590000Y-90000000D01*
X-590000Y-88830000D02*
X-590000Y-88670000D01*
X-1590000Y-87500000D02*
X-1590000Y-87820000D01*
X-1590000Y-87820000D02*
X-5010000Y-87820000D01*
X-5010000Y-87820000D02*
X-5090000Y-87500000D01*
X-5090000Y-87500000D02*
X-5010000Y-87180000D01*
X-5010000Y-87180000D02*
X-1590000Y-87180000D01*
X-1590000Y-87180000D02*
X-1590000Y-87500000D01*
X-590000Y-86330000D02*
X-590000Y-86170000D01*
X-1590000Y-85000000D02*
X-1590000Y-85320000D01*
X-1590000Y-85320000D02*
X-5010000Y-85320000D01*
X-5010000Y-85320000D02*
X-5090000Y-85000000D01*
X-5090000Y-85000000D02*
X-5010000Y-84680000D01*
X-5010000Y-84680000D02*
X-1590000Y-84680000D01*
X-1590000Y-84680000D02*
X-1590000Y-85000000D01*
X-590000Y-83830000D02*
X-590000Y-83670000D01*
X-1590000Y-82500000D02*
X-1590000Y-82820000D01*
X-1590000Y-82820000D02*
X-5010000Y-82820000D01*
X-5010000Y-82820000D02*
X-5090000Y-82500000D01*
X-5090000Y-82500000D02*
X-5010000Y-82180000D01*
X-5010000Y-82180000D02*
X-1590000Y-82180000D01*
X-1590000Y-82180000D02*
X-1590000Y-82500000D01*
X-590000Y-81330000D02*
X-590000Y-81170000D01*
X-1590000Y-80000000D02*
X-1590000Y-80320000D01*
X-1590000Y-80320000D02*
X-5010000Y-80320000D01*
X-5010000Y-80320000D02*
X-5090000Y-80000000D01*
X-5090000Y-80000000D02*
X-5010000Y-79680000D01*
X-5010000Y-79680000D02*
X-1590000Y-79680000D01*
X-1590000Y-79680000D02*
X-1590000Y-80000000D01*
X-590000Y-78830000D02*
X-590000Y-78670000D01*
X-1590000Y-77500000D02*
X-1590000Y-77820000D01*
X-1590000Y-77820000D02*
X-5010000Y-77820000D01*
X-5010000Y-77820000D02*
X-5090000Y-77500000D01*
X-5090000Y-77500000D02*
X-5010000Y-77180000D01*
X-5010000Y-77180000D02*
X-1590000Y-77180000D01*
X-1590000Y-77180000D02*
X-1590000Y-77500000D01*
X1500000Y-100000000D02*
X2100000Y-100300000D01*
X2100000Y-100300000D02*
X2100000Y-99700000D01*
X2100000Y-99700000D02*
X1500000Y-100000000D01*
X2100000Y-158450000D02*
X1500000Y-158750000D01*
X2100000Y-159050000D02*
X2100000Y-158450000D01*
X1500000Y-158750000D02*
X2100000Y-159050000D01*
X-1590000Y-135930000D02*
X-1590000Y-136250000D01*
X-5010000Y-135930000D02*
X-1590000Y-135930000D01*
X-5090000Y-136250000D02*
X-5010000Y-135930000D01*
X-5010000Y-136570000D02*
X-5090000Y-136250000D01*
X-1590000Y-136570000D02*
X-5010000Y-136570000D01*
X-1590000Y-136250000D02*
X-1590000Y-136570000D01*
X-590000Y-137580000D02*
X-590000Y-137420000D01*
X-1590000Y-138430000D02*
X-1590000Y-138750000D01*
X-5010000Y-138430000D02*
X-1590000Y-138430000D01*
X-5090000Y-138750000D02*
X-5010000Y-138430000D01*
X-5010000Y-139070000D02*
X-5090000Y-138750000D01*
X-1590000Y-139070000D02*
X-5010000Y-139070000D01*
X-1590000Y-138750000D02*
X-1590000Y-139070000D01*
X-590000Y-140080000D02*
X-590000Y-139920000D01*
X-1590000Y-140930000D02*
X-1590000Y-141250000D01*
X-5010000Y-140930000D02*
X-1590000Y-140930000D01*
X-5090000Y-141250000D02*
X-5010000Y-140930000D01*
X-5010000Y-141570000D02*
X-5090000Y-141250000D01*
X-1590000Y-141570000D02*
X-5010000Y-141570000D01*
X-1590000Y-141250000D02*
X-1590000Y-141570000D01*
X-590000Y-142580000D02*
X-590000Y-142420000D01*
X-1590000Y-143430000D02*
X-1590000Y-143750000D01*
X-5010000Y-143430000D02*
X-1590000Y-143430000D01*
X-5090000Y-143750000D02*
X-5010000Y-143430000D01*
X-5010000Y-144070000D02*
X-5090000Y-143750000D01*
X-1590000Y-144070000D02*
X-5010000Y-144070000D01*
X-1590000Y-143750000D02*
X-1590000Y-144070000D01*
X-590000Y-145080000D02*
X-590000Y-144920000D01*
X-1590000Y-145930000D02*
X-1590000Y-146250000D01*
X-5010000Y-145930000D02*
X-1590000Y-145930000D01*
X-5090000Y-146250000D02*
X-5010000Y-145930000D01*
X-5010000Y-146570000D02*
X-5090000Y-146250000D01*
X-1590000Y-146570000D02*
X-5010000Y-146570000D01*
X-1590000Y-146250000D02*
X-1590000Y-146570000D01*
X-590000Y-147580000D02*
X-590000Y-147420000D01*
X-1590000Y-148430000D02*
X-1590000Y-148750000D01*
X-5010000Y-148430000D02*
X-1590000Y-148430000D01*
X-5090000Y-148750000D02*
X-5010000Y-148430000D01*
X-5010000Y-149070000D02*
X-5090000Y-148750000D01*
X-1590000Y-149070000D02*
X-5010000Y-149070000D01*
X-1590000Y-148750000D02*
X-1590000Y-149070000D01*
X-590000Y-150080000D02*
X-590000Y-149920000D01*
X-1590000Y-150930000D02*
X-1590000Y-151250000D01*
X-5010000Y-150930000D02*
X-1590000Y-150930000D01*
X-5090000Y-151250000D02*
X-5010000Y-150930000D01*
X-5010000Y-151570000D02*
X-5090000Y-151250000D01*
X-1590000Y-151570000D02*
X-5010000Y-151570000D01*
X-1590000Y-151250000D02*
X-1590000Y-151570000D01*
X-590000Y-152580000D02*
X-590000Y-152420000D01*
X-1590000Y-153430000D02*
X-1590000Y-153750000D01*
X-5010000Y-153430000D02*
X-1590000Y-153430000D01*
X-5090000Y-153750000D02*
X-5010000Y-153430000D01*
X-5010000Y-154070000D02*
X-5090000Y-153750000D01*
X-1590000Y-154070000D02*
X-5010000Y-154070000D01*
X-1590000Y-153750000D02*
X-1590000Y-154070000D01*
X-590000Y-155080000D02*
X-590000Y-154920000D01*
X-1590000Y-155930000D02*
X-1590000Y-156250000D01*
X-5010000Y-155930000D02*
X-1590000Y-155930000D01*
X-5090000Y-156250000D02*
X-5010000Y-155930000D01*
X-5010000Y-156570000D02*
X-5090000Y-156250000D01*
X-1590000Y-156570000D02*
X-5010000Y-156570000D01*
X-1590000Y-156250000D02*
X-1590000Y-156570000D01*
X-590000Y-157580000D02*
X-590000Y-157420000D01*
X-1590000Y-158430000D02*
X-1590000Y-158750000D01*
X-5010000Y-158430000D02*
X-1590000Y-158430000D01*
X-5090000Y-158750000D02*
X-5010000Y-158430000D01*
X-5010000Y-159070000D02*
X-5090000Y-158750000D01*
X-1590000Y-159070000D02*
X-5010000Y-159070000D01*
X-1590000Y-158750000D02*
X-1590000Y-159070000D01*
X-1590000Y-160140000D02*
X-1590000Y-134860000D01*
X-590000Y-134860000D02*
X-590000Y-133640000D01*
X-5590000Y-134860000D02*
X-590000Y-134860000D01*
X-5590000Y-133640000D02*
X-5590000Y-134860000D01*
X-590000Y-160140000D02*
X-590000Y-161360000D01*
X-5590000Y-160140000D02*
X-590000Y-160140000D01*
X-5590000Y-161360000D02*
X-5590000Y-160140000D01*
X1610000Y-134860000D02*
X-590000Y-134860000D01*
X1610000Y-133640000D02*
X1610000Y-134860000D01*
X-6810000Y-133640000D02*
X1610000Y-133640000D01*
X-6810000Y-161360000D02*
X-6810000Y-133640000D01*
X1610000Y-161360000D02*
X-6810000Y-161360000D01*
X1610000Y-160140000D02*
X1610000Y-161360000D01*
X-590000Y-160140000D02*
X1610000Y-160140000D01*
X5290000Y-195940000D02*
X9410000Y-195940000D01*
X5290000Y-183880000D02*
X5290000Y-195940000D01*
X9410000Y-181820000D02*
X9410000Y-195940000D01*
X5290000Y-183880000D02*
X7350000Y-183880000D01*
X7350000Y-183880000D02*
X7350000Y-181820000D01*
X7350000Y-181820000D02*
X9410000Y-181820000D01*
X5290000Y-182880000D02*
X5290000Y-181820000D01*
X5290000Y-181820000D02*
X6350000Y-181820000D01*
X164420000Y-74500000D02*
X162220000Y-74500000D01*
X162220000Y-74500000D02*
X162220000Y-73280000D01*
X162220000Y-73280000D02*
X170640000Y-73280000D01*
X170640000Y-73280000D02*
X170640000Y-101000000D01*
X170640000Y-101000000D02*
X162220000Y-101000000D01*
X162220000Y-101000000D02*
X162220000Y-99780000D01*
X162220000Y-99780000D02*
X164420000Y-99780000D01*
X169420000Y-73280000D02*
X169420000Y-74500000D01*
X169420000Y-74500000D02*
X164420000Y-74500000D01*
X164420000Y-74500000D02*
X164420000Y-73280000D01*
X169420000Y-101000000D02*
X169420000Y-99780000D01*
X169420000Y-99780000D02*
X164420000Y-99780000D01*
X164420000Y-99780000D02*
X164420000Y-101000000D01*
X165420000Y-74500000D02*
X165420000Y-99780000D01*
X165420000Y-75890000D02*
X165420000Y-75570000D01*
X165420000Y-75570000D02*
X168840000Y-75570000D01*
X168840000Y-75570000D02*
X168920000Y-75890000D01*
X168920000Y-75890000D02*
X168840000Y-76210000D01*
X168840000Y-76210000D02*
X165420000Y-76210000D01*
X165420000Y-76210000D02*
X165420000Y-75890000D01*
X164420000Y-77060000D02*
X164420000Y-77220000D01*
X165420000Y-78390000D02*
X165420000Y-78070000D01*
X165420000Y-78070000D02*
X168840000Y-78070000D01*
X168840000Y-78070000D02*
X168920000Y-78390000D01*
X168920000Y-78390000D02*
X168840000Y-78710000D01*
X168840000Y-78710000D02*
X165420000Y-78710000D01*
X165420000Y-78710000D02*
X165420000Y-78390000D01*
X164420000Y-79560000D02*
X164420000Y-79720000D01*
X165420000Y-80890000D02*
X165420000Y-80570000D01*
X165420000Y-80570000D02*
X168840000Y-80570000D01*
X168840000Y-80570000D02*
X168920000Y-80890000D01*
X168920000Y-80890000D02*
X168840000Y-81210000D01*
X168840000Y-81210000D02*
X165420000Y-81210000D01*
X165420000Y-81210000D02*
X165420000Y-80890000D01*
X164420000Y-82060000D02*
X164420000Y-82220000D01*
X165420000Y-83390000D02*
X165420000Y-83070000D01*
X165420000Y-83070000D02*
X168840000Y-83070000D01*
X168840000Y-83070000D02*
X168920000Y-83390000D01*
X168920000Y-83390000D02*
X168840000Y-83710000D01*
X168840000Y-83710000D02*
X165420000Y-83710000D01*
X165420000Y-83710000D02*
X165420000Y-83390000D01*
X164420000Y-84560000D02*
X164420000Y-84720000D01*
X165420000Y-85890000D02*
X165420000Y-85570000D01*
X165420000Y-85570000D02*
X168840000Y-85570000D01*
X168840000Y-85570000D02*
X168920000Y-85890000D01*
X168920000Y-85890000D02*
X168840000Y-86210000D01*
X168840000Y-86210000D02*
X165420000Y-86210000D01*
X165420000Y-86210000D02*
X165420000Y-85890000D01*
X164420000Y-87060000D02*
X164420000Y-87220000D01*
X165420000Y-88390000D02*
X165420000Y-88070000D01*
X165420000Y-88070000D02*
X168840000Y-88070000D01*
X168840000Y-88070000D02*
X168920000Y-88390000D01*
X168920000Y-88390000D02*
X168840000Y-88710000D01*
X168840000Y-88710000D02*
X165420000Y-88710000D01*
X165420000Y-88710000D02*
X165420000Y-88390000D01*
X164420000Y-89560000D02*
X164420000Y-89720000D01*
X165420000Y-90890000D02*
X165420000Y-90570000D01*
X165420000Y-90570000D02*
X168840000Y-90570000D01*
X168840000Y-90570000D02*
X168920000Y-90890000D01*
X168920000Y-90890000D02*
X168840000Y-91210000D01*
X168840000Y-91210000D02*
X165420000Y-91210000D01*
X165420000Y-91210000D02*
X165420000Y-90890000D01*
X164420000Y-92060000D02*
X164420000Y-92220000D01*
X165420000Y-93390000D02*
X165420000Y-93070000D01*
X165420000Y-93070000D02*
X168840000Y-93070000D01*
X168840000Y-93070000D02*
X168920000Y-93390000D01*
X168920000Y-93390000D02*
X168840000Y-93710000D01*
X168840000Y-93710000D02*
X165420000Y-93710000D01*
X165420000Y-93710000D02*
X165420000Y-93390000D01*
X164420000Y-94560000D02*
X164420000Y-94720000D01*
X165420000Y-95890000D02*
X165420000Y-95570000D01*
X165420000Y-95570000D02*
X168840000Y-95570000D01*
X168840000Y-95570000D02*
X168920000Y-95890000D01*
X168920000Y-95890000D02*
X168840000Y-96210000D01*
X168840000Y-96210000D02*
X165420000Y-96210000D01*
X165420000Y-96210000D02*
X165420000Y-95890000D01*
X164420000Y-97060000D02*
X164420000Y-97220000D01*
X165420000Y-98390000D02*
X165420000Y-98070000D01*
X165420000Y-98070000D02*
X168840000Y-98070000D01*
X168840000Y-98070000D02*
X168920000Y-98390000D01*
X168920000Y-98390000D02*
X168840000Y-98710000D01*
X168840000Y-98710000D02*
X165420000Y-98710000D01*
X165420000Y-98710000D02*
X165420000Y-98390000D01*
X162330000Y-75890000D02*
X161730000Y-75590000D01*
X161730000Y-75590000D02*
X161730000Y-76190000D01*
X161730000Y-76190000D02*
X162330000Y-75890000D01*
X161730000Y-136190000D02*
X162330000Y-135890000D01*
X161730000Y-135590000D02*
X161730000Y-136190000D01*
X162330000Y-135890000D02*
X161730000Y-135590000D01*
X165420000Y-158710000D02*
X165420000Y-158390000D01*
X168840000Y-158710000D02*
X165420000Y-158710000D01*
X168920000Y-158390000D02*
X168840000Y-158710000D01*
X168840000Y-158070000D02*
X168920000Y-158390000D01*
X165420000Y-158070000D02*
X168840000Y-158070000D01*
X165420000Y-158390000D02*
X165420000Y-158070000D01*
X164420000Y-157060000D02*
X164420000Y-157220000D01*
X165420000Y-156210000D02*
X165420000Y-155890000D01*
X168840000Y-156210000D02*
X165420000Y-156210000D01*
X168920000Y-155890000D02*
X168840000Y-156210000D01*
X168840000Y-155570000D02*
X168920000Y-155890000D01*
X165420000Y-155570000D02*
X168840000Y-155570000D01*
X165420000Y-155890000D02*
X165420000Y-155570000D01*
X164420000Y-154560000D02*
X164420000Y-154720000D01*
X165420000Y-153710000D02*
X165420000Y-153390000D01*
X168840000Y-153710000D02*
X165420000Y-153710000D01*
X168920000Y-153390000D02*
X168840000Y-153710000D01*
X168840000Y-153070000D02*
X168920000Y-153390000D01*
X165420000Y-153070000D02*
X168840000Y-153070000D01*
X165420000Y-153390000D02*
X165420000Y-153070000D01*
X164420000Y-152060000D02*
X164420000Y-152220000D01*
X165420000Y-151210000D02*
X165420000Y-150890000D01*
X168840000Y-151210000D02*
X165420000Y-151210000D01*
X168920000Y-150890000D02*
X168840000Y-151210000D01*
X168840000Y-150570000D02*
X168920000Y-150890000D01*
X165420000Y-150570000D02*
X168840000Y-150570000D01*
X165420000Y-150890000D02*
X165420000Y-150570000D01*
X164420000Y-149560000D02*
X164420000Y-149720000D01*
X165420000Y-148710000D02*
X165420000Y-148390000D01*
X168840000Y-148710000D02*
X165420000Y-148710000D01*
X168920000Y-148390000D02*
X168840000Y-148710000D01*
X168840000Y-148070000D02*
X168920000Y-148390000D01*
X165420000Y-148070000D02*
X168840000Y-148070000D01*
X165420000Y-148390000D02*
X165420000Y-148070000D01*
X164420000Y-147060000D02*
X164420000Y-147220000D01*
X165420000Y-146210000D02*
X165420000Y-145890000D01*
X168840000Y-146210000D02*
X165420000Y-146210000D01*
X168920000Y-145890000D02*
X168840000Y-146210000D01*
X168840000Y-145570000D02*
X168920000Y-145890000D01*
X165420000Y-145570000D02*
X168840000Y-145570000D01*
X165420000Y-145890000D02*
X165420000Y-145570000D01*
X164420000Y-144560000D02*
X164420000Y-144720000D01*
X165420000Y-143710000D02*
X165420000Y-143390000D01*
X168840000Y-143710000D02*
X165420000Y-143710000D01*
X168920000Y-143390000D02*
X168840000Y-143710000D01*
X168840000Y-143070000D02*
X168920000Y-143390000D01*
X165420000Y-143070000D02*
X168840000Y-143070000D01*
X165420000Y-143390000D02*
X165420000Y-143070000D01*
X164420000Y-142060000D02*
X164420000Y-142220000D01*
X165420000Y-141210000D02*
X165420000Y-140890000D01*
X168840000Y-141210000D02*
X165420000Y-141210000D01*
X168920000Y-140890000D02*
X168840000Y-141210000D01*
X168840000Y-140570000D02*
X168920000Y-140890000D01*
X165420000Y-140570000D02*
X168840000Y-140570000D01*
X165420000Y-140890000D02*
X165420000Y-140570000D01*
X164420000Y-139560000D02*
X164420000Y-139720000D01*
X165420000Y-138710000D02*
X165420000Y-138390000D01*
X168840000Y-138710000D02*
X165420000Y-138710000D01*
X168920000Y-138390000D02*
X168840000Y-138710000D01*
X168840000Y-138070000D02*
X168920000Y-138390000D01*
X165420000Y-138070000D02*
X168840000Y-138070000D01*
X165420000Y-138390000D02*
X165420000Y-138070000D01*
X164420000Y-137060000D02*
X164420000Y-137220000D01*
X165420000Y-136210000D02*
X165420000Y-135890000D01*
X168840000Y-136210000D02*
X165420000Y-136210000D01*
X168920000Y-135890000D02*
X168840000Y-136210000D01*
X168840000Y-135570000D02*
X168920000Y-135890000D01*
X165420000Y-135570000D02*
X168840000Y-135570000D01*
X165420000Y-135890000D02*
X165420000Y-135570000D01*
X165420000Y-134500000D02*
X165420000Y-159780000D01*
X164420000Y-159780000D02*
X164420000Y-161000000D01*
X169420000Y-159780000D02*
X164420000Y-159780000D01*
X169420000Y-161000000D02*
X169420000Y-159780000D01*
X164420000Y-134500000D02*
X164420000Y-133280000D01*
X169420000Y-134500000D02*
X164420000Y-134500000D01*
X169420000Y-133280000D02*
X169420000Y-134500000D01*
X162220000Y-159780000D02*
X164420000Y-159780000D01*
X162220000Y-161000000D02*
X162220000Y-159780000D01*
X170640000Y-161000000D02*
X162220000Y-161000000D01*
X170640000Y-133280000D02*
X170640000Y-161000000D01*
X162220000Y-133280000D02*
X170640000Y-133280000D01*
X162220000Y-134500000D02*
X162220000Y-133280000D01*
X164420000Y-134500000D02*
X162220000Y-134500000D01*
X17990000Y-120630000D02*
X20110000Y-120630000D01*
X17990000Y-116570000D02*
X17990000Y-120630000D01*
X20110000Y-116570000D02*
X20110000Y-120630000D01*
X17990000Y-116570000D02*
X20110000Y-116570000D01*
X17990000Y-115570000D02*
X17990000Y-114510000D01*
X17990000Y-114510000D02*
X19050000Y-114510000D01*
X23070000Y-120630000D02*
X25190000Y-120630000D01*
X23070000Y-116570000D02*
X23070000Y-120630000D01*
X25190000Y-116570000D02*
X25190000Y-120630000D01*
X23070000Y-116570000D02*
X25190000Y-116570000D01*
X23070000Y-115570000D02*
X23070000Y-114510000D01*
X23070000Y-114510000D02*
X24130000Y-114510000D01*
X28150000Y-114510000D02*
X29210000Y-114510000D01*
X28150000Y-115570000D02*
X28150000Y-114510000D01*
X28150000Y-116570000D02*
X30270000Y-116570000D01*
X30270000Y-116570000D02*
X30270000Y-120630000D01*
X28150000Y-116570000D02*
X28150000Y-120630000D01*
X28150000Y-120630000D02*
X30270000Y-120630000D01*
X19560000Y-109048733D02*
X19560000Y-109391267D01*
X18540000Y-109048733D02*
X18540000Y-109391267D01*
X23620000Y-109048733D02*
X23620000Y-109391267D01*
X24640000Y-109048733D02*
X24640000Y-109391267D01*
X29720000Y-109048733D02*
X29720000Y-109391267D01*
X28700000Y-109048733D02*
X28700000Y-109391267D01*
D12*
X117422380Y1365714D02*
X116422380Y1365714D01*
X117422380Y1937142D02*
X116850952Y1508571D01*
X116422380Y1937142D02*
X116993809Y1365714D01*
X116755714Y2794285D02*
X117422380Y2794285D01*
X116374761Y2556190D02*
X117089047Y2318095D01*
X117089047Y2937142D01*
X116422380Y3508571D02*
X116422380Y3603809D01*
X116470000Y3699047D01*
X116517619Y3746666D01*
X116612857Y3794285D01*
X116803333Y3841904D01*
X117041428Y3841904D01*
X117231904Y3794285D01*
X117327142Y3746666D01*
X117374761Y3699047D01*
X117422380Y3603809D01*
X117422380Y3508571D01*
X117374761Y3413333D01*
X117327142Y3365714D01*
X117231904Y3318095D01*
X117041428Y3270476D01*
X116803333Y3270476D01*
X116612857Y3318095D01*
X116517619Y3365714D01*
X116470000Y3413333D01*
X116422380Y3508571D01*
X117422380Y-11334285D02*
X116422380Y-11334285D01*
X117422380Y-10762857D02*
X116850952Y-11191428D01*
X116422380Y-10762857D02*
X116993809Y-11334285D01*
X116422380Y-10429523D02*
X116422380Y-9810476D01*
X116803333Y-10143809D01*
X116803333Y-10000952D01*
X116850952Y-9905714D01*
X116898571Y-9858095D01*
X116993809Y-9810476D01*
X117231904Y-9810476D01*
X117327142Y-9858095D01*
X117374761Y-9905714D01*
X117422380Y-10000952D01*
X117422380Y-10286666D01*
X117374761Y-10381904D01*
X117327142Y-10429523D01*
X117422380Y-9334285D02*
X117422380Y-9143809D01*
X117374761Y-9048571D01*
X117327142Y-9000952D01*
X117184285Y-8905714D01*
X116993809Y-8858095D01*
X116612857Y-8858095D01*
X116517619Y-8905714D01*
X116470000Y-8953333D01*
X116422380Y-9048571D01*
X116422380Y-9239047D01*
X116470000Y-9334285D01*
X116517619Y-9381904D01*
X116612857Y-9429523D01*
X116850952Y-9429523D01*
X116946190Y-9381904D01*
X116993809Y-9334285D01*
X117041428Y-9239047D01*
X117041428Y-9048571D01*
X116993809Y-8953333D01*
X116946190Y-8905714D01*
X116850952Y-8858095D01*
X117422380Y-24034285D02*
X116422380Y-24034285D01*
X117422380Y-23462857D02*
X116850952Y-23891428D01*
X116422380Y-23462857D02*
X116993809Y-24034285D01*
X116422380Y-23129523D02*
X116422380Y-22510476D01*
X116803333Y-22843809D01*
X116803333Y-22700952D01*
X116850952Y-22605714D01*
X116898571Y-22558095D01*
X116993809Y-22510476D01*
X117231904Y-22510476D01*
X117327142Y-22558095D01*
X117374761Y-22605714D01*
X117422380Y-22700952D01*
X117422380Y-22986666D01*
X117374761Y-23081904D01*
X117327142Y-23129523D01*
X116850952Y-21939047D02*
X116803333Y-22034285D01*
X116755714Y-22081904D01*
X116660476Y-22129523D01*
X116612857Y-22129523D01*
X116517619Y-22081904D01*
X116470000Y-22034285D01*
X116422380Y-21939047D01*
X116422380Y-21748571D01*
X116470000Y-21653333D01*
X116517619Y-21605714D01*
X116612857Y-21558095D01*
X116660476Y-21558095D01*
X116755714Y-21605714D01*
X116803333Y-21653333D01*
X116850952Y-21748571D01*
X116850952Y-21939047D01*
X116898571Y-22034285D01*
X116946190Y-22081904D01*
X117041428Y-22129523D01*
X117231904Y-22129523D01*
X117327142Y-22081904D01*
X117374761Y-22034285D01*
X117422380Y-21939047D01*
X117422380Y-21748571D01*
X117374761Y-21653333D01*
X117327142Y-21605714D01*
X117231904Y-21558095D01*
X117041428Y-21558095D01*
X116946190Y-21605714D01*
X116898571Y-21653333D01*
X116850952Y-21748571D01*
X117422380Y-36734285D02*
X116422380Y-36734285D01*
X117422380Y-36162857D02*
X116850952Y-36591428D01*
X116422380Y-36162857D02*
X116993809Y-36734285D01*
X116422380Y-35829523D02*
X116422380Y-35210476D01*
X116803333Y-35543809D01*
X116803333Y-35400952D01*
X116850952Y-35305714D01*
X116898571Y-35258095D01*
X116993809Y-35210476D01*
X117231904Y-35210476D01*
X117327142Y-35258095D01*
X117374761Y-35305714D01*
X117422380Y-35400952D01*
X117422380Y-35686666D01*
X117374761Y-35781904D01*
X117327142Y-35829523D01*
X116422380Y-34877142D02*
X116422380Y-34210476D01*
X117422380Y-34639047D01*
X117422380Y-49434285D02*
X116422380Y-49434285D01*
X117422380Y-48862857D02*
X116850952Y-49291428D01*
X116422380Y-48862857D02*
X116993809Y-49434285D01*
X116422380Y-48529523D02*
X116422380Y-47910476D01*
X116803333Y-48243809D01*
X116803333Y-48100952D01*
X116850952Y-48005714D01*
X116898571Y-47958095D01*
X116993809Y-47910476D01*
X117231904Y-47910476D01*
X117327142Y-47958095D01*
X117374761Y-48005714D01*
X117422380Y-48100952D01*
X117422380Y-48386666D01*
X117374761Y-48481904D01*
X117327142Y-48529523D01*
X116422380Y-47053333D02*
X116422380Y-47243809D01*
X116470000Y-47339047D01*
X116517619Y-47386666D01*
X116660476Y-47481904D01*
X116850952Y-47529523D01*
X117231904Y-47529523D01*
X117327142Y-47481904D01*
X117374761Y-47434285D01*
X117422380Y-47339047D01*
X117422380Y-47148571D01*
X117374761Y-47053333D01*
X117327142Y-47005714D01*
X117231904Y-46958095D01*
X116993809Y-46958095D01*
X116898571Y-47005714D01*
X116850952Y-47053333D01*
X116803333Y-47148571D01*
X116803333Y-47339047D01*
X116850952Y-47434285D01*
X116898571Y-47481904D01*
X116993809Y-47529523D01*
X117422380Y-62134285D02*
X116422380Y-62134285D01*
X117422380Y-61562857D02*
X116850952Y-61991428D01*
X116422380Y-61562857D02*
X116993809Y-62134285D01*
X116422380Y-61229523D02*
X116422380Y-60610476D01*
X116803333Y-60943809D01*
X116803333Y-60800952D01*
X116850952Y-60705714D01*
X116898571Y-60658095D01*
X116993809Y-60610476D01*
X117231904Y-60610476D01*
X117327142Y-60658095D01*
X117374761Y-60705714D01*
X117422380Y-60800952D01*
X117422380Y-61086666D01*
X117374761Y-61181904D01*
X117327142Y-61229523D01*
X116422380Y-59705714D02*
X116422380Y-60181904D01*
X116898571Y-60229523D01*
X116850952Y-60181904D01*
X116803333Y-60086666D01*
X116803333Y-59848571D01*
X116850952Y-59753333D01*
X116898571Y-59705714D01*
X116993809Y-59658095D01*
X117231904Y-59658095D01*
X117327142Y-59705714D01*
X117374761Y-59753333D01*
X117422380Y-59848571D01*
X117422380Y-60086666D01*
X117374761Y-60181904D01*
X117327142Y-60229523D01*
X117422380Y-74834285D02*
X116422380Y-74834285D01*
X117422380Y-74262857D02*
X116850952Y-74691428D01*
X116422380Y-74262857D02*
X116993809Y-74834285D01*
X116422380Y-73929523D02*
X116422380Y-73310476D01*
X116803333Y-73643809D01*
X116803333Y-73500952D01*
X116850952Y-73405714D01*
X116898571Y-73358095D01*
X116993809Y-73310476D01*
X117231904Y-73310476D01*
X117327142Y-73358095D01*
X117374761Y-73405714D01*
X117422380Y-73500952D01*
X117422380Y-73786666D01*
X117374761Y-73881904D01*
X117327142Y-73929523D01*
X116755714Y-72453333D02*
X117422380Y-72453333D01*
X116374761Y-72691428D02*
X117089047Y-72929523D01*
X117089047Y-72310476D01*
X117422380Y-87534285D02*
X116422380Y-87534285D01*
X117422380Y-86962857D02*
X116850952Y-87391428D01*
X116422380Y-86962857D02*
X116993809Y-87534285D01*
X116422380Y-86629523D02*
X116422380Y-86010476D01*
X116803333Y-86343809D01*
X116803333Y-86200952D01*
X116850952Y-86105714D01*
X116898571Y-86058095D01*
X116993809Y-86010476D01*
X117231904Y-86010476D01*
X117327142Y-86058095D01*
X117374761Y-86105714D01*
X117422380Y-86200952D01*
X117422380Y-86486666D01*
X117374761Y-86581904D01*
X117327142Y-86629523D01*
X116422380Y-85677142D02*
X116422380Y-85058095D01*
X116803333Y-85391428D01*
X116803333Y-85248571D01*
X116850952Y-85153333D01*
X116898571Y-85105714D01*
X116993809Y-85058095D01*
X117231904Y-85058095D01*
X117327142Y-85105714D01*
X117374761Y-85153333D01*
X117422380Y-85248571D01*
X117422380Y-85534285D01*
X117374761Y-85629523D01*
X117327142Y-85677142D01*
X117422380Y-100234285D02*
X116422380Y-100234285D01*
X117422380Y-99662857D02*
X116850952Y-100091428D01*
X116422380Y-99662857D02*
X116993809Y-100234285D01*
X116422380Y-99329523D02*
X116422380Y-98710476D01*
X116803333Y-99043809D01*
X116803333Y-98900952D01*
X116850952Y-98805714D01*
X116898571Y-98758095D01*
X116993809Y-98710476D01*
X117231904Y-98710476D01*
X117327142Y-98758095D01*
X117374761Y-98805714D01*
X117422380Y-98900952D01*
X117422380Y-99186666D01*
X117374761Y-99281904D01*
X117327142Y-99329523D01*
X116517619Y-98329523D02*
X116470000Y-98281904D01*
X116422380Y-98186666D01*
X116422380Y-97948571D01*
X116470000Y-97853333D01*
X116517619Y-97805714D01*
X116612857Y-97758095D01*
X116708095Y-97758095D01*
X116850952Y-97805714D01*
X117422380Y-98377142D01*
X117422380Y-97758095D01*
X117422380Y-112934285D02*
X116422380Y-112934285D01*
X117422380Y-112362857D02*
X116850952Y-112791428D01*
X116422380Y-112362857D02*
X116993809Y-112934285D01*
X116422380Y-112029523D02*
X116422380Y-111410476D01*
X116803333Y-111743809D01*
X116803333Y-111600952D01*
X116850952Y-111505714D01*
X116898571Y-111458095D01*
X116993809Y-111410476D01*
X117231904Y-111410476D01*
X117327142Y-111458095D01*
X117374761Y-111505714D01*
X117422380Y-111600952D01*
X117422380Y-111886666D01*
X117374761Y-111981904D01*
X117327142Y-112029523D01*
X117422380Y-110458095D02*
X117422380Y-111029523D01*
X117422380Y-110743809D02*
X116422380Y-110743809D01*
X116565238Y-110839047D01*
X116660476Y-110934285D01*
X116708095Y-111029523D01*
X117422380Y-125634285D02*
X116422380Y-125634285D01*
X117422380Y-125062857D02*
X116850952Y-125491428D01*
X116422380Y-125062857D02*
X116993809Y-125634285D01*
X116422380Y-124729523D02*
X116422380Y-124110476D01*
X116803333Y-124443809D01*
X116803333Y-124300952D01*
X116850952Y-124205714D01*
X116898571Y-124158095D01*
X116993809Y-124110476D01*
X117231904Y-124110476D01*
X117327142Y-124158095D01*
X117374761Y-124205714D01*
X117422380Y-124300952D01*
X117422380Y-124586666D01*
X117374761Y-124681904D01*
X117327142Y-124729523D01*
X116422380Y-123491428D02*
X116422380Y-123396190D01*
X116470000Y-123300952D01*
X116517619Y-123253333D01*
X116612857Y-123205714D01*
X116803333Y-123158095D01*
X117041428Y-123158095D01*
X117231904Y-123205714D01*
X117327142Y-123253333D01*
X117374761Y-123300952D01*
X117422380Y-123396190D01*
X117422380Y-123491428D01*
X117374761Y-123586666D01*
X117327142Y-123634285D01*
X117231904Y-123681904D01*
X117041428Y-123729523D01*
X116803333Y-123729523D01*
X116612857Y-123681904D01*
X116517619Y-123634285D01*
X116470000Y-123586666D01*
X116422380Y-123491428D01*
X117422380Y-138334285D02*
X116422380Y-138334285D01*
X117422380Y-137762857D02*
X116850952Y-138191428D01*
X116422380Y-137762857D02*
X116993809Y-138334285D01*
X116517619Y-137381904D02*
X116470000Y-137334285D01*
X116422380Y-137239047D01*
X116422380Y-137000952D01*
X116470000Y-136905714D01*
X116517619Y-136858095D01*
X116612857Y-136810476D01*
X116708095Y-136810476D01*
X116850952Y-136858095D01*
X117422380Y-137429523D01*
X117422380Y-136810476D01*
X117422380Y-136334285D02*
X117422380Y-136143809D01*
X117374761Y-136048571D01*
X117327142Y-136000952D01*
X117184285Y-135905714D01*
X116993809Y-135858095D01*
X116612857Y-135858095D01*
X116517619Y-135905714D01*
X116470000Y-135953333D01*
X116422380Y-136048571D01*
X116422380Y-136239047D01*
X116470000Y-136334285D01*
X116517619Y-136381904D01*
X116612857Y-136429523D01*
X116850952Y-136429523D01*
X116946190Y-136381904D01*
X116993809Y-136334285D01*
X117041428Y-136239047D01*
X117041428Y-136048571D01*
X116993809Y-135953333D01*
X116946190Y-135905714D01*
X116850952Y-135858095D01*
X117422380Y-151034285D02*
X116422380Y-151034285D01*
X117422380Y-150462857D02*
X116850952Y-150891428D01*
X116422380Y-150462857D02*
X116993809Y-151034285D01*
X116517619Y-150081904D02*
X116470000Y-150034285D01*
X116422380Y-149939047D01*
X116422380Y-149700952D01*
X116470000Y-149605714D01*
X116517619Y-149558095D01*
X116612857Y-149510476D01*
X116708095Y-149510476D01*
X116850952Y-149558095D01*
X117422380Y-150129523D01*
X117422380Y-149510476D01*
X116850952Y-148939047D02*
X116803333Y-149034285D01*
X116755714Y-149081904D01*
X116660476Y-149129523D01*
X116612857Y-149129523D01*
X116517619Y-149081904D01*
X116470000Y-149034285D01*
X116422380Y-148939047D01*
X116422380Y-148748571D01*
X116470000Y-148653333D01*
X116517619Y-148605714D01*
X116612857Y-148558095D01*
X116660476Y-148558095D01*
X116755714Y-148605714D01*
X116803333Y-148653333D01*
X116850952Y-148748571D01*
X116850952Y-148939047D01*
X116898571Y-149034285D01*
X116946190Y-149081904D01*
X117041428Y-149129523D01*
X117231904Y-149129523D01*
X117327142Y-149081904D01*
X117374761Y-149034285D01*
X117422380Y-148939047D01*
X117422380Y-148748571D01*
X117374761Y-148653333D01*
X117327142Y-148605714D01*
X117231904Y-148558095D01*
X117041428Y-148558095D01*
X116946190Y-148605714D01*
X116898571Y-148653333D01*
X116850952Y-148748571D01*
X117422380Y-163734285D02*
X116422380Y-163734285D01*
X117422380Y-163162857D02*
X116850952Y-163591428D01*
X116422380Y-163162857D02*
X116993809Y-163734285D01*
X116517619Y-162781904D02*
X116470000Y-162734285D01*
X116422380Y-162639047D01*
X116422380Y-162400952D01*
X116470000Y-162305714D01*
X116517619Y-162258095D01*
X116612857Y-162210476D01*
X116708095Y-162210476D01*
X116850952Y-162258095D01*
X117422380Y-162829523D01*
X117422380Y-162210476D01*
X116422380Y-161877142D02*
X116422380Y-161210476D01*
X117422380Y-161639047D01*
X117422380Y-176434285D02*
X116422380Y-176434285D01*
X117422380Y-175862857D02*
X116850952Y-176291428D01*
X116422380Y-175862857D02*
X116993809Y-176434285D01*
X116517619Y-175481904D02*
X116470000Y-175434285D01*
X116422380Y-175339047D01*
X116422380Y-175100952D01*
X116470000Y-175005714D01*
X116517619Y-174958095D01*
X116612857Y-174910476D01*
X116708095Y-174910476D01*
X116850952Y-174958095D01*
X117422380Y-175529523D01*
X117422380Y-174910476D01*
X116422380Y-174053333D02*
X116422380Y-174243809D01*
X116470000Y-174339047D01*
X116517619Y-174386666D01*
X116660476Y-174481904D01*
X116850952Y-174529523D01*
X117231904Y-174529523D01*
X117327142Y-174481904D01*
X117374761Y-174434285D01*
X117422380Y-174339047D01*
X117422380Y-174148571D01*
X117374761Y-174053333D01*
X117327142Y-174005714D01*
X117231904Y-173958095D01*
X116993809Y-173958095D01*
X116898571Y-174005714D01*
X116850952Y-174053333D01*
X116803333Y-174148571D01*
X116803333Y-174339047D01*
X116850952Y-174434285D01*
X116898571Y-174481904D01*
X116993809Y-174529523D01*
X117422380Y-189134285D02*
X116422380Y-189134285D01*
X117422380Y-188562857D02*
X116850952Y-188991428D01*
X116422380Y-188562857D02*
X116993809Y-189134285D01*
X116517619Y-188181904D02*
X116470000Y-188134285D01*
X116422380Y-188039047D01*
X116422380Y-187800952D01*
X116470000Y-187705714D01*
X116517619Y-187658095D01*
X116612857Y-187610476D01*
X116708095Y-187610476D01*
X116850952Y-187658095D01*
X117422380Y-188229523D01*
X117422380Y-187610476D01*
X116422380Y-186705714D02*
X116422380Y-187181904D01*
X116898571Y-187229523D01*
X116850952Y-187181904D01*
X116803333Y-187086666D01*
X116803333Y-186848571D01*
X116850952Y-186753333D01*
X116898571Y-186705714D01*
X116993809Y-186658095D01*
X117231904Y-186658095D01*
X117327142Y-186705714D01*
X117374761Y-186753333D01*
X117422380Y-186848571D01*
X117422380Y-187086666D01*
X117374761Y-187181904D01*
X117327142Y-187229523D01*
X117422380Y-201834285D02*
X116422380Y-201834285D01*
X117422380Y-201262857D02*
X116850952Y-201691428D01*
X116422380Y-201262857D02*
X116993809Y-201834285D01*
X116517619Y-200881904D02*
X116470000Y-200834285D01*
X116422380Y-200739047D01*
X116422380Y-200500952D01*
X116470000Y-200405714D01*
X116517619Y-200358095D01*
X116612857Y-200310476D01*
X116708095Y-200310476D01*
X116850952Y-200358095D01*
X117422380Y-200929523D01*
X117422380Y-200310476D01*
X116755714Y-199453333D02*
X117422380Y-199453333D01*
X116374761Y-199691428D02*
X117089047Y-199929523D01*
X117089047Y-199310476D01*
X117422380Y-214534285D02*
X116422380Y-214534285D01*
X117422380Y-213962857D02*
X116850952Y-214391428D01*
X116422380Y-213962857D02*
X116993809Y-214534285D01*
X116517619Y-213581904D02*
X116470000Y-213534285D01*
X116422380Y-213439047D01*
X116422380Y-213200952D01*
X116470000Y-213105714D01*
X116517619Y-213058095D01*
X116612857Y-213010476D01*
X116708095Y-213010476D01*
X116850952Y-213058095D01*
X117422380Y-213629523D01*
X117422380Y-213010476D01*
X116422380Y-212677142D02*
X116422380Y-212058095D01*
X116803333Y-212391428D01*
X116803333Y-212248571D01*
X116850952Y-212153333D01*
X116898571Y-212105714D01*
X116993809Y-212058095D01*
X117231904Y-212058095D01*
X117327142Y-212105714D01*
X117374761Y-212153333D01*
X117422380Y-212248571D01*
X117422380Y-212534285D01*
X117374761Y-212629523D01*
X117327142Y-212677142D01*
X117422380Y-227234285D02*
X116422380Y-227234285D01*
X117422380Y-226662857D02*
X116850952Y-227091428D01*
X116422380Y-226662857D02*
X116993809Y-227234285D01*
X116517619Y-226281904D02*
X116470000Y-226234285D01*
X116422380Y-226139047D01*
X116422380Y-225900952D01*
X116470000Y-225805714D01*
X116517619Y-225758095D01*
X116612857Y-225710476D01*
X116708095Y-225710476D01*
X116850952Y-225758095D01*
X117422380Y-226329523D01*
X117422380Y-225710476D01*
X116517619Y-225329523D02*
X116470000Y-225281904D01*
X116422380Y-225186666D01*
X116422380Y-224948571D01*
X116470000Y-224853333D01*
X116517619Y-224805714D01*
X116612857Y-224758095D01*
X116708095Y-224758095D01*
X116850952Y-224805714D01*
X117422380Y-225377142D01*
X117422380Y-224758095D01*
X117422380Y-239934285D02*
X116422380Y-239934285D01*
X117422380Y-239362857D02*
X116850952Y-239791428D01*
X116422380Y-239362857D02*
X116993809Y-239934285D01*
X116517619Y-238981904D02*
X116470000Y-238934285D01*
X116422380Y-238839047D01*
X116422380Y-238600952D01*
X116470000Y-238505714D01*
X116517619Y-238458095D01*
X116612857Y-238410476D01*
X116708095Y-238410476D01*
X116850952Y-238458095D01*
X117422380Y-239029523D01*
X117422380Y-238410476D01*
X117422380Y-237458095D02*
X117422380Y-238029523D01*
X117422380Y-237743809D02*
X116422380Y-237743809D01*
X116565238Y-237839047D01*
X116660476Y-237934285D01*
X116708095Y-238029523D01*
X67422380Y1365714D02*
X66422380Y1365714D01*
X67422380Y1937142D02*
X66850952Y1508571D01*
X66422380Y1937142D02*
X66993809Y1365714D01*
X66517619Y2318095D02*
X66470000Y2365714D01*
X66422380Y2460952D01*
X66422380Y2699047D01*
X66470000Y2794285D01*
X66517619Y2841904D01*
X66612857Y2889523D01*
X66708095Y2889523D01*
X66850952Y2841904D01*
X67422380Y2270476D01*
X67422380Y2889523D01*
X66422380Y3508571D02*
X66422380Y3603809D01*
X66470000Y3699047D01*
X66517619Y3746666D01*
X66612857Y3794285D01*
X66803333Y3841904D01*
X67041428Y3841904D01*
X67231904Y3794285D01*
X67327142Y3746666D01*
X67374761Y3699047D01*
X67422380Y3603809D01*
X67422380Y3508571D01*
X67374761Y3413333D01*
X67327142Y3365714D01*
X67231904Y3318095D01*
X67041428Y3270476D01*
X66803333Y3270476D01*
X66612857Y3318095D01*
X66517619Y3365714D01*
X66470000Y3413333D01*
X66422380Y3508571D01*
X67422380Y-11334285D02*
X66422380Y-11334285D01*
X67422380Y-10762857D02*
X66850952Y-11191428D01*
X66422380Y-10762857D02*
X66993809Y-11334285D01*
X67422380Y-9810476D02*
X67422380Y-10381904D01*
X67422380Y-10096190D02*
X66422380Y-10096190D01*
X66565238Y-10191428D01*
X66660476Y-10286666D01*
X66708095Y-10381904D01*
X67422380Y-9334285D02*
X67422380Y-9143809D01*
X67374761Y-9048571D01*
X67327142Y-9000952D01*
X67184285Y-8905714D01*
X66993809Y-8858095D01*
X66612857Y-8858095D01*
X66517619Y-8905714D01*
X66470000Y-8953333D01*
X66422380Y-9048571D01*
X66422380Y-9239047D01*
X66470000Y-9334285D01*
X66517619Y-9381904D01*
X66612857Y-9429523D01*
X66850952Y-9429523D01*
X66946190Y-9381904D01*
X66993809Y-9334285D01*
X67041428Y-9239047D01*
X67041428Y-9048571D01*
X66993809Y-8953333D01*
X66946190Y-8905714D01*
X66850952Y-8858095D01*
X67422380Y-24034285D02*
X66422380Y-24034285D01*
X67422380Y-23462857D02*
X66850952Y-23891428D01*
X66422380Y-23462857D02*
X66993809Y-24034285D01*
X67422380Y-22510476D02*
X67422380Y-23081904D01*
X67422380Y-22796190D02*
X66422380Y-22796190D01*
X66565238Y-22891428D01*
X66660476Y-22986666D01*
X66708095Y-23081904D01*
X66850952Y-21939047D02*
X66803333Y-22034285D01*
X66755714Y-22081904D01*
X66660476Y-22129523D01*
X66612857Y-22129523D01*
X66517619Y-22081904D01*
X66470000Y-22034285D01*
X66422380Y-21939047D01*
X66422380Y-21748571D01*
X66470000Y-21653333D01*
X66517619Y-21605714D01*
X66612857Y-21558095D01*
X66660476Y-21558095D01*
X66755714Y-21605714D01*
X66803333Y-21653333D01*
X66850952Y-21748571D01*
X66850952Y-21939047D01*
X66898571Y-22034285D01*
X66946190Y-22081904D01*
X67041428Y-22129523D01*
X67231904Y-22129523D01*
X67327142Y-22081904D01*
X67374761Y-22034285D01*
X67422380Y-21939047D01*
X67422380Y-21748571D01*
X67374761Y-21653333D01*
X67327142Y-21605714D01*
X67231904Y-21558095D01*
X67041428Y-21558095D01*
X66946190Y-21605714D01*
X66898571Y-21653333D01*
X66850952Y-21748571D01*
X67422380Y-36734285D02*
X66422380Y-36734285D01*
X67422380Y-36162857D02*
X66850952Y-36591428D01*
X66422380Y-36162857D02*
X66993809Y-36734285D01*
X67422380Y-35210476D02*
X67422380Y-35781904D01*
X67422380Y-35496190D02*
X66422380Y-35496190D01*
X66565238Y-35591428D01*
X66660476Y-35686666D01*
X66708095Y-35781904D01*
X66422380Y-34877142D02*
X66422380Y-34210476D01*
X67422380Y-34639047D01*
X67422380Y-49434285D02*
X66422380Y-49434285D01*
X67422380Y-48862857D02*
X66850952Y-49291428D01*
X66422380Y-48862857D02*
X66993809Y-49434285D01*
X67422380Y-47910476D02*
X67422380Y-48481904D01*
X67422380Y-48196190D02*
X66422380Y-48196190D01*
X66565238Y-48291428D01*
X66660476Y-48386666D01*
X66708095Y-48481904D01*
X66422380Y-47053333D02*
X66422380Y-47243809D01*
X66470000Y-47339047D01*
X66517619Y-47386666D01*
X66660476Y-47481904D01*
X66850952Y-47529523D01*
X67231904Y-47529523D01*
X67327142Y-47481904D01*
X67374761Y-47434285D01*
X67422380Y-47339047D01*
X67422380Y-47148571D01*
X67374761Y-47053333D01*
X67327142Y-47005714D01*
X67231904Y-46958095D01*
X66993809Y-46958095D01*
X66898571Y-47005714D01*
X66850952Y-47053333D01*
X66803333Y-47148571D01*
X66803333Y-47339047D01*
X66850952Y-47434285D01*
X66898571Y-47481904D01*
X66993809Y-47529523D01*
X67422380Y-62134285D02*
X66422380Y-62134285D01*
X67422380Y-61562857D02*
X66850952Y-61991428D01*
X66422380Y-61562857D02*
X66993809Y-62134285D01*
X67422380Y-60610476D02*
X67422380Y-61181904D01*
X67422380Y-60896190D02*
X66422380Y-60896190D01*
X66565238Y-60991428D01*
X66660476Y-61086666D01*
X66708095Y-61181904D01*
X66422380Y-59705714D02*
X66422380Y-60181904D01*
X66898571Y-60229523D01*
X66850952Y-60181904D01*
X66803333Y-60086666D01*
X66803333Y-59848571D01*
X66850952Y-59753333D01*
X66898571Y-59705714D01*
X66993809Y-59658095D01*
X67231904Y-59658095D01*
X67327142Y-59705714D01*
X67374761Y-59753333D01*
X67422380Y-59848571D01*
X67422380Y-60086666D01*
X67374761Y-60181904D01*
X67327142Y-60229523D01*
X67422380Y-74834285D02*
X66422380Y-74834285D01*
X67422380Y-74262857D02*
X66850952Y-74691428D01*
X66422380Y-74262857D02*
X66993809Y-74834285D01*
X67422380Y-73310476D02*
X67422380Y-73881904D01*
X67422380Y-73596190D02*
X66422380Y-73596190D01*
X66565238Y-73691428D01*
X66660476Y-73786666D01*
X66708095Y-73881904D01*
X66755714Y-72453333D02*
X67422380Y-72453333D01*
X66374761Y-72691428D02*
X67089047Y-72929523D01*
X67089047Y-72310476D01*
X67422380Y-87534285D02*
X66422380Y-87534285D01*
X67422380Y-86962857D02*
X66850952Y-87391428D01*
X66422380Y-86962857D02*
X66993809Y-87534285D01*
X67422380Y-86010476D02*
X67422380Y-86581904D01*
X67422380Y-86296190D02*
X66422380Y-86296190D01*
X66565238Y-86391428D01*
X66660476Y-86486666D01*
X66708095Y-86581904D01*
X66422380Y-85677142D02*
X66422380Y-85058095D01*
X66803333Y-85391428D01*
X66803333Y-85248571D01*
X66850952Y-85153333D01*
X66898571Y-85105714D01*
X66993809Y-85058095D01*
X67231904Y-85058095D01*
X67327142Y-85105714D01*
X67374761Y-85153333D01*
X67422380Y-85248571D01*
X67422380Y-85534285D01*
X67374761Y-85629523D01*
X67327142Y-85677142D01*
X67422380Y-100234285D02*
X66422380Y-100234285D01*
X67422380Y-99662857D02*
X66850952Y-100091428D01*
X66422380Y-99662857D02*
X66993809Y-100234285D01*
X67422380Y-98710476D02*
X67422380Y-99281904D01*
X67422380Y-98996190D02*
X66422380Y-98996190D01*
X66565238Y-99091428D01*
X66660476Y-99186666D01*
X66708095Y-99281904D01*
X66517619Y-98329523D02*
X66470000Y-98281904D01*
X66422380Y-98186666D01*
X66422380Y-97948571D01*
X66470000Y-97853333D01*
X66517619Y-97805714D01*
X66612857Y-97758095D01*
X66708095Y-97758095D01*
X66850952Y-97805714D01*
X67422380Y-98377142D01*
X67422380Y-97758095D01*
X67422380Y-112934285D02*
X66422380Y-112934285D01*
X67422380Y-112362857D02*
X66850952Y-112791428D01*
X66422380Y-112362857D02*
X66993809Y-112934285D01*
X67422380Y-111410476D02*
X67422380Y-111981904D01*
X67422380Y-111696190D02*
X66422380Y-111696190D01*
X66565238Y-111791428D01*
X66660476Y-111886666D01*
X66708095Y-111981904D01*
X67422380Y-110458095D02*
X67422380Y-111029523D01*
X67422380Y-110743809D02*
X66422380Y-110743809D01*
X66565238Y-110839047D01*
X66660476Y-110934285D01*
X66708095Y-111029523D01*
X67422380Y-125634285D02*
X66422380Y-125634285D01*
X67422380Y-125062857D02*
X66850952Y-125491428D01*
X66422380Y-125062857D02*
X66993809Y-125634285D01*
X67422380Y-124110476D02*
X67422380Y-124681904D01*
X67422380Y-124396190D02*
X66422380Y-124396190D01*
X66565238Y-124491428D01*
X66660476Y-124586666D01*
X66708095Y-124681904D01*
X66422380Y-123491428D02*
X66422380Y-123396190D01*
X66470000Y-123300952D01*
X66517619Y-123253333D01*
X66612857Y-123205714D01*
X66803333Y-123158095D01*
X67041428Y-123158095D01*
X67231904Y-123205714D01*
X67327142Y-123253333D01*
X67374761Y-123300952D01*
X67422380Y-123396190D01*
X67422380Y-123491428D01*
X67374761Y-123586666D01*
X67327142Y-123634285D01*
X67231904Y-123681904D01*
X67041428Y-123729523D01*
X66803333Y-123729523D01*
X66612857Y-123681904D01*
X66517619Y-123634285D01*
X66470000Y-123586666D01*
X66422380Y-123491428D01*
X67422380Y-137858095D02*
X66422380Y-137858095D01*
X67422380Y-137286666D02*
X66850952Y-137715238D01*
X66422380Y-137286666D02*
X66993809Y-137858095D01*
X67422380Y-136810476D02*
X67422380Y-136620000D01*
X67374761Y-136524761D01*
X67327142Y-136477142D01*
X67184285Y-136381904D01*
X66993809Y-136334285D01*
X66612857Y-136334285D01*
X66517619Y-136381904D01*
X66470000Y-136429523D01*
X66422380Y-136524761D01*
X66422380Y-136715238D01*
X66470000Y-136810476D01*
X66517619Y-136858095D01*
X66612857Y-136905714D01*
X66850952Y-136905714D01*
X66946190Y-136858095D01*
X66993809Y-136810476D01*
X67041428Y-136715238D01*
X67041428Y-136524761D01*
X66993809Y-136429523D01*
X66946190Y-136381904D01*
X66850952Y-136334285D01*
X67422380Y-150558095D02*
X66422380Y-150558095D01*
X67422380Y-149986666D02*
X66850952Y-150415238D01*
X66422380Y-149986666D02*
X66993809Y-150558095D01*
X66850952Y-149415238D02*
X66803333Y-149510476D01*
X66755714Y-149558095D01*
X66660476Y-149605714D01*
X66612857Y-149605714D01*
X66517619Y-149558095D01*
X66470000Y-149510476D01*
X66422380Y-149415238D01*
X66422380Y-149224761D01*
X66470000Y-149129523D01*
X66517619Y-149081904D01*
X66612857Y-149034285D01*
X66660476Y-149034285D01*
X66755714Y-149081904D01*
X66803333Y-149129523D01*
X66850952Y-149224761D01*
X66850952Y-149415238D01*
X66898571Y-149510476D01*
X66946190Y-149558095D01*
X67041428Y-149605714D01*
X67231904Y-149605714D01*
X67327142Y-149558095D01*
X67374761Y-149510476D01*
X67422380Y-149415238D01*
X67422380Y-149224761D01*
X67374761Y-149129523D01*
X67327142Y-149081904D01*
X67231904Y-149034285D01*
X67041428Y-149034285D01*
X66946190Y-149081904D01*
X66898571Y-149129523D01*
X66850952Y-149224761D01*
X67422380Y-163258095D02*
X66422380Y-163258095D01*
X67422380Y-162686666D02*
X66850952Y-163115238D01*
X66422380Y-162686666D02*
X66993809Y-163258095D01*
X66422380Y-162353333D02*
X66422380Y-161686666D01*
X67422380Y-162115238D01*
X67422380Y-175958095D02*
X66422380Y-175958095D01*
X67422380Y-175386666D02*
X66850952Y-175815238D01*
X66422380Y-175386666D02*
X66993809Y-175958095D01*
X66422380Y-174529523D02*
X66422380Y-174720000D01*
X66470000Y-174815238D01*
X66517619Y-174862857D01*
X66660476Y-174958095D01*
X66850952Y-175005714D01*
X67231904Y-175005714D01*
X67327142Y-174958095D01*
X67374761Y-174910476D01*
X67422380Y-174815238D01*
X67422380Y-174624761D01*
X67374761Y-174529523D01*
X67327142Y-174481904D01*
X67231904Y-174434285D01*
X66993809Y-174434285D01*
X66898571Y-174481904D01*
X66850952Y-174529523D01*
X66803333Y-174624761D01*
X66803333Y-174815238D01*
X66850952Y-174910476D01*
X66898571Y-174958095D01*
X66993809Y-175005714D01*
X67422380Y-188658095D02*
X66422380Y-188658095D01*
X67422380Y-188086666D02*
X66850952Y-188515238D01*
X66422380Y-188086666D02*
X66993809Y-188658095D01*
X66422380Y-187181904D02*
X66422380Y-187658095D01*
X66898571Y-187705714D01*
X66850952Y-187658095D01*
X66803333Y-187562857D01*
X66803333Y-187324761D01*
X66850952Y-187229523D01*
X66898571Y-187181904D01*
X66993809Y-187134285D01*
X67231904Y-187134285D01*
X67327142Y-187181904D01*
X67374761Y-187229523D01*
X67422380Y-187324761D01*
X67422380Y-187562857D01*
X67374761Y-187658095D01*
X67327142Y-187705714D01*
X67422380Y-201358095D02*
X66422380Y-201358095D01*
X67422380Y-200786666D02*
X66850952Y-201215238D01*
X66422380Y-200786666D02*
X66993809Y-201358095D01*
X66755714Y-199929523D02*
X67422380Y-199929523D01*
X66374761Y-200167619D02*
X67089047Y-200405714D01*
X67089047Y-199786666D01*
X67422380Y-214058095D02*
X66422380Y-214058095D01*
X67422380Y-213486666D02*
X66850952Y-213915238D01*
X66422380Y-213486666D02*
X66993809Y-214058095D01*
X66422380Y-213153333D02*
X66422380Y-212534285D01*
X66803333Y-212867619D01*
X66803333Y-212724761D01*
X66850952Y-212629523D01*
X66898571Y-212581904D01*
X66993809Y-212534285D01*
X67231904Y-212534285D01*
X67327142Y-212581904D01*
X67374761Y-212629523D01*
X67422380Y-212724761D01*
X67422380Y-213010476D01*
X67374761Y-213105714D01*
X67327142Y-213153333D01*
X67422380Y-226758095D02*
X66422380Y-226758095D01*
X67422380Y-226186666D02*
X66850952Y-226615238D01*
X66422380Y-226186666D02*
X66993809Y-226758095D01*
X66517619Y-225805714D02*
X66470000Y-225758095D01*
X66422380Y-225662857D01*
X66422380Y-225424761D01*
X66470000Y-225329523D01*
X66517619Y-225281904D01*
X66612857Y-225234285D01*
X66708095Y-225234285D01*
X66850952Y-225281904D01*
X67422380Y-225853333D01*
X67422380Y-225234285D01*
X67422380Y-239458095D02*
X66422380Y-239458095D01*
X67422380Y-238886666D02*
X66850952Y-239315238D01*
X66422380Y-238886666D02*
X66993809Y-239458095D01*
X67422380Y-237934285D02*
X67422380Y-238505714D01*
X67422380Y-238220000D02*
X66422380Y-238220000D01*
X66565238Y-238315238D01*
X66660476Y-238410476D01*
X66708095Y-238505714D01*
X158623095Y-114752380D02*
X158623095Y-113752380D01*
X158623095Y-114228571D02*
X159194523Y-114228571D01*
X159194523Y-114752380D02*
X159194523Y-113752380D01*
X160099285Y-113752380D02*
X159908809Y-113752380D01*
X159813571Y-113800000D01*
X159765952Y-113847619D01*
X159670714Y-113990476D01*
X159623095Y-114180952D01*
X159623095Y-114561904D01*
X159670714Y-114657142D01*
X159718333Y-114704761D01*
X159813571Y-114752380D01*
X160004047Y-114752380D01*
X160099285Y-114704761D01*
X160146904Y-114657142D01*
X160194523Y-114561904D01*
X160194523Y-114323809D01*
X160146904Y-114228571D01*
X160099285Y-114180952D01*
X160004047Y-114133333D01*
X159813571Y-114133333D01*
X159718333Y-114180952D01*
X159670714Y-114228571D01*
X159623095Y-114323809D01*
X3683095Y-114752380D02*
X3683095Y-113752380D01*
X3683095Y-114228571D02*
X4254523Y-114228571D01*
X4254523Y-114752380D02*
X4254523Y-113752380D01*
X5206904Y-113752380D02*
X4730714Y-113752380D01*
X4683095Y-114228571D01*
X4730714Y-114180952D01*
X4825952Y-114133333D01*
X5064047Y-114133333D01*
X5159285Y-114180952D01*
X5206904Y-114228571D01*
X5254523Y-114323809D01*
X5254523Y-114561904D01*
X5206904Y-114657142D01*
X5159285Y-114704761D01*
X5064047Y-114752380D01*
X4825952Y-114752380D01*
X4730714Y-114704761D01*
X4683095Y-114657142D01*
X165608095Y19232619D02*
X165608095Y20232619D01*
X165608095Y19756428D02*
X166179523Y19756428D01*
X166179523Y19232619D02*
X166179523Y20232619D01*
X167084285Y19899285D02*
X167084285Y19232619D01*
X166846190Y20280238D02*
X166608095Y19565952D01*
X167227142Y19565952D01*
X-3301904Y19232619D02*
X-3301904Y20232619D01*
X-3301904Y19756428D02*
X-2730476Y19756428D01*
X-2730476Y19232619D02*
X-2730476Y20232619D01*
X-2349523Y20232619D02*
X-1730476Y20232619D01*
X-2063809Y19851666D01*
X-1920952Y19851666D01*
X-1825714Y19804047D01*
X-1778095Y19756428D01*
X-1730476Y19661190D01*
X-1730476Y19423095D01*
X-1778095Y19327857D01*
X-1825714Y19280238D01*
X-1920952Y19232619D01*
X-2206666Y19232619D01*
X-2301904Y19280238D01*
X-2349523Y19327857D01*
X-3301904Y-239212380D02*
X-3301904Y-238212380D01*
X-3301904Y-238688571D02*
X-2730476Y-238688571D01*
X-2730476Y-239212380D02*
X-2730476Y-238212380D01*
X-2301904Y-238307619D02*
X-2254285Y-238260000D01*
X-2159047Y-238212380D01*
X-1920952Y-238212380D01*
X-1825714Y-238260000D01*
X-1778095Y-238307619D01*
X-1730476Y-238402857D01*
X-1730476Y-238498095D01*
X-1778095Y-238640952D01*
X-2349523Y-239212380D01*
X-1730476Y-239212380D01*
X165608095Y-239212380D02*
X165608095Y-238212380D01*
X165608095Y-238688571D02*
X166179523Y-238688571D01*
X166179523Y-239212380D02*
X166179523Y-238212380D01*
X167179523Y-239212380D02*
X166608095Y-239212380D01*
X166893809Y-239212380D02*
X166893809Y-238212380D01*
X166798571Y-238355238D01*
X166703333Y-238450476D01*
X166608095Y-238498095D01*
X15041666Y-192282380D02*
X15041666Y-192996666D01*
X14994047Y-193139523D01*
X14898809Y-193234761D01*
X14755952Y-193282380D01*
X14660714Y-193282380D01*
X15517857Y-193282380D02*
X15517857Y-192282380D01*
X15898809Y-192282380D01*
X15994047Y-192330000D01*
X16041666Y-192377619D01*
X16089285Y-192472857D01*
X16089285Y-192615714D01*
X16041666Y-192710952D01*
X15994047Y-192758571D01*
X15898809Y-192806190D01*
X15517857Y-192806190D01*
X16946428Y-192615714D02*
X16946428Y-193282380D01*
X16708333Y-192234761D02*
X16470238Y-192949047D01*
X17089285Y-192949047D01*
X21256666Y-38672380D02*
X21256666Y-39386666D01*
X21209047Y-39529523D01*
X21113809Y-39624761D01*
X20970952Y-39672380D01*
X20875714Y-39672380D01*
X21637619Y-38672380D02*
X22256666Y-38672380D01*
X21923333Y-39053333D01*
X22066190Y-39053333D01*
X22161428Y-39100952D01*
X22209047Y-39148571D01*
X22256666Y-39243809D01*
X22256666Y-39481904D01*
X22209047Y-39577142D01*
X22161428Y-39624761D01*
X22066190Y-39672380D01*
X21780476Y-39672380D01*
X21685238Y-39624761D01*
X21637619Y-39577142D01*
X7016666Y-212022380D02*
X7016666Y-212736666D01*
X6969047Y-212879523D01*
X6873809Y-212974761D01*
X6730952Y-213022380D01*
X6635714Y-213022380D01*
X7540476Y-213022380D02*
X7730952Y-213022380D01*
X7826190Y-212974761D01*
X7873809Y-212927142D01*
X7969047Y-212784285D01*
X8016666Y-212593809D01*
X8016666Y-212212857D01*
X7969047Y-212117619D01*
X7921428Y-212070000D01*
X7826190Y-212022380D01*
X7635714Y-212022380D01*
X7540476Y-212070000D01*
X7492857Y-212117619D01*
X7445238Y-212212857D01*
X7445238Y-212450952D01*
X7492857Y-212546190D01*
X7540476Y-212593809D01*
X7635714Y-212641428D01*
X7826190Y-212641428D01*
X7921428Y-212593809D01*
X7969047Y-212546190D01*
X8016666Y-212450952D01*
X21256666Y-19622380D02*
X21256666Y-20336666D01*
X21209047Y-20479523D01*
X21113809Y-20574761D01*
X20970952Y-20622380D01*
X20875714Y-20622380D01*
X22209047Y-19622380D02*
X21732857Y-19622380D01*
X21685238Y-20098571D01*
X21732857Y-20050952D01*
X21828095Y-20003333D01*
X22066190Y-20003333D01*
X22161428Y-20050952D01*
X22209047Y-20098571D01*
X22256666Y-20193809D01*
X22256666Y-20431904D01*
X22209047Y-20527142D01*
X22161428Y-20574761D01*
X22066190Y-20622380D01*
X21828095Y-20622380D01*
X21732857Y-20574761D01*
X21685238Y-20527142D01*
X11263333Y-37347142D02*
X11215714Y-37394761D01*
X11072857Y-37442380D01*
X10977619Y-37442380D01*
X10834761Y-37394761D01*
X10739523Y-37299523D01*
X10691904Y-37204285D01*
X10644285Y-37013809D01*
X10644285Y-36870952D01*
X10691904Y-36680476D01*
X10739523Y-36585238D01*
X10834761Y-36490000D01*
X10977619Y-36442380D01*
X11072857Y-36442380D01*
X11215714Y-36490000D01*
X11263333Y-36537619D01*
X11596666Y-36442380D02*
X12215714Y-36442380D01*
X11882380Y-36823333D01*
X12025238Y-36823333D01*
X12120476Y-36870952D01*
X12168095Y-36918571D01*
X12215714Y-37013809D01*
X12215714Y-37251904D01*
X12168095Y-37347142D01*
X12120476Y-37394761D01*
X12025238Y-37442380D01*
X11739523Y-37442380D01*
X11644285Y-37394761D01*
X11596666Y-37347142D01*
X163562380Y-201289523D02*
X164276666Y-201289523D01*
X164419523Y-201337142D01*
X164514761Y-201432380D01*
X164562380Y-201575238D01*
X164562380Y-201670476D01*
X164562380Y-200289523D02*
X164562380Y-200860952D01*
X164562380Y-200575238D02*
X163562380Y-200575238D01*
X163705238Y-200670476D01*
X163800476Y-200765714D01*
X163848095Y-200860952D01*
X163562380Y-199956190D02*
X163562380Y-199337142D01*
X163943333Y-199670476D01*
X163943333Y-199527619D01*
X163990952Y-199432380D01*
X164038571Y-199384761D01*
X164133809Y-199337142D01*
X164371904Y-199337142D01*
X164467142Y-199384761D01*
X164514761Y-199432380D01*
X164562380Y-199527619D01*
X164562380Y-199813333D01*
X164514761Y-199908571D01*
X164467142Y-199956190D01*
X2206666Y-572380D02*
X2206666Y-1286666D01*
X2159047Y-1429523D01*
X2063809Y-1524761D01*
X1920952Y-1572380D01*
X1825714Y-1572380D01*
X3111428Y-905714D02*
X3111428Y-1572380D01*
X2873333Y-524761D02*
X2635238Y-1239047D01*
X3254285Y-1239047D01*
X2206666Y-19622380D02*
X2206666Y-20336666D01*
X2159047Y-20479523D01*
X2063809Y-20574761D01*
X1920952Y-20622380D01*
X1825714Y-20622380D01*
X2825714Y-20050952D02*
X2730476Y-20003333D01*
X2682857Y-19955714D01*
X2635238Y-19860476D01*
X2635238Y-19812857D01*
X2682857Y-19717619D01*
X2730476Y-19670000D01*
X2825714Y-19622380D01*
X3016190Y-19622380D01*
X3111428Y-19670000D01*
X3159047Y-19717619D01*
X3206666Y-19812857D01*
X3206666Y-19860476D01*
X3159047Y-19955714D01*
X3111428Y-20003333D01*
X3016190Y-20050952D01*
X2825714Y-20050952D01*
X2730476Y-20098571D01*
X2682857Y-20146190D01*
X2635238Y-20241428D01*
X2635238Y-20431904D01*
X2682857Y-20527142D01*
X2730476Y-20574761D01*
X2825714Y-20622380D01*
X3016190Y-20622380D01*
X3111428Y-20574761D01*
X3159047Y-20527142D01*
X3206666Y-20431904D01*
X3206666Y-20241428D01*
X3159047Y-20146190D01*
X3111428Y-20098571D01*
X3016190Y-20050952D01*
X2206666Y-38672380D02*
X2206666Y-39386666D01*
X2159047Y-39529523D01*
X2063809Y-39624761D01*
X1920952Y-39672380D01*
X1825714Y-39672380D01*
X3111428Y-38672380D02*
X2920952Y-38672380D01*
X2825714Y-38720000D01*
X2778095Y-38767619D01*
X2682857Y-38910476D01*
X2635238Y-39100952D01*
X2635238Y-39481904D01*
X2682857Y-39577142D01*
X2730476Y-39624761D01*
X2825714Y-39672380D01*
X3016190Y-39672380D01*
X3111428Y-39624761D01*
X3159047Y-39577142D01*
X3206666Y-39481904D01*
X3206666Y-39243809D01*
X3159047Y-39148571D01*
X3111428Y-39100952D01*
X3016190Y-39053333D01*
X2825714Y-39053333D01*
X2730476Y-39100952D01*
X2682857Y-39148571D01*
X2635238Y-39243809D01*
X141732380Y-4599523D02*
X142446666Y-4599523D01*
X142589523Y-4647142D01*
X142684761Y-4742380D01*
X142732380Y-4885238D01*
X142732380Y-4980476D01*
X142732380Y-3599523D02*
X142732380Y-4170952D01*
X142732380Y-3885238D02*
X141732380Y-3885238D01*
X141875238Y-3980476D01*
X141970476Y-4075714D01*
X142018095Y-4170952D01*
X142065714Y-2742380D02*
X142732380Y-2742380D01*
X141684761Y-2980476D02*
X142399047Y-3218571D01*
X142399047Y-2599523D01*
X21256666Y-572380D02*
X21256666Y-1286666D01*
X21209047Y-1429523D01*
X21113809Y-1524761D01*
X20970952Y-1572380D01*
X20875714Y-1572380D01*
X21637619Y-572380D02*
X22304285Y-572380D01*
X21875714Y-1572380D01*
X11263333Y-55127142D02*
X11215714Y-55174761D01*
X11072857Y-55222380D01*
X10977619Y-55222380D01*
X10834761Y-55174761D01*
X10739523Y-55079523D01*
X10691904Y-54984285D01*
X10644285Y-54793809D01*
X10644285Y-54650952D01*
X10691904Y-54460476D01*
X10739523Y-54365238D01*
X10834761Y-54270000D01*
X10977619Y-54222380D01*
X11072857Y-54222380D01*
X11215714Y-54270000D01*
X11263333Y-54317619D01*
X12215714Y-55222380D02*
X11644285Y-55222380D01*
X11930000Y-55222380D02*
X11930000Y-54222380D01*
X11834761Y-54365238D01*
X11739523Y-54460476D01*
X11644285Y-54508095D01*
X68652380Y-243308095D02*
X67652380Y-243308095D01*
X67652380Y-243070000D01*
X67700000Y-242927142D01*
X67795238Y-242831904D01*
X67890476Y-242784285D01*
X68080952Y-242736666D01*
X68223809Y-242736666D01*
X68414285Y-242784285D01*
X68509523Y-242831904D01*
X68604761Y-242927142D01*
X68652380Y-243070000D01*
X68652380Y-243308095D01*
X68652380Y-241784285D02*
X68652380Y-242355714D01*
X68652380Y-242070000D02*
X67652380Y-242070000D01*
X67795238Y-242165238D01*
X67890476Y-242260476D01*
X67938095Y-242355714D01*
X68652380Y-230608095D02*
X67652380Y-230608095D01*
X67652380Y-230370000D01*
X67700000Y-230227142D01*
X67795238Y-230131904D01*
X67890476Y-230084285D01*
X68080952Y-230036666D01*
X68223809Y-230036666D01*
X68414285Y-230084285D01*
X68509523Y-230131904D01*
X68604761Y-230227142D01*
X68652380Y-230370000D01*
X68652380Y-230608095D01*
X67747619Y-229655714D02*
X67700000Y-229608095D01*
X67652380Y-229512857D01*
X67652380Y-229274761D01*
X67700000Y-229179523D01*
X67747619Y-229131904D01*
X67842857Y-229084285D01*
X67938095Y-229084285D01*
X68080952Y-229131904D01*
X68652380Y-229703333D01*
X68652380Y-229084285D01*
X68524380Y-218083595D02*
X67524380Y-218083595D01*
X67524380Y-217845500D01*
X67572000Y-217702642D01*
X67667238Y-217607404D01*
X67762476Y-217559785D01*
X67952952Y-217512166D01*
X68095809Y-217512166D01*
X68286285Y-217559785D01*
X68381523Y-217607404D01*
X68476761Y-217702642D01*
X68524380Y-217845500D01*
X68524380Y-218083595D01*
X67524380Y-217178833D02*
X67524380Y-216559785D01*
X67905333Y-216893119D01*
X67905333Y-216750261D01*
X67952952Y-216655023D01*
X68000571Y-216607404D01*
X68095809Y-216559785D01*
X68333904Y-216559785D01*
X68429142Y-216607404D01*
X68476761Y-216655023D01*
X68524380Y-216750261D01*
X68524380Y-217035976D01*
X68476761Y-217131214D01*
X68429142Y-217178833D01*
X68652380Y-205208095D02*
X67652380Y-205208095D01*
X67652380Y-204970000D01*
X67700000Y-204827142D01*
X67795238Y-204731904D01*
X67890476Y-204684285D01*
X68080952Y-204636666D01*
X68223809Y-204636666D01*
X68414285Y-204684285D01*
X68509523Y-204731904D01*
X68604761Y-204827142D01*
X68652380Y-204970000D01*
X68652380Y-205208095D01*
X67985714Y-203779523D02*
X68652380Y-203779523D01*
X67604761Y-204017619D02*
X68319047Y-204255714D01*
X68319047Y-203636666D01*
X68652380Y-192508095D02*
X67652380Y-192508095D01*
X67652380Y-192270000D01*
X67700000Y-192127142D01*
X67795238Y-192031904D01*
X67890476Y-191984285D01*
X68080952Y-191936666D01*
X68223809Y-191936666D01*
X68414285Y-191984285D01*
X68509523Y-192031904D01*
X68604761Y-192127142D01*
X68652380Y-192270000D01*
X68652380Y-192508095D01*
X67652380Y-191031904D02*
X67652380Y-191508095D01*
X68128571Y-191555714D01*
X68080952Y-191508095D01*
X68033333Y-191412857D01*
X68033333Y-191174761D01*
X68080952Y-191079523D01*
X68128571Y-191031904D01*
X68223809Y-190984285D01*
X68461904Y-190984285D01*
X68557142Y-191031904D01*
X68604761Y-191079523D01*
X68652380Y-191174761D01*
X68652380Y-191412857D01*
X68604761Y-191508095D01*
X68557142Y-191555714D01*
X68652380Y-179808095D02*
X67652380Y-179808095D01*
X67652380Y-179570000D01*
X67700000Y-179427142D01*
X67795238Y-179331904D01*
X67890476Y-179284285D01*
X68080952Y-179236666D01*
X68223809Y-179236666D01*
X68414285Y-179284285D01*
X68509523Y-179331904D01*
X68604761Y-179427142D01*
X68652380Y-179570000D01*
X68652380Y-179808095D01*
X67652380Y-178379523D02*
X67652380Y-178570000D01*
X67700000Y-178665238D01*
X67747619Y-178712857D01*
X67890476Y-178808095D01*
X68080952Y-178855714D01*
X68461904Y-178855714D01*
X68557142Y-178808095D01*
X68604761Y-178760476D01*
X68652380Y-178665238D01*
X68652380Y-178474761D01*
X68604761Y-178379523D01*
X68557142Y-178331904D01*
X68461904Y-178284285D01*
X68223809Y-178284285D01*
X68128571Y-178331904D01*
X68080952Y-178379523D01*
X68033333Y-178474761D01*
X68033333Y-178665238D01*
X68080952Y-178760476D01*
X68128571Y-178808095D01*
X68223809Y-178855714D01*
X68652380Y-167108095D02*
X67652380Y-167108095D01*
X67652380Y-166870000D01*
X67700000Y-166727142D01*
X67795238Y-166631904D01*
X67890476Y-166584285D01*
X68080952Y-166536666D01*
X68223809Y-166536666D01*
X68414285Y-166584285D01*
X68509523Y-166631904D01*
X68604761Y-166727142D01*
X68652380Y-166870000D01*
X68652380Y-167108095D01*
X67652380Y-166203333D02*
X67652380Y-165536666D01*
X68652380Y-165965238D01*
X68652380Y-154408095D02*
X67652380Y-154408095D01*
X67652380Y-154170000D01*
X67700000Y-154027142D01*
X67795238Y-153931904D01*
X67890476Y-153884285D01*
X68080952Y-153836666D01*
X68223809Y-153836666D01*
X68414285Y-153884285D01*
X68509523Y-153931904D01*
X68604761Y-154027142D01*
X68652380Y-154170000D01*
X68652380Y-154408095D01*
X68080952Y-153265238D02*
X68033333Y-153360476D01*
X67985714Y-153408095D01*
X67890476Y-153455714D01*
X67842857Y-153455714D01*
X67747619Y-153408095D01*
X67700000Y-153360476D01*
X67652380Y-153265238D01*
X67652380Y-153074761D01*
X67700000Y-152979523D01*
X67747619Y-152931904D01*
X67842857Y-152884285D01*
X67890476Y-152884285D01*
X67985714Y-152931904D01*
X68033333Y-152979523D01*
X68080952Y-153074761D01*
X68080952Y-153265238D01*
X68128571Y-153360476D01*
X68176190Y-153408095D01*
X68271428Y-153455714D01*
X68461904Y-153455714D01*
X68557142Y-153408095D01*
X68604761Y-153360476D01*
X68652380Y-153265238D01*
X68652380Y-153074761D01*
X68604761Y-152979523D01*
X68557142Y-152931904D01*
X68461904Y-152884285D01*
X68271428Y-152884285D01*
X68176190Y-152931904D01*
X68128571Y-152979523D01*
X68080952Y-153074761D01*
X68652380Y-141708095D02*
X67652380Y-141708095D01*
X67652380Y-141470000D01*
X67700000Y-141327142D01*
X67795238Y-141231904D01*
X67890476Y-141184285D01*
X68080952Y-141136666D01*
X68223809Y-141136666D01*
X68414285Y-141184285D01*
X68509523Y-141231904D01*
X68604761Y-141327142D01*
X68652380Y-141470000D01*
X68652380Y-141708095D01*
X68652380Y-140660476D02*
X68652380Y-140470000D01*
X68604761Y-140374761D01*
X68557142Y-140327142D01*
X68414285Y-140231904D01*
X68223809Y-140184285D01*
X67842857Y-140184285D01*
X67747619Y-140231904D01*
X67700000Y-140279523D01*
X67652380Y-140374761D01*
X67652380Y-140565238D01*
X67700000Y-140660476D01*
X67747619Y-140708095D01*
X67842857Y-140755714D01*
X68080952Y-140755714D01*
X68176190Y-140708095D01*
X68223809Y-140660476D01*
X68271428Y-140565238D01*
X68271428Y-140374761D01*
X68223809Y-140279523D01*
X68176190Y-140231904D01*
X68080952Y-140184285D01*
X68652380Y-129484285D02*
X67652380Y-129484285D01*
X67652380Y-129246190D01*
X67700000Y-129103333D01*
X67795238Y-129008095D01*
X67890476Y-128960476D01*
X68080952Y-128912857D01*
X68223809Y-128912857D01*
X68414285Y-128960476D01*
X68509523Y-129008095D01*
X68604761Y-129103333D01*
X68652380Y-129246190D01*
X68652380Y-129484285D01*
X68652380Y-127960476D02*
X68652380Y-128531904D01*
X68652380Y-128246190D02*
X67652380Y-128246190D01*
X67795238Y-128341428D01*
X67890476Y-128436666D01*
X67938095Y-128531904D01*
X67652380Y-127341428D02*
X67652380Y-127246190D01*
X67700000Y-127150952D01*
X67747619Y-127103333D01*
X67842857Y-127055714D01*
X68033333Y-127008095D01*
X68271428Y-127008095D01*
X68461904Y-127055714D01*
X68557142Y-127103333D01*
X68604761Y-127150952D01*
X68652380Y-127246190D01*
X68652380Y-127341428D01*
X68604761Y-127436666D01*
X68557142Y-127484285D01*
X68461904Y-127531904D01*
X68271428Y-127579523D01*
X68033333Y-127579523D01*
X67842857Y-127531904D01*
X67747619Y-127484285D01*
X67700000Y-127436666D01*
X67652380Y-127341428D01*
X68652380Y-116784285D02*
X67652380Y-116784285D01*
X67652380Y-116546190D01*
X67700000Y-116403333D01*
X67795238Y-116308095D01*
X67890476Y-116260476D01*
X68080952Y-116212857D01*
X68223809Y-116212857D01*
X68414285Y-116260476D01*
X68509523Y-116308095D01*
X68604761Y-116403333D01*
X68652380Y-116546190D01*
X68652380Y-116784285D01*
X68652380Y-115260476D02*
X68652380Y-115831904D01*
X68652380Y-115546190D02*
X67652380Y-115546190D01*
X67795238Y-115641428D01*
X67890476Y-115736666D01*
X67938095Y-115831904D01*
X68652380Y-114308095D02*
X68652380Y-114879523D01*
X68652380Y-114593809D02*
X67652380Y-114593809D01*
X67795238Y-114689047D01*
X67890476Y-114784285D01*
X67938095Y-114879523D01*
X68652380Y-104084285D02*
X67652380Y-104084285D01*
X67652380Y-103846190D01*
X67700000Y-103703333D01*
X67795238Y-103608095D01*
X67890476Y-103560476D01*
X68080952Y-103512857D01*
X68223809Y-103512857D01*
X68414285Y-103560476D01*
X68509523Y-103608095D01*
X68604761Y-103703333D01*
X68652380Y-103846190D01*
X68652380Y-104084285D01*
X68652380Y-102560476D02*
X68652380Y-103131904D01*
X68652380Y-102846190D02*
X67652380Y-102846190D01*
X67795238Y-102941428D01*
X67890476Y-103036666D01*
X67938095Y-103131904D01*
X67747619Y-102179523D02*
X67700000Y-102131904D01*
X67652380Y-102036666D01*
X67652380Y-101798571D01*
X67700000Y-101703333D01*
X67747619Y-101655714D01*
X67842857Y-101608095D01*
X67938095Y-101608095D01*
X68080952Y-101655714D01*
X68652380Y-102227142D01*
X68652380Y-101608095D01*
X68652380Y-91384285D02*
X67652380Y-91384285D01*
X67652380Y-91146190D01*
X67700000Y-91003333D01*
X67795238Y-90908095D01*
X67890476Y-90860476D01*
X68080952Y-90812857D01*
X68223809Y-90812857D01*
X68414285Y-90860476D01*
X68509523Y-90908095D01*
X68604761Y-91003333D01*
X68652380Y-91146190D01*
X68652380Y-91384285D01*
X68652380Y-89860476D02*
X68652380Y-90431904D01*
X68652380Y-90146190D02*
X67652380Y-90146190D01*
X67795238Y-90241428D01*
X67890476Y-90336666D01*
X67938095Y-90431904D01*
X67652380Y-89527142D02*
X67652380Y-88908095D01*
X68033333Y-89241428D01*
X68033333Y-89098571D01*
X68080952Y-89003333D01*
X68128571Y-88955714D01*
X68223809Y-88908095D01*
X68461904Y-88908095D01*
X68557142Y-88955714D01*
X68604761Y-89003333D01*
X68652380Y-89098571D01*
X68652380Y-89384285D01*
X68604761Y-89479523D01*
X68557142Y-89527142D01*
X68652380Y-78684285D02*
X67652380Y-78684285D01*
X67652380Y-78446190D01*
X67700000Y-78303333D01*
X67795238Y-78208095D01*
X67890476Y-78160476D01*
X68080952Y-78112857D01*
X68223809Y-78112857D01*
X68414285Y-78160476D01*
X68509523Y-78208095D01*
X68604761Y-78303333D01*
X68652380Y-78446190D01*
X68652380Y-78684285D01*
X68652380Y-77160476D02*
X68652380Y-77731904D01*
X68652380Y-77446190D02*
X67652380Y-77446190D01*
X67795238Y-77541428D01*
X67890476Y-77636666D01*
X67938095Y-77731904D01*
X67985714Y-76303333D02*
X68652380Y-76303333D01*
X67604761Y-76541428D02*
X68319047Y-76779523D01*
X68319047Y-76160476D01*
X68652380Y-65984285D02*
X67652380Y-65984285D01*
X67652380Y-65746190D01*
X67700000Y-65603333D01*
X67795238Y-65508095D01*
X67890476Y-65460476D01*
X68080952Y-65412857D01*
X68223809Y-65412857D01*
X68414285Y-65460476D01*
X68509523Y-65508095D01*
X68604761Y-65603333D01*
X68652380Y-65746190D01*
X68652380Y-65984285D01*
X68652380Y-64460476D02*
X68652380Y-65031904D01*
X68652380Y-64746190D02*
X67652380Y-64746190D01*
X67795238Y-64841428D01*
X67890476Y-64936666D01*
X67938095Y-65031904D01*
X67652380Y-63555714D02*
X67652380Y-64031904D01*
X68128571Y-64079523D01*
X68080952Y-64031904D01*
X68033333Y-63936666D01*
X68033333Y-63698571D01*
X68080952Y-63603333D01*
X68128571Y-63555714D01*
X68223809Y-63508095D01*
X68461904Y-63508095D01*
X68557142Y-63555714D01*
X68604761Y-63603333D01*
X68652380Y-63698571D01*
X68652380Y-63936666D01*
X68604761Y-64031904D01*
X68557142Y-64079523D01*
X68652380Y-53284285D02*
X67652380Y-53284285D01*
X67652380Y-53046190D01*
X67700000Y-52903333D01*
X67795238Y-52808095D01*
X67890476Y-52760476D01*
X68080952Y-52712857D01*
X68223809Y-52712857D01*
X68414285Y-52760476D01*
X68509523Y-52808095D01*
X68604761Y-52903333D01*
X68652380Y-53046190D01*
X68652380Y-53284285D01*
X68652380Y-51760476D02*
X68652380Y-52331904D01*
X68652380Y-52046190D02*
X67652380Y-52046190D01*
X67795238Y-52141428D01*
X67890476Y-52236666D01*
X67938095Y-52331904D01*
X67652380Y-50903333D02*
X67652380Y-51093809D01*
X67700000Y-51189047D01*
X67747619Y-51236666D01*
X67890476Y-51331904D01*
X68080952Y-51379523D01*
X68461904Y-51379523D01*
X68557142Y-51331904D01*
X68604761Y-51284285D01*
X68652380Y-51189047D01*
X68652380Y-50998571D01*
X68604761Y-50903333D01*
X68557142Y-50855714D01*
X68461904Y-50808095D01*
X68223809Y-50808095D01*
X68128571Y-50855714D01*
X68080952Y-50903333D01*
X68033333Y-50998571D01*
X68033333Y-51189047D01*
X68080952Y-51284285D01*
X68128571Y-51331904D01*
X68223809Y-51379523D01*
X68524380Y-40759785D02*
X67524380Y-40759785D01*
X67524380Y-40521690D01*
X67572000Y-40378833D01*
X67667238Y-40283595D01*
X67762476Y-40235976D01*
X67952952Y-40188357D01*
X68095809Y-40188357D01*
X68286285Y-40235976D01*
X68381523Y-40283595D01*
X68476761Y-40378833D01*
X68524380Y-40521690D01*
X68524380Y-40759785D01*
X68524380Y-39235976D02*
X68524380Y-39807404D01*
X68524380Y-39521690D02*
X67524380Y-39521690D01*
X67667238Y-39616928D01*
X67762476Y-39712166D01*
X67810095Y-39807404D01*
X67524380Y-38902642D02*
X67524380Y-38235976D01*
X68524380Y-38664547D01*
X68524380Y-28059785D02*
X67524380Y-28059785D01*
X67524380Y-27821690D01*
X67572000Y-27678833D01*
X67667238Y-27583595D01*
X67762476Y-27535976D01*
X67952952Y-27488357D01*
X68095809Y-27488357D01*
X68286285Y-27535976D01*
X68381523Y-27583595D01*
X68476761Y-27678833D01*
X68524380Y-27821690D01*
X68524380Y-28059785D01*
X68524380Y-26535976D02*
X68524380Y-27107404D01*
X68524380Y-26821690D02*
X67524380Y-26821690D01*
X67667238Y-26916928D01*
X67762476Y-27012166D01*
X67810095Y-27107404D01*
X67952952Y-25964547D02*
X67905333Y-26059785D01*
X67857714Y-26107404D01*
X67762476Y-26155023D01*
X67714857Y-26155023D01*
X67619619Y-26107404D01*
X67572000Y-26059785D01*
X67524380Y-25964547D01*
X67524380Y-25774071D01*
X67572000Y-25678833D01*
X67619619Y-25631214D01*
X67714857Y-25583595D01*
X67762476Y-25583595D01*
X67857714Y-25631214D01*
X67905333Y-25678833D01*
X67952952Y-25774071D01*
X67952952Y-25964547D01*
X68000571Y-26059785D01*
X68048190Y-26107404D01*
X68143428Y-26155023D01*
X68333904Y-26155023D01*
X68429142Y-26107404D01*
X68476761Y-26059785D01*
X68524380Y-25964547D01*
X68524380Y-25774071D01*
X68476761Y-25678833D01*
X68429142Y-25631214D01*
X68333904Y-25583595D01*
X68143428Y-25583595D01*
X68048190Y-25631214D01*
X68000571Y-25678833D01*
X67952952Y-25774071D01*
X68652380Y-15184285D02*
X67652380Y-15184285D01*
X67652380Y-14946190D01*
X67700000Y-14803333D01*
X67795238Y-14708095D01*
X67890476Y-14660476D01*
X68080952Y-14612857D01*
X68223809Y-14612857D01*
X68414285Y-14660476D01*
X68509523Y-14708095D01*
X68604761Y-14803333D01*
X68652380Y-14946190D01*
X68652380Y-15184285D01*
X68652380Y-13660476D02*
X68652380Y-14231904D01*
X68652380Y-13946190D02*
X67652380Y-13946190D01*
X67795238Y-14041428D01*
X67890476Y-14136666D01*
X67938095Y-14231904D01*
X68652380Y-13184285D02*
X68652380Y-12993809D01*
X68604761Y-12898571D01*
X68557142Y-12850952D01*
X68414285Y-12755714D01*
X68223809Y-12708095D01*
X67842857Y-12708095D01*
X67747619Y-12755714D01*
X67700000Y-12803333D01*
X67652380Y-12898571D01*
X67652380Y-13089047D01*
X67700000Y-13184285D01*
X67747619Y-13231904D01*
X67842857Y-13279523D01*
X68080952Y-13279523D01*
X68176190Y-13231904D01*
X68223809Y-13184285D01*
X68271428Y-13089047D01*
X68271428Y-12898571D01*
X68223809Y-12803333D01*
X68176190Y-12755714D01*
X68080952Y-12708095D01*
X68652380Y-2484285D02*
X67652380Y-2484285D01*
X67652380Y-2246190D01*
X67700000Y-2103333D01*
X67795238Y-2008095D01*
X67890476Y-1960476D01*
X68080952Y-1912857D01*
X68223809Y-1912857D01*
X68414285Y-1960476D01*
X68509523Y-2008095D01*
X68604761Y-2103333D01*
X68652380Y-2246190D01*
X68652380Y-2484285D01*
X67747619Y-1531904D02*
X67700000Y-1484285D01*
X67652380Y-1389047D01*
X67652380Y-1150952D01*
X67700000Y-1055714D01*
X67747619Y-1008095D01*
X67842857Y-960476D01*
X67938095Y-960476D01*
X68080952Y-1008095D01*
X68652380Y-1579523D01*
X68652380Y-960476D01*
X67652380Y-341428D02*
X67652380Y-246190D01*
X67700000Y-150952D01*
X67747619Y-103333D01*
X67842857Y-55714D01*
X68033333Y-8095D01*
X68271428Y-8095D01*
X68461904Y-55714D01*
X68557142Y-103333D01*
X68604761Y-150952D01*
X68652380Y-246190D01*
X68652380Y-341428D01*
X68604761Y-436666D01*
X68557142Y-484285D01*
X68461904Y-531904D01*
X68271428Y-579523D01*
X68033333Y-579523D01*
X67842857Y-531904D01*
X67747619Y-484285D01*
X67700000Y-436666D01*
X67652380Y-341428D01*
X96592380Y-243784285D02*
X95592380Y-243784285D01*
X95592380Y-243546190D01*
X95640000Y-243403333D01*
X95735238Y-243308095D01*
X95830476Y-243260476D01*
X96020952Y-243212857D01*
X96163809Y-243212857D01*
X96354285Y-243260476D01*
X96449523Y-243308095D01*
X96544761Y-243403333D01*
X96592380Y-243546190D01*
X96592380Y-243784285D01*
X95687619Y-242831904D02*
X95640000Y-242784285D01*
X95592380Y-242689047D01*
X95592380Y-242450952D01*
X95640000Y-242355714D01*
X95687619Y-242308095D01*
X95782857Y-242260476D01*
X95878095Y-242260476D01*
X96020952Y-242308095D01*
X96592380Y-242879523D01*
X96592380Y-242260476D01*
X96592380Y-241308095D02*
X96592380Y-241879523D01*
X96592380Y-241593809D02*
X95592380Y-241593809D01*
X95735238Y-241689047D01*
X95830476Y-241784285D01*
X95878095Y-241879523D01*
X96592380Y-231084285D02*
X95592380Y-231084285D01*
X95592380Y-230846190D01*
X95640000Y-230703333D01*
X95735238Y-230608095D01*
X95830476Y-230560476D01*
X96020952Y-230512857D01*
X96163809Y-230512857D01*
X96354285Y-230560476D01*
X96449523Y-230608095D01*
X96544761Y-230703333D01*
X96592380Y-230846190D01*
X96592380Y-231084285D01*
X95687619Y-230131904D02*
X95640000Y-230084285D01*
X95592380Y-229989047D01*
X95592380Y-229750952D01*
X95640000Y-229655714D01*
X95687619Y-229608095D01*
X95782857Y-229560476D01*
X95878095Y-229560476D01*
X96020952Y-229608095D01*
X96592380Y-230179523D01*
X96592380Y-229560476D01*
X95687619Y-229179523D02*
X95640000Y-229131904D01*
X95592380Y-229036666D01*
X95592380Y-228798571D01*
X95640000Y-228703333D01*
X95687619Y-228655714D01*
X95782857Y-228608095D01*
X95878095Y-228608095D01*
X96020952Y-228655714D01*
X96592380Y-229227142D01*
X96592380Y-228608095D01*
X96592380Y-218384285D02*
X95592380Y-218384285D01*
X95592380Y-218146190D01*
X95640000Y-218003333D01*
X95735238Y-217908095D01*
X95830476Y-217860476D01*
X96020952Y-217812857D01*
X96163809Y-217812857D01*
X96354285Y-217860476D01*
X96449523Y-217908095D01*
X96544761Y-218003333D01*
X96592380Y-218146190D01*
X96592380Y-218384285D01*
X95687619Y-217431904D02*
X95640000Y-217384285D01*
X95592380Y-217289047D01*
X95592380Y-217050952D01*
X95640000Y-216955714D01*
X95687619Y-216908095D01*
X95782857Y-216860476D01*
X95878095Y-216860476D01*
X96020952Y-216908095D01*
X96592380Y-217479523D01*
X96592380Y-216860476D01*
X95592380Y-216527142D02*
X95592380Y-215908095D01*
X95973333Y-216241428D01*
X95973333Y-216098571D01*
X96020952Y-216003333D01*
X96068571Y-215955714D01*
X96163809Y-215908095D01*
X96401904Y-215908095D01*
X96497142Y-215955714D01*
X96544761Y-216003333D01*
X96592380Y-216098571D01*
X96592380Y-216384285D01*
X96544761Y-216479523D01*
X96497142Y-216527142D01*
X96592380Y-205684285D02*
X95592380Y-205684285D01*
X95592380Y-205446190D01*
X95640000Y-205303333D01*
X95735238Y-205208095D01*
X95830476Y-205160476D01*
X96020952Y-205112857D01*
X96163809Y-205112857D01*
X96354285Y-205160476D01*
X96449523Y-205208095D01*
X96544761Y-205303333D01*
X96592380Y-205446190D01*
X96592380Y-205684285D01*
X95687619Y-204731904D02*
X95640000Y-204684285D01*
X95592380Y-204589047D01*
X95592380Y-204350952D01*
X95640000Y-204255714D01*
X95687619Y-204208095D01*
X95782857Y-204160476D01*
X95878095Y-204160476D01*
X96020952Y-204208095D01*
X96592380Y-204779523D01*
X96592380Y-204160476D01*
X95925714Y-203303333D02*
X96592380Y-203303333D01*
X95544761Y-203541428D02*
X96259047Y-203779523D01*
X96259047Y-203160476D01*
X96337380Y-192984285D02*
X95337380Y-192984285D01*
X95337380Y-192746190D01*
X95385000Y-192603333D01*
X95480238Y-192508095D01*
X95575476Y-192460476D01*
X95765952Y-192412857D01*
X95908809Y-192412857D01*
X96099285Y-192460476D01*
X96194523Y-192508095D01*
X96289761Y-192603333D01*
X96337380Y-192746190D01*
X96337380Y-192984285D01*
X95432619Y-192031904D02*
X95385000Y-191984285D01*
X95337380Y-191889047D01*
X95337380Y-191650952D01*
X95385000Y-191555714D01*
X95432619Y-191508095D01*
X95527857Y-191460476D01*
X95623095Y-191460476D01*
X95765952Y-191508095D01*
X96337380Y-192079523D01*
X96337380Y-191460476D01*
X95337380Y-190555714D02*
X95337380Y-191031904D01*
X95813571Y-191079523D01*
X95765952Y-191031904D01*
X95718333Y-190936666D01*
X95718333Y-190698571D01*
X95765952Y-190603333D01*
X95813571Y-190555714D01*
X95908809Y-190508095D01*
X96146904Y-190508095D01*
X96242142Y-190555714D01*
X96289761Y-190603333D01*
X96337380Y-190698571D01*
X96337380Y-190936666D01*
X96289761Y-191031904D01*
X96242142Y-191079523D01*
X96337380Y-180284285D02*
X95337380Y-180284285D01*
X95337380Y-180046190D01*
X95385000Y-179903333D01*
X95480238Y-179808095D01*
X95575476Y-179760476D01*
X95765952Y-179712857D01*
X95908809Y-179712857D01*
X96099285Y-179760476D01*
X96194523Y-179808095D01*
X96289761Y-179903333D01*
X96337380Y-180046190D01*
X96337380Y-180284285D01*
X95432619Y-179331904D02*
X95385000Y-179284285D01*
X95337380Y-179189047D01*
X95337380Y-178950952D01*
X95385000Y-178855714D01*
X95432619Y-178808095D01*
X95527857Y-178760476D01*
X95623095Y-178760476D01*
X95765952Y-178808095D01*
X96337380Y-179379523D01*
X96337380Y-178760476D01*
X95337380Y-177903333D02*
X95337380Y-178093809D01*
X95385000Y-178189047D01*
X95432619Y-178236666D01*
X95575476Y-178331904D01*
X95765952Y-178379523D01*
X96146904Y-178379523D01*
X96242142Y-178331904D01*
X96289761Y-178284285D01*
X96337380Y-178189047D01*
X96337380Y-177998571D01*
X96289761Y-177903333D01*
X96242142Y-177855714D01*
X96146904Y-177808095D01*
X95908809Y-177808095D01*
X95813571Y-177855714D01*
X95765952Y-177903333D01*
X95718333Y-177998571D01*
X95718333Y-178189047D01*
X95765952Y-178284285D01*
X95813571Y-178331904D01*
X95908809Y-178379523D01*
X96592380Y-167584285D02*
X95592380Y-167584285D01*
X95592380Y-167346190D01*
X95640000Y-167203333D01*
X95735238Y-167108095D01*
X95830476Y-167060476D01*
X96020952Y-167012857D01*
X96163809Y-167012857D01*
X96354285Y-167060476D01*
X96449523Y-167108095D01*
X96544761Y-167203333D01*
X96592380Y-167346190D01*
X96592380Y-167584285D01*
X95687619Y-166631904D02*
X95640000Y-166584285D01*
X95592380Y-166489047D01*
X95592380Y-166250952D01*
X95640000Y-166155714D01*
X95687619Y-166108095D01*
X95782857Y-166060476D01*
X95878095Y-166060476D01*
X96020952Y-166108095D01*
X96592380Y-166679523D01*
X96592380Y-166060476D01*
X95592380Y-165727142D02*
X95592380Y-165060476D01*
X96592380Y-165489047D01*
X96592380Y-154884285D02*
X95592380Y-154884285D01*
X95592380Y-154646190D01*
X95640000Y-154503333D01*
X95735238Y-154408095D01*
X95830476Y-154360476D01*
X96020952Y-154312857D01*
X96163809Y-154312857D01*
X96354285Y-154360476D01*
X96449523Y-154408095D01*
X96544761Y-154503333D01*
X96592380Y-154646190D01*
X96592380Y-154884285D01*
X95687619Y-153931904D02*
X95640000Y-153884285D01*
X95592380Y-153789047D01*
X95592380Y-153550952D01*
X95640000Y-153455714D01*
X95687619Y-153408095D01*
X95782857Y-153360476D01*
X95878095Y-153360476D01*
X96020952Y-153408095D01*
X96592380Y-153979523D01*
X96592380Y-153360476D01*
X96020952Y-152789047D02*
X95973333Y-152884285D01*
X95925714Y-152931904D01*
X95830476Y-152979523D01*
X95782857Y-152979523D01*
X95687619Y-152931904D01*
X95640000Y-152884285D01*
X95592380Y-152789047D01*
X95592380Y-152598571D01*
X95640000Y-152503333D01*
X95687619Y-152455714D01*
X95782857Y-152408095D01*
X95830476Y-152408095D01*
X95925714Y-152455714D01*
X95973333Y-152503333D01*
X96020952Y-152598571D01*
X96020952Y-152789047D01*
X96068571Y-152884285D01*
X96116190Y-152931904D01*
X96211428Y-152979523D01*
X96401904Y-152979523D01*
X96497142Y-152931904D01*
X96544761Y-152884285D01*
X96592380Y-152789047D01*
X96592380Y-152598571D01*
X96544761Y-152503333D01*
X96497142Y-152455714D01*
X96401904Y-152408095D01*
X96211428Y-152408095D01*
X96116190Y-152455714D01*
X96068571Y-152503333D01*
X96020952Y-152598571D01*
X96210380Y-141851785D02*
X95210380Y-141851785D01*
X95210380Y-141613690D01*
X95258000Y-141470833D01*
X95353238Y-141375595D01*
X95448476Y-141327976D01*
X95638952Y-141280357D01*
X95781809Y-141280357D01*
X95972285Y-141327976D01*
X96067523Y-141375595D01*
X96162761Y-141470833D01*
X96210380Y-141613690D01*
X96210380Y-141851785D01*
X95305619Y-140899404D02*
X95258000Y-140851785D01*
X95210380Y-140756547D01*
X95210380Y-140518452D01*
X95258000Y-140423214D01*
X95305619Y-140375595D01*
X95400857Y-140327976D01*
X95496095Y-140327976D01*
X95638952Y-140375595D01*
X96210380Y-140947023D01*
X96210380Y-140327976D01*
X96210380Y-139851785D02*
X96210380Y-139661309D01*
X96162761Y-139566071D01*
X96115142Y-139518452D01*
X95972285Y-139423214D01*
X95781809Y-139375595D01*
X95400857Y-139375595D01*
X95305619Y-139423214D01*
X95258000Y-139470833D01*
X95210380Y-139566071D01*
X95210380Y-139756547D01*
X95258000Y-139851785D01*
X95305619Y-139899404D01*
X95400857Y-139947023D01*
X95638952Y-139947023D01*
X95734190Y-139899404D01*
X95781809Y-139851785D01*
X95829428Y-139756547D01*
X95829428Y-139566071D01*
X95781809Y-139470833D01*
X95734190Y-139423214D01*
X95638952Y-139375595D01*
X96592380Y-129484285D02*
X95592380Y-129484285D01*
X95592380Y-129246190D01*
X95640000Y-129103333D01*
X95735238Y-129008095D01*
X95830476Y-128960476D01*
X96020952Y-128912857D01*
X96163809Y-128912857D01*
X96354285Y-128960476D01*
X96449523Y-129008095D01*
X96544761Y-129103333D01*
X96592380Y-129246190D01*
X96592380Y-129484285D01*
X95592380Y-128579523D02*
X95592380Y-127960476D01*
X95973333Y-128293809D01*
X95973333Y-128150952D01*
X96020952Y-128055714D01*
X96068571Y-128008095D01*
X96163809Y-127960476D01*
X96401904Y-127960476D01*
X96497142Y-128008095D01*
X96544761Y-128055714D01*
X96592380Y-128150952D01*
X96592380Y-128436666D01*
X96544761Y-128531904D01*
X96497142Y-128579523D01*
X95592380Y-127341428D02*
X95592380Y-127246190D01*
X95640000Y-127150952D01*
X95687619Y-127103333D01*
X95782857Y-127055714D01*
X95973333Y-127008095D01*
X96211428Y-127008095D01*
X96401904Y-127055714D01*
X96497142Y-127103333D01*
X96544761Y-127150952D01*
X96592380Y-127246190D01*
X96592380Y-127341428D01*
X96544761Y-127436666D01*
X96497142Y-127484285D01*
X96401904Y-127531904D01*
X96211428Y-127579523D01*
X95973333Y-127579523D01*
X95782857Y-127531904D01*
X95687619Y-127484285D01*
X95640000Y-127436666D01*
X95592380Y-127341428D01*
X96592380Y-116784285D02*
X95592380Y-116784285D01*
X95592380Y-116546190D01*
X95640000Y-116403333D01*
X95735238Y-116308095D01*
X95830476Y-116260476D01*
X96020952Y-116212857D01*
X96163809Y-116212857D01*
X96354285Y-116260476D01*
X96449523Y-116308095D01*
X96544761Y-116403333D01*
X96592380Y-116546190D01*
X96592380Y-116784285D01*
X95592380Y-115879523D02*
X95592380Y-115260476D01*
X95973333Y-115593809D01*
X95973333Y-115450952D01*
X96020952Y-115355714D01*
X96068571Y-115308095D01*
X96163809Y-115260476D01*
X96401904Y-115260476D01*
X96497142Y-115308095D01*
X96544761Y-115355714D01*
X96592380Y-115450952D01*
X96592380Y-115736666D01*
X96544761Y-115831904D01*
X96497142Y-115879523D01*
X96592380Y-114308095D02*
X96592380Y-114879523D01*
X96592380Y-114593809D02*
X95592380Y-114593809D01*
X95735238Y-114689047D01*
X95830476Y-114784285D01*
X95878095Y-114879523D01*
X96592380Y-104084285D02*
X95592380Y-104084285D01*
X95592380Y-103846190D01*
X95640000Y-103703333D01*
X95735238Y-103608095D01*
X95830476Y-103560476D01*
X96020952Y-103512857D01*
X96163809Y-103512857D01*
X96354285Y-103560476D01*
X96449523Y-103608095D01*
X96544761Y-103703333D01*
X96592380Y-103846190D01*
X96592380Y-104084285D01*
X95592380Y-103179523D02*
X95592380Y-102560476D01*
X95973333Y-102893809D01*
X95973333Y-102750952D01*
X96020952Y-102655714D01*
X96068571Y-102608095D01*
X96163809Y-102560476D01*
X96401904Y-102560476D01*
X96497142Y-102608095D01*
X96544761Y-102655714D01*
X96592380Y-102750952D01*
X96592380Y-103036666D01*
X96544761Y-103131904D01*
X96497142Y-103179523D01*
X95687619Y-102179523D02*
X95640000Y-102131904D01*
X95592380Y-102036666D01*
X95592380Y-101798571D01*
X95640000Y-101703333D01*
X95687619Y-101655714D01*
X95782857Y-101608095D01*
X95878095Y-101608095D01*
X96020952Y-101655714D01*
X96592380Y-102227142D01*
X96592380Y-101608095D01*
X96337380Y-91384285D02*
X95337380Y-91384285D01*
X95337380Y-91146190D01*
X95385000Y-91003333D01*
X95480238Y-90908095D01*
X95575476Y-90860476D01*
X95765952Y-90812857D01*
X95908809Y-90812857D01*
X96099285Y-90860476D01*
X96194523Y-90908095D01*
X96289761Y-91003333D01*
X96337380Y-91146190D01*
X96337380Y-91384285D01*
X95337380Y-90479523D02*
X95337380Y-89860476D01*
X95718333Y-90193809D01*
X95718333Y-90050952D01*
X95765952Y-89955714D01*
X95813571Y-89908095D01*
X95908809Y-89860476D01*
X96146904Y-89860476D01*
X96242142Y-89908095D01*
X96289761Y-89955714D01*
X96337380Y-90050952D01*
X96337380Y-90336666D01*
X96289761Y-90431904D01*
X96242142Y-90479523D01*
X95337380Y-89527142D02*
X95337380Y-88908095D01*
X95718333Y-89241428D01*
X95718333Y-89098571D01*
X95765952Y-89003333D01*
X95813571Y-88955714D01*
X95908809Y-88908095D01*
X96146904Y-88908095D01*
X96242142Y-88955714D01*
X96289761Y-89003333D01*
X96337380Y-89098571D01*
X96337380Y-89384285D01*
X96289761Y-89479523D01*
X96242142Y-89527142D01*
X96592380Y-78684285D02*
X95592380Y-78684285D01*
X95592380Y-78446190D01*
X95640000Y-78303333D01*
X95735238Y-78208095D01*
X95830476Y-78160476D01*
X96020952Y-78112857D01*
X96163809Y-78112857D01*
X96354285Y-78160476D01*
X96449523Y-78208095D01*
X96544761Y-78303333D01*
X96592380Y-78446190D01*
X96592380Y-78684285D01*
X95592380Y-77779523D02*
X95592380Y-77160476D01*
X95973333Y-77493809D01*
X95973333Y-77350952D01*
X96020952Y-77255714D01*
X96068571Y-77208095D01*
X96163809Y-77160476D01*
X96401904Y-77160476D01*
X96497142Y-77208095D01*
X96544761Y-77255714D01*
X96592380Y-77350952D01*
X96592380Y-77636666D01*
X96544761Y-77731904D01*
X96497142Y-77779523D01*
X95925714Y-76303333D02*
X96592380Y-76303333D01*
X95544761Y-76541428D02*
X96259047Y-76779523D01*
X96259047Y-76160476D01*
X96592380Y-65984285D02*
X95592380Y-65984285D01*
X95592380Y-65746190D01*
X95640000Y-65603333D01*
X95735238Y-65508095D01*
X95830476Y-65460476D01*
X96020952Y-65412857D01*
X96163809Y-65412857D01*
X96354285Y-65460476D01*
X96449523Y-65508095D01*
X96544761Y-65603333D01*
X96592380Y-65746190D01*
X96592380Y-65984285D01*
X95592380Y-65079523D02*
X95592380Y-64460476D01*
X95973333Y-64793809D01*
X95973333Y-64650952D01*
X96020952Y-64555714D01*
X96068571Y-64508095D01*
X96163809Y-64460476D01*
X96401904Y-64460476D01*
X96497142Y-64508095D01*
X96544761Y-64555714D01*
X96592380Y-64650952D01*
X96592380Y-64936666D01*
X96544761Y-65031904D01*
X96497142Y-65079523D01*
X95592380Y-63555714D02*
X95592380Y-64031904D01*
X96068571Y-64079523D01*
X96020952Y-64031904D01*
X95973333Y-63936666D01*
X95973333Y-63698571D01*
X96020952Y-63603333D01*
X96068571Y-63555714D01*
X96163809Y-63508095D01*
X96401904Y-63508095D01*
X96497142Y-63555714D01*
X96544761Y-63603333D01*
X96592380Y-63698571D01*
X96592380Y-63936666D01*
X96544761Y-64031904D01*
X96497142Y-64079523D01*
X96592380Y-53284285D02*
X95592380Y-53284285D01*
X95592380Y-53046190D01*
X95640000Y-52903333D01*
X95735238Y-52808095D01*
X95830476Y-52760476D01*
X96020952Y-52712857D01*
X96163809Y-52712857D01*
X96354285Y-52760476D01*
X96449523Y-52808095D01*
X96544761Y-52903333D01*
X96592380Y-53046190D01*
X96592380Y-53284285D01*
X95592380Y-52379523D02*
X95592380Y-51760476D01*
X95973333Y-52093809D01*
X95973333Y-51950952D01*
X96020952Y-51855714D01*
X96068571Y-51808095D01*
X96163809Y-51760476D01*
X96401904Y-51760476D01*
X96497142Y-51808095D01*
X96544761Y-51855714D01*
X96592380Y-51950952D01*
X96592380Y-52236666D01*
X96544761Y-52331904D01*
X96497142Y-52379523D01*
X95592380Y-50903333D02*
X95592380Y-51093809D01*
X95640000Y-51189047D01*
X95687619Y-51236666D01*
X95830476Y-51331904D01*
X96020952Y-51379523D01*
X96401904Y-51379523D01*
X96497142Y-51331904D01*
X96544761Y-51284285D01*
X96592380Y-51189047D01*
X96592380Y-50998571D01*
X96544761Y-50903333D01*
X96497142Y-50855714D01*
X96401904Y-50808095D01*
X96163809Y-50808095D01*
X96068571Y-50855714D01*
X96020952Y-50903333D01*
X95973333Y-50998571D01*
X95973333Y-51189047D01*
X96020952Y-51284285D01*
X96068571Y-51331904D01*
X96163809Y-51379523D01*
X96592380Y-40584285D02*
X95592380Y-40584285D01*
X95592380Y-40346190D01*
X95640000Y-40203333D01*
X95735238Y-40108095D01*
X95830476Y-40060476D01*
X96020952Y-40012857D01*
X96163809Y-40012857D01*
X96354285Y-40060476D01*
X96449523Y-40108095D01*
X96544761Y-40203333D01*
X96592380Y-40346190D01*
X96592380Y-40584285D01*
X95592380Y-39679523D02*
X95592380Y-39060476D01*
X95973333Y-39393809D01*
X95973333Y-39250952D01*
X96020952Y-39155714D01*
X96068571Y-39108095D01*
X96163809Y-39060476D01*
X96401904Y-39060476D01*
X96497142Y-39108095D01*
X96544761Y-39155714D01*
X96592380Y-39250952D01*
X96592380Y-39536666D01*
X96544761Y-39631904D01*
X96497142Y-39679523D01*
X95592380Y-38727142D02*
X95592380Y-38060476D01*
X96592380Y-38489047D01*
X96592380Y-27884285D02*
X95592380Y-27884285D01*
X95592380Y-27646190D01*
X95640000Y-27503333D01*
X95735238Y-27408095D01*
X95830476Y-27360476D01*
X96020952Y-27312857D01*
X96163809Y-27312857D01*
X96354285Y-27360476D01*
X96449523Y-27408095D01*
X96544761Y-27503333D01*
X96592380Y-27646190D01*
X96592380Y-27884285D01*
X95592380Y-26979523D02*
X95592380Y-26360476D01*
X95973333Y-26693809D01*
X95973333Y-26550952D01*
X96020952Y-26455714D01*
X96068571Y-26408095D01*
X96163809Y-26360476D01*
X96401904Y-26360476D01*
X96497142Y-26408095D01*
X96544761Y-26455714D01*
X96592380Y-26550952D01*
X96592380Y-26836666D01*
X96544761Y-26931904D01*
X96497142Y-26979523D01*
X96020952Y-25789047D02*
X95973333Y-25884285D01*
X95925714Y-25931904D01*
X95830476Y-25979523D01*
X95782857Y-25979523D01*
X95687619Y-25931904D01*
X95640000Y-25884285D01*
X95592380Y-25789047D01*
X95592380Y-25598571D01*
X95640000Y-25503333D01*
X95687619Y-25455714D01*
X95782857Y-25408095D01*
X95830476Y-25408095D01*
X95925714Y-25455714D01*
X95973333Y-25503333D01*
X96020952Y-25598571D01*
X96020952Y-25789047D01*
X96068571Y-25884285D01*
X96116190Y-25931904D01*
X96211428Y-25979523D01*
X96401904Y-25979523D01*
X96497142Y-25931904D01*
X96544761Y-25884285D01*
X96592380Y-25789047D01*
X96592380Y-25598571D01*
X96544761Y-25503333D01*
X96497142Y-25455714D01*
X96401904Y-25408095D01*
X96211428Y-25408095D01*
X96116190Y-25455714D01*
X96068571Y-25503333D01*
X96020952Y-25598571D01*
X96337380Y-15184285D02*
X95337380Y-15184285D01*
X95337380Y-14946190D01*
X95385000Y-14803333D01*
X95480238Y-14708095D01*
X95575476Y-14660476D01*
X95765952Y-14612857D01*
X95908809Y-14612857D01*
X96099285Y-14660476D01*
X96194523Y-14708095D01*
X96289761Y-14803333D01*
X96337380Y-14946190D01*
X96337380Y-15184285D01*
X95337380Y-14279523D02*
X95337380Y-13660476D01*
X95718333Y-13993809D01*
X95718333Y-13850952D01*
X95765952Y-13755714D01*
X95813571Y-13708095D01*
X95908809Y-13660476D01*
X96146904Y-13660476D01*
X96242142Y-13708095D01*
X96289761Y-13755714D01*
X96337380Y-13850952D01*
X96337380Y-14136666D01*
X96289761Y-14231904D01*
X96242142Y-14279523D01*
X96337380Y-13184285D02*
X96337380Y-12993809D01*
X96289761Y-12898571D01*
X96242142Y-12850952D01*
X96099285Y-12755714D01*
X95908809Y-12708095D01*
X95527857Y-12708095D01*
X95432619Y-12755714D01*
X95385000Y-12803333D01*
X95337380Y-12898571D01*
X95337380Y-13089047D01*
X95385000Y-13184285D01*
X95432619Y-13231904D01*
X95527857Y-13279523D01*
X95765952Y-13279523D01*
X95861190Y-13231904D01*
X95908809Y-13184285D01*
X95956428Y-13089047D01*
X95956428Y-12898571D01*
X95908809Y-12803333D01*
X95861190Y-12755714D01*
X95765952Y-12708095D01*
X96592380Y-2484285D02*
X95592380Y-2484285D01*
X95592380Y-2246190D01*
X95640000Y-2103333D01*
X95735238Y-2008095D01*
X95830476Y-1960476D01*
X96020952Y-1912857D01*
X96163809Y-1912857D01*
X96354285Y-1960476D01*
X96449523Y-2008095D01*
X96544761Y-2103333D01*
X96592380Y-2246190D01*
X96592380Y-2484285D01*
X95925714Y-1055714D02*
X96592380Y-1055714D01*
X95544761Y-1293809D02*
X96259047Y-1531904D01*
X96259047Y-912857D01*
X95592380Y-341428D02*
X95592380Y-246190D01*
X95640000Y-150952D01*
X95687619Y-103333D01*
X95782857Y-55714D01*
X95973333Y-8095D01*
X96211428Y-8095D01*
X96401904Y-55714D01*
X96497142Y-103333D01*
X96544761Y-150952D01*
X96592380Y-246190D01*
X96592380Y-341428D01*
X96544761Y-436666D01*
X96497142Y-484285D01*
X96401904Y-531904D01*
X96211428Y-579523D01*
X95973333Y-579523D01*
X95782857Y-531904D01*
X95687619Y-484285D01*
X95640000Y-436666D01*
X95592380Y-341428D01*
X-8447619Y-89083333D02*
X-7733333Y-89083333D01*
X-7590476Y-89130952D01*
X-7495238Y-89226190D01*
X-7447619Y-89369047D01*
X-7447619Y-89464285D01*
X-7447619Y-88083333D02*
X-7447619Y-88654761D01*
X-7447619Y-88369047D02*
X-8447619Y-88369047D01*
X-8304761Y-88464285D01*
X-8209523Y-88559523D01*
X-8161904Y-88654761D01*
X-8447619Y-147833333D02*
X-7733333Y-147833333D01*
X-7590476Y-147880952D01*
X-7495238Y-147976190D01*
X-7447619Y-148119047D01*
X-7447619Y-148214285D01*
X-8352380Y-147404761D02*
X-8400000Y-147357142D01*
X-8447619Y-147261904D01*
X-8447619Y-147023809D01*
X-8400000Y-146928571D01*
X-8352380Y-146880952D01*
X-8257142Y-146833333D01*
X-8161904Y-146833333D01*
X-8019047Y-146880952D01*
X-7447619Y-147452380D01*
X-7447619Y-146833333D01*
X6540476Y-180272380D02*
X6540476Y-180986666D01*
X6492857Y-181129523D01*
X6397619Y-181224761D01*
X6254761Y-181272380D01*
X6159523Y-181272380D01*
X7540476Y-181272380D02*
X6969047Y-181272380D01*
X7254761Y-181272380D02*
X7254761Y-180272380D01*
X7159523Y-180415238D01*
X7064285Y-180510476D01*
X6969047Y-180558095D01*
X8159523Y-180272380D02*
X8254761Y-180272380D01*
X8350000Y-180320000D01*
X8397619Y-180367619D01*
X8445238Y-180462857D01*
X8492857Y-180653333D01*
X8492857Y-180891428D01*
X8445238Y-181081904D01*
X8397619Y-181177142D01*
X8350000Y-181224761D01*
X8254761Y-181272380D01*
X8159523Y-181272380D01*
X8064285Y-181224761D01*
X8016666Y-181177142D01*
X7969047Y-181081904D01*
X7921428Y-180891428D01*
X7921428Y-180653333D01*
X7969047Y-180462857D01*
X8016666Y-180367619D01*
X8064285Y-180320000D01*
X8159523Y-180272380D01*
X171182380Y-87949523D02*
X171896666Y-87949523D01*
X172039523Y-87997142D01*
X172134761Y-88092380D01*
X172182380Y-88235238D01*
X172182380Y-88330476D01*
X172182380Y-86949523D02*
X172182380Y-87520952D01*
X172182380Y-87235238D02*
X171182380Y-87235238D01*
X171325238Y-87330476D01*
X171420476Y-87425714D01*
X171468095Y-87520952D01*
X172182380Y-85997142D02*
X172182380Y-86568571D01*
X172182380Y-86282857D02*
X171182380Y-86282857D01*
X171325238Y-86378095D01*
X171420476Y-86473333D01*
X171468095Y-86568571D01*
X171182380Y-147949523D02*
X171896666Y-147949523D01*
X172039523Y-147997142D01*
X172134761Y-148092380D01*
X172182380Y-148235238D01*
X172182380Y-148330476D01*
X172182380Y-146949523D02*
X172182380Y-147520952D01*
X172182380Y-147235238D02*
X171182380Y-147235238D01*
X171325238Y-147330476D01*
X171420476Y-147425714D01*
X171468095Y-147520952D01*
X171277619Y-146568571D02*
X171230000Y-146520952D01*
X171182380Y-146425714D01*
X171182380Y-146187619D01*
X171230000Y-146092380D01*
X171277619Y-146044761D01*
X171372857Y-145997142D01*
X171468095Y-145997142D01*
X171610952Y-146044761D01*
X172182380Y-146616190D01*
X172182380Y-145997142D01*
X18216666Y-112962380D02*
X18216666Y-113676666D01*
X18169047Y-113819523D01*
X18073809Y-113914761D01*
X17930952Y-113962380D01*
X17835714Y-113962380D01*
X18692857Y-113962380D02*
X18692857Y-112962380D01*
X19073809Y-112962380D01*
X19169047Y-113010000D01*
X19216666Y-113057619D01*
X19264285Y-113152857D01*
X19264285Y-113295714D01*
X19216666Y-113390952D01*
X19169047Y-113438571D01*
X19073809Y-113486190D01*
X18692857Y-113486190D01*
X20216666Y-113962380D02*
X19645238Y-113962380D01*
X19930952Y-113962380D02*
X19930952Y-112962380D01*
X19835714Y-113105238D01*
X19740476Y-113200476D01*
X19645238Y-113248095D01*
X23296666Y-112962380D02*
X23296666Y-113676666D01*
X23249047Y-113819523D01*
X23153809Y-113914761D01*
X23010952Y-113962380D01*
X22915714Y-113962380D01*
X23772857Y-113962380D02*
X23772857Y-112962380D01*
X24153809Y-112962380D01*
X24249047Y-113010000D01*
X24296666Y-113057619D01*
X24344285Y-113152857D01*
X24344285Y-113295714D01*
X24296666Y-113390952D01*
X24249047Y-113438571D01*
X24153809Y-113486190D01*
X23772857Y-113486190D01*
X24725238Y-113057619D02*
X24772857Y-113010000D01*
X24868095Y-112962380D01*
X25106190Y-112962380D01*
X25201428Y-113010000D01*
X25249047Y-113057619D01*
X25296666Y-113152857D01*
X25296666Y-113248095D01*
X25249047Y-113390952D01*
X24677619Y-113962380D01*
X25296666Y-113962380D01*
X28376666Y-112962380D02*
X28376666Y-113676666D01*
X28329047Y-113819523D01*
X28233809Y-113914761D01*
X28090952Y-113962380D01*
X27995714Y-113962380D01*
X28852857Y-113962380D02*
X28852857Y-112962380D01*
X29233809Y-112962380D01*
X29329047Y-113010000D01*
X29376666Y-113057619D01*
X29424285Y-113152857D01*
X29424285Y-113295714D01*
X29376666Y-113390952D01*
X29329047Y-113438571D01*
X29233809Y-113486190D01*
X28852857Y-113486190D01*
X29757619Y-112962380D02*
X30376666Y-112962380D01*
X30043333Y-113343333D01*
X30186190Y-113343333D01*
X30281428Y-113390952D01*
X30329047Y-113438571D01*
X30376666Y-113533809D01*
X30376666Y-113771904D01*
X30329047Y-113867142D01*
X30281428Y-113914761D01*
X30186190Y-113962380D01*
X29900476Y-113962380D01*
X29805238Y-113914761D01*
X29757619Y-113867142D01*
X20932380Y-109386666D02*
X20456190Y-109720000D01*
X20932380Y-109958095D02*
X19932380Y-109958095D01*
X19932380Y-109577142D01*
X19980000Y-109481904D01*
X20027619Y-109434285D01*
X20122857Y-109386666D01*
X20265714Y-109386666D01*
X20360952Y-109434285D01*
X20408571Y-109481904D01*
X20456190Y-109577142D01*
X20456190Y-109958095D01*
X20932380Y-108434285D02*
X20932380Y-109005714D01*
X20932380Y-108720000D02*
X19932380Y-108720000D01*
X20075238Y-108815238D01*
X20170476Y-108910476D01*
X20218095Y-109005714D01*
X26012380Y-109386666D02*
X25536190Y-109720000D01*
X26012380Y-109958095D02*
X25012380Y-109958095D01*
X25012380Y-109577142D01*
X25060000Y-109481904D01*
X25107619Y-109434285D01*
X25202857Y-109386666D01*
X25345714Y-109386666D01*
X25440952Y-109434285D01*
X25488571Y-109481904D01*
X25536190Y-109577142D01*
X25536190Y-109958095D01*
X25107619Y-109005714D02*
X25060000Y-108958095D01*
X25012380Y-108862857D01*
X25012380Y-108624761D01*
X25060000Y-108529523D01*
X25107619Y-108481904D01*
X25202857Y-108434285D01*
X25298095Y-108434285D01*
X25440952Y-108481904D01*
X26012380Y-109053333D01*
X26012380Y-108434285D01*
X31092380Y-109386666D02*
X30616190Y-109720000D01*
X31092380Y-109958095D02*
X30092380Y-109958095D01*
X30092380Y-109577142D01*
X30140000Y-109481904D01*
X30187619Y-109434285D01*
X30282857Y-109386666D01*
X30425714Y-109386666D01*
X30520952Y-109434285D01*
X30568571Y-109481904D01*
X30616190Y-109577142D01*
X30616190Y-109958095D01*
X30092380Y-109053333D02*
X30092380Y-108434285D01*
X30473333Y-108767619D01*
X30473333Y-108624761D01*
X30520952Y-108529523D01*
X30568571Y-108481904D01*
X30663809Y-108434285D01*
X30901904Y-108434285D01*
X30997142Y-108481904D01*
X31044761Y-108529523D01*
X31092380Y-108624761D01*
X31092380Y-108910476D01*
X31044761Y-109005714D01*
X30997142Y-109053333D01*
M02*
