G04 #@! TF.GenerationSoftware,KiCad,Pcbnew,(5.1.2)-1*
G04 #@! TF.CreationDate,2019-11-22T11:24:58-08:00*
G04 #@! TF.ProjectId,relayBoard,72656c61-7942-46f6-9172-642e6b696361,rev?*
G04 #@! TF.SameCoordinates,Original*
G04 #@! TF.FileFunction,Copper,L2,Inr*
G04 #@! TF.FilePolarity,Positive*
%FSLAX46Y46*%
G04 Gerber Fmt 4.6, Leading zero omitted, Abs format (unit mm)*
G04 Created by KiCad (PCBNEW (5.1.2)-1) date 2019-11-22 11:24:58*
%MOMM*%
%LPD*%
G04 APERTURE LIST*
%ADD10O,1.700000X1.700000*%
%ADD11R,1.700000X1.700000*%
%ADD12C,10.160000*%
%ADD13O,1.350000X1.350000*%
%ADD14R,1.350000X1.350000*%
%ADD15O,1.950000X1.700000*%
%ADD16C,0.100000*%
%ADD17C,1.700000*%
%ADD18C,4.000000*%
%ADD19C,1.800000*%
%ADD20R,1.800000X1.800000*%
%ADD21C,0.800000*%
%ADD22C,0.250000*%
%ADD23C,0.500000*%
G04 APERTURE END LIST*
D10*
X15875000Y-187960000D03*
D11*
X15875000Y-190500000D03*
D12*
X21590000Y-45720000D03*
D13*
X8350000Y-226630000D03*
X6350000Y-226630000D03*
X8350000Y-224630000D03*
X6350000Y-224630000D03*
X8350000Y-222630000D03*
X6350000Y-222630000D03*
X8350000Y-220630000D03*
X6350000Y-220630000D03*
X8350000Y-218630000D03*
X6350000Y-218630000D03*
X8350000Y-216630000D03*
X6350000Y-216630000D03*
X8350000Y-214630000D03*
D14*
X6350000Y-214630000D03*
D12*
X21590000Y-26670000D03*
D15*
X156210000Y-211730000D03*
X156210000Y-209230000D03*
X156210000Y-206730000D03*
X156210000Y-204230000D03*
X156210000Y-201730000D03*
X156210000Y-199230000D03*
X156210000Y-196730000D03*
X156210000Y-194230000D03*
X156210000Y-191730000D03*
D16*
G36*
X156959504Y-188381204D02*
G01*
X156983773Y-188384804D01*
X157007571Y-188390765D01*
X157030671Y-188399030D01*
X157052849Y-188409520D01*
X157073893Y-188422133D01*
X157093598Y-188436747D01*
X157111777Y-188453223D01*
X157128253Y-188471402D01*
X157142867Y-188491107D01*
X157155480Y-188512151D01*
X157165970Y-188534329D01*
X157174235Y-188557429D01*
X157180196Y-188581227D01*
X157183796Y-188605496D01*
X157185000Y-188630000D01*
X157185000Y-189830000D01*
X157183796Y-189854504D01*
X157180196Y-189878773D01*
X157174235Y-189902571D01*
X157165970Y-189925671D01*
X157155480Y-189947849D01*
X157142867Y-189968893D01*
X157128253Y-189988598D01*
X157111777Y-190006777D01*
X157093598Y-190023253D01*
X157073893Y-190037867D01*
X157052849Y-190050480D01*
X157030671Y-190060970D01*
X157007571Y-190069235D01*
X156983773Y-190075196D01*
X156959504Y-190078796D01*
X156935000Y-190080000D01*
X155485000Y-190080000D01*
X155460496Y-190078796D01*
X155436227Y-190075196D01*
X155412429Y-190069235D01*
X155389329Y-190060970D01*
X155367151Y-190050480D01*
X155346107Y-190037867D01*
X155326402Y-190023253D01*
X155308223Y-190006777D01*
X155291747Y-189988598D01*
X155277133Y-189968893D01*
X155264520Y-189947849D01*
X155254030Y-189925671D01*
X155245765Y-189902571D01*
X155239804Y-189878773D01*
X155236204Y-189854504D01*
X155235000Y-189830000D01*
X155235000Y-188630000D01*
X155236204Y-188605496D01*
X155239804Y-188581227D01*
X155245765Y-188557429D01*
X155254030Y-188534329D01*
X155264520Y-188512151D01*
X155277133Y-188491107D01*
X155291747Y-188471402D01*
X155308223Y-188453223D01*
X155326402Y-188436747D01*
X155346107Y-188422133D01*
X155367151Y-188409520D01*
X155389329Y-188399030D01*
X155412429Y-188390765D01*
X155436227Y-188384804D01*
X155460496Y-188381204D01*
X155485000Y-188380000D01*
X156935000Y-188380000D01*
X156959504Y-188381204D01*
X156959504Y-188381204D01*
G37*
D17*
X156210000Y-189230000D03*
D12*
X2540000Y-7620000D03*
X2540000Y-26670000D03*
X2540000Y-45720000D03*
D18*
X147624800Y-55448200D03*
X147624800Y5765800D03*
D19*
X150469600Y-46990000D03*
X150469600Y-44221400D03*
X150469600Y-41452800D03*
X150469600Y-38684200D03*
X150469600Y-35915600D03*
X150469600Y-33147000D03*
X150469600Y-30378400D03*
X150469600Y-27609800D03*
X150469600Y-24841200D03*
X150469600Y-22072600D03*
X150469600Y-19304000D03*
X150469600Y-16535400D03*
X150469600Y-13766800D03*
X150469600Y-10998200D03*
X150469600Y-8229600D03*
X150469600Y-5461000D03*
X150469600Y-2692400D03*
X147624800Y-45605700D03*
X147624800Y-42837100D03*
X147624800Y-40068500D03*
X147624800Y-37299900D03*
X147624800Y-34531300D03*
X147624800Y-31762700D03*
X147624800Y-28994100D03*
X147624800Y-26225500D03*
X147624800Y-23456900D03*
X147624800Y-20688300D03*
X147624800Y-17919700D03*
X147624800Y-15151100D03*
X147624800Y-12382500D03*
X147624800Y-9613900D03*
X147624800Y-6845300D03*
X147624800Y-4076700D03*
X144780000Y-46990000D03*
X144780000Y-44221400D03*
X144780000Y-41452800D03*
X144780000Y-38684200D03*
X144780000Y-35915600D03*
X144780000Y-33147000D03*
X144780000Y-30378400D03*
X144780000Y-27609800D03*
X144780000Y-24841200D03*
X144780000Y-22072600D03*
X144780000Y-19304000D03*
X144780000Y-16535400D03*
X144780000Y-13766800D03*
X144780000Y-10998200D03*
X144780000Y-8229600D03*
X144780000Y-5461000D03*
D20*
X144780000Y-2692400D03*
D12*
X21590000Y-7620000D03*
D16*
G36*
X749504Y-99151204D02*
G01*
X773773Y-99154804D01*
X797571Y-99160765D01*
X820671Y-99169030D01*
X842849Y-99179520D01*
X863893Y-99192133D01*
X883598Y-99206747D01*
X901777Y-99223223D01*
X918253Y-99241402D01*
X932867Y-99261107D01*
X945480Y-99282151D01*
X955970Y-99304329D01*
X964235Y-99327429D01*
X970196Y-99351227D01*
X973796Y-99375496D01*
X975000Y-99400000D01*
X975000Y-100600000D01*
X973796Y-100624504D01*
X970196Y-100648773D01*
X964235Y-100672571D01*
X955970Y-100695671D01*
X945480Y-100717849D01*
X932867Y-100738893D01*
X918253Y-100758598D01*
X901777Y-100776777D01*
X883598Y-100793253D01*
X863893Y-100807867D01*
X842849Y-100820480D01*
X820671Y-100830970D01*
X797571Y-100839235D01*
X773773Y-100845196D01*
X749504Y-100848796D01*
X725000Y-100850000D01*
X-725000Y-100850000D01*
X-749504Y-100848796D01*
X-773773Y-100845196D01*
X-797571Y-100839235D01*
X-820671Y-100830970D01*
X-842849Y-100820480D01*
X-863893Y-100807867D01*
X-883598Y-100793253D01*
X-901777Y-100776777D01*
X-918253Y-100758598D01*
X-932867Y-100738893D01*
X-945480Y-100717849D01*
X-955970Y-100695671D01*
X-964235Y-100672571D01*
X-970196Y-100648773D01*
X-973796Y-100624504D01*
X-975000Y-100600000D01*
X-975000Y-99400000D01*
X-973796Y-99375496D01*
X-970196Y-99351227D01*
X-964235Y-99327429D01*
X-955970Y-99304329D01*
X-945480Y-99282151D01*
X-932867Y-99261107D01*
X-918253Y-99241402D01*
X-901777Y-99223223D01*
X-883598Y-99206747D01*
X-863893Y-99192133D01*
X-842849Y-99179520D01*
X-820671Y-99169030D01*
X-797571Y-99160765D01*
X-773773Y-99154804D01*
X-749504Y-99151204D01*
X-725000Y-99150000D01*
X725000Y-99150000D01*
X749504Y-99151204D01*
X749504Y-99151204D01*
G37*
D17*
X0Y-100000000D03*
D15*
X0Y-97500000D03*
X0Y-95000000D03*
X0Y-92500000D03*
X0Y-90000000D03*
X0Y-87500000D03*
X0Y-85000000D03*
X0Y-82500000D03*
X0Y-80000000D03*
X0Y-77500000D03*
X0Y-136250000D03*
X0Y-138750000D03*
X0Y-141250000D03*
X0Y-143750000D03*
X0Y-146250000D03*
X0Y-148750000D03*
X0Y-151250000D03*
X0Y-153750000D03*
X0Y-156250000D03*
D16*
G36*
X749504Y-157901204D02*
G01*
X773773Y-157904804D01*
X797571Y-157910765D01*
X820671Y-157919030D01*
X842849Y-157929520D01*
X863893Y-157942133D01*
X883598Y-157956747D01*
X901777Y-157973223D01*
X918253Y-157991402D01*
X932867Y-158011107D01*
X945480Y-158032151D01*
X955970Y-158054329D01*
X964235Y-158077429D01*
X970196Y-158101227D01*
X973796Y-158125496D01*
X975000Y-158150000D01*
X975000Y-159350000D01*
X973796Y-159374504D01*
X970196Y-159398773D01*
X964235Y-159422571D01*
X955970Y-159445671D01*
X945480Y-159467849D01*
X932867Y-159488893D01*
X918253Y-159508598D01*
X901777Y-159526777D01*
X883598Y-159543253D01*
X863893Y-159557867D01*
X842849Y-159570480D01*
X820671Y-159580970D01*
X797571Y-159589235D01*
X773773Y-159595196D01*
X749504Y-159598796D01*
X725000Y-159600000D01*
X-725000Y-159600000D01*
X-749504Y-159598796D01*
X-773773Y-159595196D01*
X-797571Y-159589235D01*
X-820671Y-159580970D01*
X-842849Y-159570480D01*
X-863893Y-159557867D01*
X-883598Y-159543253D01*
X-901777Y-159526777D01*
X-918253Y-159508598D01*
X-932867Y-159488893D01*
X-945480Y-159467849D01*
X-955970Y-159445671D01*
X-964235Y-159422571D01*
X-970196Y-159398773D01*
X-973796Y-159374504D01*
X-975000Y-159350000D01*
X-975000Y-158150000D01*
X-973796Y-158125496D01*
X-970196Y-158101227D01*
X-964235Y-158077429D01*
X-955970Y-158054329D01*
X-945480Y-158032151D01*
X-932867Y-158011107D01*
X-918253Y-157991402D01*
X-901777Y-157973223D01*
X-883598Y-157956747D01*
X-863893Y-157942133D01*
X-842849Y-157929520D01*
X-820671Y-157919030D01*
X-797571Y-157910765D01*
X-773773Y-157904804D01*
X-749504Y-157901204D01*
X-725000Y-157900000D01*
X725000Y-157900000D01*
X749504Y-157901204D01*
X749504Y-157901204D01*
G37*
D17*
X0Y-158750000D03*
D14*
X6350000Y-182880000D03*
D13*
X8350000Y-182880000D03*
X6350000Y-184880000D03*
X8350000Y-184880000D03*
X6350000Y-186880000D03*
X8350000Y-186880000D03*
X6350000Y-188880000D03*
X8350000Y-188880000D03*
X6350000Y-190880000D03*
X8350000Y-190880000D03*
X6350000Y-192880000D03*
X8350000Y-192880000D03*
X6350000Y-194880000D03*
X8350000Y-194880000D03*
D16*
G36*
X164579504Y-75041204D02*
G01*
X164603773Y-75044804D01*
X164627571Y-75050765D01*
X164650671Y-75059030D01*
X164672849Y-75069520D01*
X164693893Y-75082133D01*
X164713598Y-75096747D01*
X164731777Y-75113223D01*
X164748253Y-75131402D01*
X164762867Y-75151107D01*
X164775480Y-75172151D01*
X164785970Y-75194329D01*
X164794235Y-75217429D01*
X164800196Y-75241227D01*
X164803796Y-75265496D01*
X164805000Y-75290000D01*
X164805000Y-76490000D01*
X164803796Y-76514504D01*
X164800196Y-76538773D01*
X164794235Y-76562571D01*
X164785970Y-76585671D01*
X164775480Y-76607849D01*
X164762867Y-76628893D01*
X164748253Y-76648598D01*
X164731777Y-76666777D01*
X164713598Y-76683253D01*
X164693893Y-76697867D01*
X164672849Y-76710480D01*
X164650671Y-76720970D01*
X164627571Y-76729235D01*
X164603773Y-76735196D01*
X164579504Y-76738796D01*
X164555000Y-76740000D01*
X163105000Y-76740000D01*
X163080496Y-76738796D01*
X163056227Y-76735196D01*
X163032429Y-76729235D01*
X163009329Y-76720970D01*
X162987151Y-76710480D01*
X162966107Y-76697867D01*
X162946402Y-76683253D01*
X162928223Y-76666777D01*
X162911747Y-76648598D01*
X162897133Y-76628893D01*
X162884520Y-76607849D01*
X162874030Y-76585671D01*
X162865765Y-76562571D01*
X162859804Y-76538773D01*
X162856204Y-76514504D01*
X162855000Y-76490000D01*
X162855000Y-75290000D01*
X162856204Y-75265496D01*
X162859804Y-75241227D01*
X162865765Y-75217429D01*
X162874030Y-75194329D01*
X162884520Y-75172151D01*
X162897133Y-75151107D01*
X162911747Y-75131402D01*
X162928223Y-75113223D01*
X162946402Y-75096747D01*
X162966107Y-75082133D01*
X162987151Y-75069520D01*
X163009329Y-75059030D01*
X163032429Y-75050765D01*
X163056227Y-75044804D01*
X163080496Y-75041204D01*
X163105000Y-75040000D01*
X164555000Y-75040000D01*
X164579504Y-75041204D01*
X164579504Y-75041204D01*
G37*
D17*
X163830000Y-75890000D03*
D15*
X163830000Y-78390000D03*
X163830000Y-80890000D03*
X163830000Y-83390000D03*
X163830000Y-85890000D03*
X163830000Y-88390000D03*
X163830000Y-90890000D03*
X163830000Y-93390000D03*
X163830000Y-95890000D03*
X163830000Y-98390000D03*
X163830000Y-158390000D03*
X163830000Y-155890000D03*
X163830000Y-153390000D03*
X163830000Y-150890000D03*
X163830000Y-148390000D03*
X163830000Y-145890000D03*
X163830000Y-143390000D03*
X163830000Y-140890000D03*
X163830000Y-138390000D03*
D16*
G36*
X164579504Y-135041204D02*
G01*
X164603773Y-135044804D01*
X164627571Y-135050765D01*
X164650671Y-135059030D01*
X164672849Y-135069520D01*
X164693893Y-135082133D01*
X164713598Y-135096747D01*
X164731777Y-135113223D01*
X164748253Y-135131402D01*
X164762867Y-135151107D01*
X164775480Y-135172151D01*
X164785970Y-135194329D01*
X164794235Y-135217429D01*
X164800196Y-135241227D01*
X164803796Y-135265496D01*
X164805000Y-135290000D01*
X164805000Y-136490000D01*
X164803796Y-136514504D01*
X164800196Y-136538773D01*
X164794235Y-136562571D01*
X164785970Y-136585671D01*
X164775480Y-136607849D01*
X164762867Y-136628893D01*
X164748253Y-136648598D01*
X164731777Y-136666777D01*
X164713598Y-136683253D01*
X164693893Y-136697867D01*
X164672849Y-136710480D01*
X164650671Y-136720970D01*
X164627571Y-136729235D01*
X164603773Y-136735196D01*
X164579504Y-136738796D01*
X164555000Y-136740000D01*
X163105000Y-136740000D01*
X163080496Y-136738796D01*
X163056227Y-136735196D01*
X163032429Y-136729235D01*
X163009329Y-136720970D01*
X162987151Y-136710480D01*
X162966107Y-136697867D01*
X162946402Y-136683253D01*
X162928223Y-136666777D01*
X162911747Y-136648598D01*
X162897133Y-136628893D01*
X162884520Y-136607849D01*
X162874030Y-136585671D01*
X162865765Y-136562571D01*
X162859804Y-136538773D01*
X162856204Y-136514504D01*
X162855000Y-136490000D01*
X162855000Y-135290000D01*
X162856204Y-135265496D01*
X162859804Y-135241227D01*
X162865765Y-135217429D01*
X162874030Y-135194329D01*
X162884520Y-135172151D01*
X162897133Y-135151107D01*
X162911747Y-135131402D01*
X162928223Y-135113223D01*
X162946402Y-135096747D01*
X162966107Y-135082133D01*
X162987151Y-135069520D01*
X163009329Y-135059030D01*
X163032429Y-135050765D01*
X163056227Y-135044804D01*
X163080496Y-135041204D01*
X163105000Y-135040000D01*
X164555000Y-135040000D01*
X164579504Y-135041204D01*
X164579504Y-135041204D01*
G37*
D17*
X163830000Y-135890000D03*
D14*
X19050000Y-115570000D03*
D13*
X19050000Y-117570000D03*
X19050000Y-119570000D03*
D14*
X24130000Y-115570000D03*
D13*
X24130000Y-117570000D03*
X24130000Y-119570000D03*
X29210000Y-119570000D03*
X29210000Y-117570000D03*
D14*
X29210000Y-115570000D03*
D21*
X80645000Y-120015000D03*
X81915000Y-120015000D03*
X83185000Y-120015000D03*
X84455000Y-120015000D03*
X84455000Y-118110000D03*
X83185000Y-118110000D03*
X81915000Y-118110000D03*
X80645000Y-118110000D03*
X80645000Y-116205000D03*
X81915000Y-116205000D03*
X83185000Y-116205000D03*
X84455000Y-116205000D03*
X83820000Y-133350000D03*
X87630000Y-121920000D03*
X88900000Y-121920000D03*
X87630000Y-114300000D03*
X21590000Y-116840000D03*
X21590000Y-118110000D03*
X21590000Y-119380000D03*
X21590000Y-115570000D03*
X83622500Y-128467500D03*
X87630000Y-133350000D03*
X61230000Y-244840000D03*
X63500000Y-231140000D03*
X63500000Y-245110000D03*
X60960000Y-232410000D03*
X63500000Y-218440000D03*
X60960000Y-219710000D03*
X63500000Y-205740000D03*
X60960000Y-207010000D03*
X63500000Y-193040000D03*
X60960000Y-194310000D03*
X63500000Y-180340000D03*
X60960000Y-181610000D03*
X63500000Y-167640000D03*
X60960000Y-168910000D03*
X63500000Y-154940000D03*
X60960000Y-156210000D03*
X63500000Y-143510000D03*
X60960000Y-143510000D03*
X63500000Y-129540000D03*
X60960000Y-130810000D03*
X63500000Y-116840000D03*
X60960000Y-118110000D03*
X63500000Y-104140000D03*
X60960000Y-105410000D03*
X63500000Y-91440000D03*
X60960000Y-92710000D03*
X63500000Y-78740000D03*
X60960000Y-80010000D03*
X63500000Y-66040000D03*
X60960000Y-67310000D03*
X63500000Y-53340000D03*
X60960000Y-54610000D03*
X63500000Y-40640000D03*
X60960000Y-41910000D03*
X63500000Y-27940000D03*
X60960000Y-29210000D03*
X63500000Y-15240000D03*
X60960000Y-16510000D03*
X63500000Y-2540000D03*
X60960000Y-3810000D03*
X115570000Y-245110000D03*
X110490000Y-245110000D03*
X115570000Y-232410000D03*
X110490000Y-232410000D03*
X115570000Y-219710000D03*
X110490000Y-219710000D03*
X115570000Y-207010000D03*
X110490000Y-207010000D03*
X115570000Y-194310000D03*
X110490000Y-194310000D03*
X115570000Y-181610000D03*
X110490000Y-181610000D03*
X115570000Y-168910000D03*
X110490000Y-168910000D03*
X115570000Y-156210000D03*
X110490000Y-156210000D03*
X115570000Y-143510000D03*
X110490000Y-143510000D03*
X115570000Y-130810000D03*
X110490000Y-130810000D03*
X115570000Y-118110000D03*
X110490000Y-118110000D03*
X115570000Y-105410000D03*
X110490000Y-105410000D03*
X115570000Y-92710000D03*
X110490000Y-92710000D03*
X115570000Y-80010000D03*
X110490000Y-80010000D03*
X115570000Y-67310000D03*
X110490000Y-67310000D03*
X115570000Y-54610000D03*
X110490000Y-54610000D03*
X115570000Y-41910000D03*
X110490000Y-41910000D03*
X115570000Y-29210000D03*
X110490000Y-29210000D03*
X115570000Y-16510000D03*
X110490000Y-16510000D03*
X115570000Y-3810000D03*
X110490000Y-3810000D03*
X54610000Y-106680000D03*
X54610000Y-93980000D03*
X54610000Y-81280000D03*
X54610000Y-68580000D03*
X54610000Y-55880000D03*
X54610000Y-43180000D03*
X54610000Y-30480000D03*
X54610000Y-17780000D03*
X54610000Y-5080000D03*
X54610000Y7620000D03*
X54610000Y-119380000D03*
X132080000Y3810000D03*
X54610000Y-130810000D03*
X133350000Y2540000D03*
X54610000Y-143510000D03*
X55880000Y-130810000D03*
X134620000Y1270000D03*
X54610000Y-157480000D03*
X57150000Y-130810000D03*
X135890000Y0D03*
X54610000Y-170180000D03*
X53340000Y10160000D03*
X54610000Y-182880000D03*
X52070000Y10160000D03*
X54610000Y-195580000D03*
X50800000Y10160000D03*
X54610000Y-208280000D03*
X49530000Y10160000D03*
X54610000Y-220980000D03*
X48260000Y10160000D03*
X54610000Y-233680000D03*
X46990000Y10160000D03*
X86360000Y-132080000D03*
X69850000Y-133350000D03*
X85090000Y-132080000D03*
X69850000Y-132080000D03*
X85090000Y-140970000D03*
X71120000Y-144780000D03*
X19050000Y-133350000D03*
X85090000Y-142240000D03*
X71120000Y-146050000D03*
X24130000Y-133350000D03*
X85090000Y-143510000D03*
X71120000Y-147320000D03*
X29210000Y-133350000D03*
X67310000Y-236220000D03*
X67310000Y-223520000D03*
X67310000Y-210820000D03*
X67310000Y-198120000D03*
X67310000Y-185420000D03*
X67310000Y-172720000D03*
X67310000Y-160020000D03*
X67310000Y-147320000D03*
X67310000Y-134620000D03*
X67310000Y-121920000D03*
X67310000Y-109220000D03*
X67310000Y-96520000D03*
X67310000Y-83820000D03*
X67310000Y-71120000D03*
X67310000Y-58420000D03*
X67310000Y-45720000D03*
X67310000Y-33020000D03*
X67310000Y-20320000D03*
X67310000Y-7620000D03*
X67310000Y5080000D03*
X116840000Y-236220000D03*
X107950000Y7620000D03*
X107950000Y-5080000D03*
X107950000Y-17780000D03*
X107950000Y-30480000D03*
X107950000Y-43180000D03*
X107950000Y-55880000D03*
X107950000Y-68580000D03*
X107950000Y-81280000D03*
X107950000Y-93980000D03*
X107950000Y-106680000D03*
X107950000Y-119380000D03*
X107950000Y-132080000D03*
X107950000Y-144780000D03*
X107950000Y-157480000D03*
X107950000Y-170180000D03*
X107950000Y-182880000D03*
X107950000Y-195580000D03*
X107950000Y-208280000D03*
X107950000Y-220980000D03*
X107950000Y-233680000D03*
X107950000Y-43180000D03*
X116840000Y-223520000D03*
X116840000Y-210820000D03*
X116840000Y-198120000D03*
X116840000Y-185420000D03*
X116840000Y-172720000D03*
X116840000Y-160020000D03*
X116840000Y-147320000D03*
X116840000Y-134620000D03*
X116840000Y-121920000D03*
X116840000Y-109220000D03*
X116840000Y-96520000D03*
X116840000Y-83820000D03*
X116840000Y-71120000D03*
X116840000Y-58420000D03*
X116840000Y-45720000D03*
X116840000Y-33020000D03*
X116840000Y-20320000D03*
X116840000Y-7620000D03*
X116840000Y5080000D03*
X60960000Y-236220000D03*
X60960000Y-223520000D03*
X60960000Y-210820000D03*
X60960000Y-198120000D03*
X60960000Y-185420000D03*
X60960000Y-172720000D03*
X60960000Y-160020000D03*
X60960000Y-147320000D03*
X60960000Y-134620000D03*
X60960000Y-121920000D03*
X60960000Y-109220000D03*
X60960000Y-96520000D03*
X60960000Y-83820000D03*
X60960000Y-71120000D03*
X60960000Y-58420000D03*
X60960000Y-45720000D03*
X60960000Y-33020000D03*
X60960000Y-20320000D03*
X60960000Y-7620000D03*
X60960000Y5080000D03*
X111760000Y-234950000D03*
X111760000Y-222250000D03*
X111760000Y-209550000D03*
X111760000Y-196850000D03*
X111760000Y-184150000D03*
X111760000Y-171450000D03*
X111760000Y-158750000D03*
X111760000Y-146050000D03*
X111760000Y-133350000D03*
X111760000Y-120650000D03*
X111760000Y-107950000D03*
X111760000Y-95250000D03*
X111760000Y-82550000D03*
X111760000Y-69850000D03*
X111760000Y-57150000D03*
X111760000Y-44450000D03*
X111760000Y-31750000D03*
X111760000Y-19050000D03*
X111760000Y-6350000D03*
X111760000Y6350000D03*
X82550000Y-93980000D03*
X113665000Y-233680000D03*
X82550000Y-95250000D03*
X113665000Y-220980000D03*
X82550000Y-96520000D03*
X113665000Y-208280000D03*
X83820000Y-101600000D03*
X113665000Y-195580000D03*
X83820000Y-102870000D03*
X113665000Y-182880000D03*
X83820000Y-104140000D03*
X113665000Y-170180000D03*
X86360000Y-104140000D03*
X113665000Y-157480000D03*
X86360000Y-105410000D03*
X113665000Y-144780000D03*
X86360000Y-106680000D03*
X113665000Y-132080000D03*
X86360000Y-107950000D03*
X113665000Y-119380000D03*
X86360000Y-109220000D03*
X113665000Y-106680000D03*
X91440000Y-93980000D03*
X113665000Y-93980000D03*
X92710000Y-81280000D03*
X113665000Y-81280000D03*
X93980000Y-68580000D03*
X113665000Y-68580000D03*
X95250000Y-55880000D03*
X113665000Y-55880000D03*
X96520000Y-43180000D03*
X113665000Y-43180000D03*
X97790000Y-30480000D03*
X113665000Y-30480000D03*
X99060000Y-17780000D03*
X113665000Y-17780000D03*
X100330000Y-5080000D03*
X113665000Y-5080000D03*
X100330000Y7620000D03*
X113030000Y7620000D03*
X85090000Y-144780000D03*
X119380000Y-146050000D03*
X87630000Y-130810000D03*
X119380000Y-143510000D03*
X88900000Y-130810000D03*
X119380000Y-142240000D03*
X90170000Y-130810000D03*
X119380000Y-140970000D03*
X91440000Y-130810000D03*
X119380000Y-139700000D03*
X90170000Y-121920000D03*
X119380000Y-133350000D03*
X91440000Y-121920000D03*
X119380000Y-132080000D03*
X92710000Y-121920000D03*
X119380000Y-130810000D03*
X93980000Y-121920000D03*
X119380000Y-129540000D03*
X95250000Y-121920000D03*
X119380000Y-128270000D03*
D22*
X153301700Y-20688300D02*
X147624800Y-20688300D01*
D23*
X153670000Y2540000D02*
X156210000Y0D01*
X146050000Y2540000D02*
X153670000Y2540000D01*
X140970000Y7620000D02*
X146050000Y2540000D01*
X156210000Y0D02*
X156210000Y-17780000D01*
X97790000Y7620000D02*
X100330000Y5080000D01*
X73660000Y7620000D02*
X97790000Y7620000D01*
X57150000Y-73660000D02*
X58420000Y-72390000D01*
X57150000Y-83820000D02*
X57150000Y-73660000D01*
X55880000Y-85090000D02*
X57150000Y-83820000D01*
X55880000Y-95250000D02*
X55880000Y-85090000D01*
X156210000Y-17780000D02*
X153301700Y-20688300D01*
X54610000Y-106680000D02*
X54610000Y-96520000D01*
X58420000Y-72390000D02*
X58420000Y-62230000D01*
X58420000Y-62230000D02*
X59690000Y-60960000D01*
X68580000Y-12700000D02*
X68580000Y2540000D01*
X59690000Y-50800000D02*
X62230000Y-48260000D01*
X62230000Y-48260000D02*
X62230000Y-38100000D01*
X62230000Y-38100000D02*
X66040000Y-34290000D01*
X54610000Y-96520000D02*
X55880000Y-95250000D01*
X66040000Y-15240000D02*
X68580000Y-12700000D01*
X59690000Y-60960000D02*
X59690000Y-50800000D01*
X66040000Y-34290000D02*
X66040000Y-15240000D01*
X68580000Y2540000D02*
X73660000Y7620000D01*
X112395000Y5080000D02*
X114935000Y7620000D01*
X108585000Y5080000D02*
X112395000Y5080000D01*
X114935000Y7620000D02*
X140970000Y7620000D01*
X108585000Y5080000D02*
X109220000Y5080000D01*
X100330000Y5080000D02*
X108585000Y5080000D01*
X154457400Y-22072600D02*
X150469600Y-22072600D01*
X157480000Y1270000D02*
X157480000Y-19050000D01*
X72390000Y8890000D02*
X149860000Y8890000D01*
X157480000Y-19050000D02*
X154457400Y-22072600D01*
X64770000Y-13970000D02*
X66040000Y-12700000D01*
X57150000Y-71120000D02*
X57150000Y-60960000D01*
X55880000Y-72390000D02*
X57150000Y-71120000D01*
X55880000Y-82550000D02*
X55880000Y-72390000D01*
X59690000Y-48260000D02*
X59690000Y-38100000D01*
X54610000Y-93980000D02*
X54610000Y-83820000D01*
X58420000Y-59690000D02*
X58420000Y-49530000D01*
X62230000Y-26670000D02*
X64770000Y-24130000D01*
X54610000Y-83820000D02*
X55880000Y-82550000D01*
X58420000Y-49530000D02*
X59690000Y-48260000D01*
X149860000Y8890000D02*
X157480000Y1270000D01*
X59690000Y-38100000D02*
X62230000Y-35560000D01*
X62230000Y-35560000D02*
X62230000Y-26670000D01*
X57150000Y-60960000D02*
X58420000Y-59690000D01*
X64770000Y-24130000D02*
X64770000Y-13970000D01*
X66040000Y-12700000D02*
X66040000Y2540000D01*
X66040000Y2540000D02*
X72390000Y8890000D01*
D22*
X153670000Y-24130000D02*
X151892000Y-24130000D01*
X151892000Y-24130000D02*
X151130000Y-23368000D01*
X151130000Y-23368000D02*
X149860000Y-23368000D01*
X148386800Y-24841200D02*
X144780000Y-24841200D01*
X149860000Y-23368000D02*
X148386800Y-24841200D01*
D23*
X157480000Y-24130000D02*
X153670000Y-24130000D01*
X158750000Y-22860000D02*
X157480000Y-24130000D01*
X158750000Y2540000D02*
X158750000Y-22860000D01*
X57150000Y-48260000D02*
X58420000Y-46990000D01*
X57150000Y-58420000D02*
X57150000Y-48260000D01*
X55880000Y-69850000D02*
X55880000Y-59690000D01*
X54610000Y-81280000D02*
X54610000Y-71120000D01*
X55880000Y-59690000D02*
X57150000Y-58420000D01*
X54610000Y-71120000D02*
X55880000Y-69850000D01*
X59690000Y-35560000D02*
X59690000Y-25400000D01*
X58420000Y-46990000D02*
X58420000Y-36830000D01*
X58420000Y-36830000D02*
X59690000Y-35560000D01*
X64770000Y-11430000D02*
X64770000Y3810000D01*
X59690000Y-25400000D02*
X62230000Y-22860000D01*
X62230000Y-22860000D02*
X62230000Y-13970000D01*
X71120000Y10160000D02*
X151130000Y10160000D01*
X62230000Y-13970000D02*
X64770000Y-11430000D01*
X64770000Y3810000D02*
X71120000Y10160000D01*
X151130000Y10160000D02*
X158750000Y2540000D01*
D22*
X154114500Y-26225500D02*
X147624800Y-26225500D01*
D23*
X157924500Y-26225500D02*
X154114500Y-26225500D01*
X160020000Y3810000D02*
X160020000Y-24130000D01*
X57150000Y-35560000D02*
X58420000Y-34290000D01*
X57150000Y-45720000D02*
X57150000Y-35560000D01*
X55880000Y-46990000D02*
X57150000Y-45720000D01*
X59690000Y-12700000D02*
X62230000Y-10160000D01*
X55880000Y-57150000D02*
X55880000Y-46990000D01*
X54610000Y-68580000D02*
X54610000Y-58420000D01*
X58420000Y-34290000D02*
X58420000Y-24130000D01*
X54610000Y-58420000D02*
X55880000Y-57150000D01*
X62230000Y-1270000D02*
X63500000Y0D01*
X58420000Y-24130000D02*
X59690000Y-22860000D01*
X160020000Y-24130000D02*
X157924500Y-26225500D01*
X69850000Y11430000D02*
X152400000Y11430000D01*
X59690000Y-22860000D02*
X59690000Y-12700000D01*
X62230000Y-10160000D02*
X62230000Y-1270000D01*
X63500000Y0D02*
X63500000Y5080000D01*
X63500000Y5080000D02*
X69850000Y11430000D01*
X152400000Y11430000D02*
X160020000Y3810000D01*
X159080200Y-27609800D02*
X150469600Y-27609800D01*
X57150000Y-22860000D02*
X58420000Y-21590000D01*
X55880000Y-34290000D02*
X57150000Y-33020000D01*
X62230000Y2540000D02*
X62230000Y6350000D01*
X161290000Y-25400000D02*
X159080200Y-27609800D01*
X54610000Y-55880000D02*
X54610000Y-45720000D01*
X54610000Y-45720000D02*
X55880000Y-44450000D01*
X58420000Y-21590000D02*
X58420000Y-11430000D01*
X58420000Y-11430000D02*
X59690000Y-10160000D01*
X68580000Y12700000D02*
X153670000Y12700000D01*
X57150000Y-33020000D02*
X57150000Y-22860000D01*
X153670000Y12700000D02*
X161290000Y5080000D01*
X59690000Y-10160000D02*
X59690000Y0D01*
X59690000Y0D02*
X62230000Y2540000D01*
X62230000Y6350000D02*
X68580000Y12700000D01*
X55880000Y-44450000D02*
X55880000Y-34290000D01*
X161290000Y5080000D02*
X161290000Y-25400000D01*
X54610000Y-43180000D02*
X54610000Y-33020000D01*
X54610000Y-33020000D02*
X55880000Y-31750000D01*
X55880000Y-31750000D02*
X55880000Y-21590000D01*
X55880000Y-21590000D02*
X57150000Y-20320000D01*
X57150000Y-20320000D02*
X57150000Y-10160000D01*
X57150000Y-10160000D02*
X58420000Y-8890000D01*
X58420000Y-8890000D02*
X58420000Y1270000D01*
X58420000Y1270000D02*
X59690000Y2540000D01*
X59690000Y2540000D02*
X59690000Y6350000D01*
X59690000Y6350000D02*
X67310000Y13970000D01*
X67310000Y13970000D02*
X154940000Y13970000D01*
X154940000Y13970000D02*
X162560000Y6350000D01*
X162560000Y6350000D02*
X162560000Y-21590000D01*
X162560000Y-21590000D02*
X162560000Y-27940000D01*
X162560000Y-27940000D02*
X160020000Y-30480000D01*
X160020000Y-30480000D02*
X153670000Y-30480000D01*
D22*
X153670000Y-30480000D02*
X152654000Y-30480000D01*
X152654000Y-30480000D02*
X151130000Y-28956000D01*
X151130000Y-28956000D02*
X149860000Y-28956000D01*
X148437600Y-30378400D02*
X144780000Y-30378400D01*
X149860000Y-28956000D02*
X148437600Y-30378400D01*
D23*
X163830000Y-29210000D02*
X161277300Y-31762700D01*
X157480000Y15240000D02*
X163830000Y8890000D01*
X163830000Y8890000D02*
X163830000Y-29210000D01*
X66040000Y15240000D02*
X157480000Y15240000D01*
X58420000Y3810000D02*
X58420000Y7620000D01*
X54610000Y-20320000D02*
X55880000Y-19050000D01*
X58420000Y7620000D02*
X66040000Y15240000D01*
X55880000Y-19050000D02*
X55880000Y-8890000D01*
X54610000Y-30480000D02*
X54610000Y-20320000D01*
X55880000Y-8890000D02*
X57150000Y-7620000D01*
X57150000Y-7620000D02*
X57150000Y2540000D01*
X57150000Y2540000D02*
X58420000Y3810000D01*
X161277300Y-31762700D02*
X153682700Y-31762700D01*
X153682700Y-31762700D02*
X153670000Y-31750000D01*
D22*
X153682700Y-31762700D02*
X147624800Y-31762700D01*
D23*
X165100000Y-30480000D02*
X162433000Y-33147000D01*
X160020000Y16510000D02*
X165100000Y11430000D01*
X64770000Y16510000D02*
X160020000Y16510000D01*
X54610000Y-7620000D02*
X55880000Y-6350000D01*
X162433000Y-33147000D02*
X150469600Y-33147000D01*
X54610000Y-17780000D02*
X54610000Y-7620000D01*
X55880000Y-6350000D02*
X55880000Y3810000D01*
X55880000Y3810000D02*
X57150000Y5080000D01*
X57150000Y5080000D02*
X57150000Y8890000D01*
X165100000Y11430000D02*
X165100000Y-30480000D01*
X57150000Y8890000D02*
X64770000Y16510000D01*
X54610000Y-5080000D02*
X54610000Y5080000D01*
X54610000Y5080000D02*
X55880000Y6350000D01*
X55880000Y6350000D02*
X55880000Y10160000D01*
X55880000Y10160000D02*
X63500000Y17780000D01*
X63500000Y17780000D02*
X162560000Y17780000D01*
X166370000Y-29210000D02*
X166370000Y-33020000D01*
X166370000Y-33020000D02*
X163830000Y-35560000D01*
X163830000Y-35560000D02*
X154940000Y-35560000D01*
D22*
X154940000Y-35560000D02*
X152654000Y-35560000D01*
X152654000Y-35560000D02*
X151638000Y-34544000D01*
X151638000Y-34544000D02*
X149860000Y-34544000D01*
X148488400Y-35915600D02*
X144780000Y-35915600D01*
X149860000Y-34544000D02*
X148488400Y-35915600D01*
D23*
X162560000Y17780000D02*
X163830000Y17780000D01*
X163830000Y17780000D02*
X164465000Y18415000D01*
X164465000Y18415000D02*
X168275000Y18415000D01*
X168275000Y18415000D02*
X169545000Y17145000D01*
X169545000Y17145000D02*
X169545000Y13970000D01*
X169545000Y13970000D02*
X166370000Y10795000D01*
X166370000Y10795000D02*
X166370000Y-29845000D01*
D22*
X154139900Y-37299900D02*
X147624800Y-37299900D01*
D23*
X165569900Y-37299900D02*
X154139900Y-37299900D01*
X167640000Y-35229800D02*
X165569900Y-37299900D01*
X167640000Y10160000D02*
X167640000Y-35229800D01*
X170815000Y13335000D02*
X167640000Y10160000D01*
X54610000Y7620000D02*
X54610000Y10160000D01*
X170815000Y17780000D02*
X170815000Y13335000D01*
X54610000Y10160000D02*
X63500000Y19050000D01*
X63500000Y19050000D02*
X163830000Y19050000D01*
X163830000Y19050000D02*
X164465000Y19685000D01*
X164465000Y19685000D02*
X168910000Y19685000D01*
X168910000Y19685000D02*
X170815000Y17780000D01*
X132080000Y3810000D02*
X132080000Y3810000D01*
X111760000Y3810000D02*
X125730000Y3810000D01*
X99060000Y2540000D02*
X110490000Y2540000D01*
X96520000Y5080000D02*
X99060000Y2540000D01*
X74930000Y5080000D02*
X96520000Y5080000D01*
X57150000Y-86360000D02*
X58420000Y-85090000D01*
X55880000Y-97790000D02*
X57150000Y-96520000D01*
X69850000Y0D02*
X74930000Y5080000D01*
X58420000Y-85090000D02*
X58420000Y-74930000D01*
X55880000Y-107950000D02*
X55880000Y-97790000D01*
X54610000Y-119380000D02*
X54610000Y-109220000D01*
X54610000Y-109220000D02*
X55880000Y-107950000D01*
X57150000Y-96520000D02*
X57150000Y-86360000D01*
X64770000Y-38100000D02*
X68580000Y-34290000D01*
X68580000Y-16510000D02*
X69850000Y-15240000D01*
X58420000Y-74930000D02*
X59690000Y-73660000D01*
X59690000Y-73660000D02*
X59690000Y-63500000D01*
X110490000Y2540000D02*
X111760000Y3810000D01*
X59690000Y-63500000D02*
X64770000Y-58420000D01*
X64770000Y-58420000D02*
X64770000Y-38100000D01*
X68580000Y-34290000D02*
X68580000Y-16510000D01*
X125730000Y3810000D02*
X132080000Y3810000D01*
X69850000Y-15240000D02*
X69850000Y0D01*
X133350000Y2540000D02*
X133350000Y2540000D01*
X125730000Y2540000D02*
X133350000Y2540000D01*
X113030000Y2540000D02*
X125730000Y2540000D01*
X111760000Y1270000D02*
X113030000Y2540000D01*
X97790000Y1270000D02*
X111760000Y1270000D01*
X95250000Y3810000D02*
X97790000Y1270000D01*
X76200000Y3810000D02*
X95250000Y3810000D01*
X71120000Y-1270000D02*
X76200000Y3810000D01*
X71120000Y-16510000D02*
X71120000Y-1270000D01*
X55880000Y-110490000D02*
X57150000Y-109220000D01*
X69850000Y-35560000D02*
X69850000Y-17780000D01*
X55880000Y-120650000D02*
X55880000Y-110490000D01*
X62230000Y-63500000D02*
X66040000Y-59690000D01*
X54610000Y-130810000D02*
X54610000Y-121920000D01*
X57150000Y-99060000D02*
X58420000Y-97790000D01*
X54610000Y-121920000D02*
X55880000Y-120650000D01*
X58420000Y-87630000D02*
X59690000Y-86360000D01*
X57150000Y-109220000D02*
X57150000Y-99060000D01*
X59690000Y-86360000D02*
X59690000Y-76200000D01*
X59690000Y-76200000D02*
X62230000Y-73660000D01*
X62230000Y-73660000D02*
X62230000Y-63500000D01*
X58420000Y-97790000D02*
X58420000Y-87630000D01*
X66040000Y-59690000D02*
X66040000Y-39370000D01*
X66040000Y-39370000D02*
X69850000Y-35560000D01*
X69850000Y-17780000D02*
X71120000Y-16510000D01*
X134620000Y1270000D02*
X134620000Y1270000D01*
X114300000Y1270000D02*
X125730000Y1270000D01*
X113030000Y0D02*
X114300000Y1270000D01*
X96520000Y0D02*
X113030000Y0D01*
X77470000Y2540000D02*
X93980000Y2540000D01*
X72390000Y-2540000D02*
X77470000Y2540000D01*
X72390000Y-17780000D02*
X72390000Y-2540000D01*
X57150000Y-121920000D02*
X57150000Y-111760000D01*
X57150000Y-111760000D02*
X58420000Y-110490000D01*
X59690000Y-88900000D02*
X62230000Y-86360000D01*
X64770000Y-64770000D02*
X68580000Y-60960000D01*
X55880000Y-130810000D02*
X55880000Y-123190000D01*
X125730000Y1270000D02*
X134620000Y1270000D01*
X55880000Y-123190000D02*
X57150000Y-121920000D01*
X59690000Y-99060000D02*
X59690000Y-88900000D01*
X58420000Y-100330000D02*
X59690000Y-99060000D01*
X62230000Y-76200000D02*
X64770000Y-73660000D01*
X62230000Y-86360000D02*
X62230000Y-76200000D01*
X71120000Y-19050000D02*
X72390000Y-17780000D01*
X58420000Y-110490000D02*
X58420000Y-100330000D01*
X64770000Y-73660000D02*
X64770000Y-64770000D01*
X68580000Y-39370000D02*
X71120000Y-36830000D01*
X93980000Y2540000D02*
X96520000Y0D01*
X68580000Y-60960000D02*
X68580000Y-39370000D01*
X71120000Y-36830000D02*
X71120000Y-19050000D01*
X135890000Y0D02*
X135890000Y0D01*
X113030000Y-2540000D02*
X115570000Y0D01*
X92710000Y1270000D02*
X96520000Y-2540000D01*
X78740000Y1270000D02*
X92710000Y1270000D01*
X73660000Y-3810000D02*
X78740000Y1270000D01*
X73660000Y-19050000D02*
X73660000Y-3810000D01*
X59690000Y-101600000D02*
X62230000Y-99060000D01*
X62230000Y-99060000D02*
X62230000Y-88900000D01*
X59690000Y-111760000D02*
X59690000Y-101600000D01*
X57150000Y-124460000D02*
X58420000Y-123190000D01*
X58420000Y-113030000D02*
X59690000Y-111760000D01*
X115570000Y0D02*
X135890000Y0D01*
X58420000Y-123190000D02*
X58420000Y-113030000D01*
X68580000Y-72390000D02*
X68580000Y-63500000D01*
X57150000Y-130810000D02*
X57150000Y-124460000D01*
X62230000Y-88900000D02*
X64770000Y-86360000D01*
X64770000Y-86360000D02*
X64770000Y-76200000D01*
X69850000Y-39370000D02*
X72390000Y-36830000D01*
X64770000Y-76200000D02*
X68580000Y-72390000D01*
X72390000Y-36830000D02*
X72390000Y-20320000D01*
X96520000Y-2540000D02*
X113030000Y-2540000D01*
X68580000Y-63500000D02*
X69850000Y-62230000D01*
X69850000Y-62230000D02*
X69850000Y-39370000D01*
X72390000Y-20320000D02*
X73660000Y-19050000D01*
D22*
X36830000Y-133350000D02*
X69850000Y-133350000D01*
X33020000Y-129540000D02*
X36830000Y-133350000D01*
X17780000Y-129540000D02*
X33020000Y-129540000D01*
X10700000Y-184880000D02*
X11430000Y-184150000D01*
X11430000Y-184150000D02*
X11430000Y-180340000D01*
X11430000Y-180340000D02*
X6350000Y-175260000D01*
X6350000Y-175260000D02*
X6350000Y-140970000D01*
X8350000Y-184880000D02*
X10700000Y-184880000D01*
X6350000Y-140970000D02*
X17780000Y-129540000D01*
X8350000Y-184880000D02*
X10890000Y-184880000D01*
X10890000Y-184880000D02*
X11430000Y-185420000D01*
X11430000Y-213550000D02*
X8350000Y-216630000D01*
X11430000Y-185420000D02*
X11430000Y-213550000D01*
X34290000Y-128270000D02*
X38100000Y-132080000D01*
X38100000Y-132080000D02*
X69850000Y-132080000D01*
X16510000Y-128270000D02*
X34290000Y-128270000D01*
X2190000Y-188880000D02*
X0Y-186690000D01*
X6350000Y-188880000D02*
X2190000Y-188880000D01*
X0Y-186690000D02*
X0Y-180340000D01*
X0Y-180340000D02*
X5080000Y-175260000D01*
X5080000Y-175260000D02*
X5080000Y-139700000D01*
X5080000Y-139700000D02*
X16510000Y-128270000D01*
X6350000Y-188880000D02*
X1620000Y-188880000D01*
X1620000Y-188880000D02*
X0Y-190500000D01*
X0Y-190500000D02*
X0Y-218440000D01*
X2190000Y-220630000D02*
X6350000Y-220630000D01*
X0Y-218440000D02*
X2190000Y-220630000D01*
D23*
X163830000Y-158390000D02*
X149500000Y-158390000D01*
X149500000Y-158390000D02*
X130810000Y-139700000D01*
X130810000Y-139700000D02*
X130810000Y-5080000D01*
X130810000Y-5080000D02*
X132080000Y-3810000D01*
X132080000Y-3810000D02*
X142240000Y-3810000D01*
D22*
X142240000Y-3810000D02*
X143002000Y-3810000D01*
X143002000Y-3810000D02*
X143256000Y-4064000D01*
X143256000Y-4064000D02*
X145796000Y-4064000D01*
X147167600Y-2692400D02*
X150469600Y-2692400D01*
X145796000Y-4064000D02*
X147167600Y-2692400D01*
D23*
X163830000Y-155890000D02*
X149540000Y-155890000D01*
X149540000Y-155890000D02*
X132080000Y-138430000D01*
X132080000Y-138430000D02*
X132080000Y-7620000D01*
X134239000Y-5461000D02*
X144780000Y-5461000D01*
X132080000Y-7620000D02*
X134239000Y-5461000D01*
X163830000Y-153390000D02*
X149580000Y-153390000D01*
X149580000Y-153390000D02*
X133350000Y-137160000D01*
X133350000Y-137160000D02*
X133350000Y-8890000D01*
X133350000Y-8890000D02*
X135394700Y-6845300D01*
X135394700Y-6845300D02*
X142735300Y-6845300D01*
D22*
X142735300Y-6845300D02*
X147624800Y-6845300D01*
D23*
X163830000Y-150890000D02*
X149620000Y-150890000D01*
X149620000Y-150890000D02*
X134620000Y-135890000D01*
X134620000Y-135890000D02*
X134620000Y-10160000D01*
X134620000Y-10160000D02*
X135890000Y-8890000D01*
X135890000Y-8890000D02*
X142240000Y-8890000D01*
D22*
X142240000Y-8890000D02*
X143256000Y-8890000D01*
X143256000Y-8890000D02*
X144018000Y-9652000D01*
X144018000Y-9652000D02*
X145542000Y-9652000D01*
X146964400Y-8229600D02*
X150469600Y-8229600D01*
X145542000Y-9652000D02*
X146964400Y-8229600D01*
D23*
X163830000Y-148390000D02*
X149660000Y-148390000D01*
X149660000Y-148390000D02*
X135890000Y-134620000D01*
X135890000Y-134620000D02*
X135890000Y-12700000D01*
X137591800Y-10998200D02*
X144780000Y-10998200D01*
X135890000Y-12700000D02*
X137591800Y-10998200D01*
X163830000Y-145890000D02*
X149700000Y-145890000D01*
X149700000Y-145890000D02*
X137160000Y-133350000D01*
X137160000Y-133350000D02*
X137160000Y-13970000D01*
X137160000Y-13970000D02*
X138747500Y-12382500D01*
X138747500Y-12382500D02*
X142557500Y-12382500D01*
D22*
X142557500Y-12382500D02*
X147624800Y-12382500D01*
D23*
X163830000Y-143390000D02*
X149740000Y-143390000D01*
X149740000Y-143390000D02*
X138430000Y-132080000D01*
X138430000Y-132080000D02*
X138430000Y-16510000D01*
X138430000Y-16510000D02*
X139700000Y-15240000D01*
X139700000Y-15240000D02*
X142240000Y-15240000D01*
D22*
X142240000Y-15240000D02*
X145288000Y-15240000D01*
X146761200Y-13766800D02*
X150469600Y-13766800D01*
X145288000Y-15240000D02*
X146761200Y-13766800D01*
D23*
X140944600Y-16535400D02*
X144780000Y-16535400D01*
X139700000Y-17780000D02*
X140944600Y-16535400D01*
X139700000Y-130810000D02*
X139700000Y-17780000D01*
X163830000Y-140890000D02*
X149780000Y-140890000D01*
X149780000Y-140890000D02*
X139700000Y-130810000D01*
X163830000Y-138390000D02*
X149820000Y-138390000D01*
X149820000Y-138390000D02*
X140970000Y-129540000D01*
X140970000Y-129540000D02*
X140970000Y-19050000D01*
X140970000Y-19050000D02*
X142100300Y-17919700D01*
X142100300Y-17919700D02*
X143370300Y-17919700D01*
D22*
X143370300Y-17919700D02*
X147624800Y-17919700D01*
D23*
X163830000Y-135890000D02*
X149860000Y-135890000D01*
X149860000Y-135890000D02*
X142240000Y-128270000D01*
X142240000Y-128270000D02*
X142240000Y-21590000D01*
D22*
X147066000Y-19304000D02*
X150469600Y-19304000D01*
X145542000Y-20828000D02*
X147066000Y-19304000D01*
X142240000Y-21590000D02*
X143002000Y-20828000D01*
X143002000Y-20828000D02*
X145542000Y-20828000D01*
X71120000Y-144780000D02*
X69850000Y-144780000D01*
X69850000Y-144780000D02*
X67310000Y-142240000D01*
X67310000Y-142240000D02*
X41910000Y-142240000D01*
X41910000Y-142240000D02*
X30480000Y-130810000D01*
X30480000Y-130810000D02*
X21590000Y-130810000D01*
X21590000Y-130810000D02*
X19050000Y-133350000D01*
X19050000Y-133350000D02*
X19050000Y-133350000D01*
X71120000Y-146050000D02*
X68580000Y-146050000D01*
X68580000Y-146050000D02*
X67310000Y-144780000D01*
X67310000Y-144780000D02*
X43180000Y-144780000D01*
X43180000Y-144780000D02*
X30480000Y-132080000D01*
X30480000Y-132080000D02*
X25400000Y-132080000D01*
X25400000Y-132080000D02*
X24130000Y-133350000D01*
X24130000Y-133350000D02*
X24130000Y-133350000D01*
X71120000Y-147320000D02*
X69850000Y-147320000D01*
X69850000Y-147320000D02*
X68580000Y-147320000D01*
X68580000Y-147320000D02*
X67310000Y-146050000D01*
X67310000Y-146050000D02*
X41910000Y-146050000D01*
X41910000Y-146050000D02*
X29210000Y-133350000D01*
X29210000Y-133350000D02*
X29210000Y-133350000D01*
X107950000Y-119380000D02*
X107950000Y-119380000D01*
X107950000Y-119380000D02*
X107950000Y-119380000D01*
X107950000Y-106680000D02*
X107950000Y-106680000D01*
X107950000Y-93980000D02*
X107950000Y-93980000D01*
X107950000Y-81280000D02*
X107950000Y-81280000D01*
X107950000Y-68580000D02*
X107950000Y-68580000D01*
X107950000Y-55880000D02*
X107950000Y-55880000D01*
X107950000Y-43180000D02*
X107950000Y-43180000D01*
X107950000Y-30480000D02*
X107950000Y-30480000D01*
X107950000Y-17780000D02*
X107950000Y-17780000D01*
X82550000Y-93980000D02*
X73660000Y-102870000D01*
X73660000Y-102870000D02*
X73660000Y-201930000D01*
X73660000Y-201930000D02*
X73660000Y-213360000D01*
X73660000Y-213360000D02*
X95250000Y-234950000D01*
X106045000Y-234950000D02*
X108585000Y-234950000D01*
X106045000Y-234950000D02*
X106680000Y-234950000D01*
X95250000Y-234950000D02*
X106045000Y-234950000D01*
X108585000Y-234950000D02*
X109855000Y-234950000D01*
X109855000Y-234950000D02*
X111125000Y-233680000D01*
X111125000Y-233680000D02*
X113665000Y-233680000D01*
X113665000Y-233680000D02*
X113665000Y-233680000D01*
X74930000Y-201930000D02*
X95250000Y-222250000D01*
X82550000Y-95250000D02*
X74930000Y-102870000D01*
X74930000Y-102870000D02*
X74930000Y-201930000D01*
X106045000Y-222250000D02*
X108585000Y-222250000D01*
X106045000Y-222250000D02*
X106680000Y-222250000D01*
X95250000Y-222250000D02*
X106045000Y-222250000D01*
X108585000Y-222250000D02*
X109855000Y-222250000D01*
X109855000Y-222250000D02*
X111125000Y-220980000D01*
X111125000Y-220980000D02*
X113665000Y-220980000D01*
X113665000Y-220980000D02*
X113665000Y-220980000D01*
X76200000Y-190500000D02*
X95250000Y-209550000D01*
X82550000Y-96520000D02*
X76200000Y-102870000D01*
X76200000Y-102870000D02*
X76200000Y-190500000D01*
X106045000Y-209550000D02*
X108585000Y-209550000D01*
X106045000Y-209550000D02*
X106680000Y-209550000D01*
X95250000Y-209550000D02*
X106045000Y-209550000D01*
X108585000Y-209550000D02*
X109855000Y-209550000D01*
X109855000Y-209550000D02*
X111125000Y-208280000D01*
X111125000Y-208280000D02*
X113665000Y-208280000D01*
X113665000Y-208280000D02*
X113665000Y-208280000D01*
X77470000Y-179070000D02*
X95250000Y-196850000D01*
X83820000Y-101600000D02*
X77470000Y-107950000D01*
X77470000Y-107950000D02*
X77470000Y-179070000D01*
X106045000Y-196850000D02*
X108585000Y-196850000D01*
X106045000Y-196850000D02*
X106680000Y-196850000D01*
X95250000Y-196850000D02*
X106045000Y-196850000D01*
X108585000Y-196850000D02*
X109855000Y-196850000D01*
X109855000Y-196850000D02*
X111125000Y-195580000D01*
X111125000Y-195580000D02*
X113665000Y-195580000D01*
X113665000Y-195580000D02*
X113665000Y-195580000D01*
X78740000Y-167640000D02*
X95250000Y-184150000D01*
X83820000Y-102870000D02*
X78740000Y-107950000D01*
X78740000Y-107950000D02*
X78740000Y-167640000D01*
X106045000Y-184150000D02*
X108585000Y-184150000D01*
X106045000Y-184150000D02*
X106680000Y-184150000D01*
X95250000Y-184150000D02*
X106045000Y-184150000D01*
X108585000Y-184150000D02*
X109855000Y-184150000D01*
X109855000Y-184150000D02*
X111125000Y-182880000D01*
X111125000Y-182880000D02*
X113665000Y-182880000D01*
X113665000Y-182880000D02*
X113665000Y-182880000D01*
X80010000Y-156210000D02*
X95250000Y-171450000D01*
X83820000Y-104140000D02*
X80010000Y-107950000D01*
X80010000Y-107950000D02*
X80010000Y-156210000D01*
X106045000Y-171450000D02*
X108585000Y-171450000D01*
X106045000Y-171450000D02*
X106680000Y-171450000D01*
X95250000Y-171450000D02*
X106045000Y-171450000D01*
X108585000Y-171450000D02*
X109855000Y-171450000D01*
X109855000Y-171450000D02*
X111125000Y-170180000D01*
X111125000Y-170180000D02*
X113665000Y-170180000D01*
X113665000Y-170180000D02*
X113665000Y-170180000D01*
X81280000Y-144780000D02*
X95250000Y-158750000D01*
X86360000Y-104140000D02*
X81280000Y-109220000D01*
X81280000Y-109220000D02*
X81280000Y-144780000D01*
X106045000Y-158750000D02*
X108585000Y-158750000D01*
X106045000Y-158750000D02*
X106680000Y-158750000D01*
X95250000Y-158750000D02*
X106045000Y-158750000D01*
X108585000Y-158750000D02*
X109220000Y-158750000D01*
X109220000Y-158750000D02*
X110490000Y-157480000D01*
X110490000Y-157480000D02*
X113665000Y-157480000D01*
X113665000Y-157480000D02*
X113665000Y-157480000D01*
X82550000Y-133350000D02*
X95250000Y-146050000D01*
X86360000Y-105410000D02*
X82550000Y-109220000D01*
X82550000Y-109220000D02*
X82550000Y-133350000D01*
X106045000Y-146050000D02*
X108585000Y-146050000D01*
X106045000Y-146050000D02*
X106680000Y-146050000D01*
X95250000Y-146050000D02*
X106045000Y-146050000D01*
X108585000Y-146050000D02*
X109855000Y-146050000D01*
X109855000Y-146050000D02*
X111125000Y-144780000D01*
X111125000Y-144780000D02*
X113665000Y-144780000D01*
X113665000Y-144780000D02*
X113665000Y-144780000D01*
X83820000Y-121920000D02*
X95250000Y-133350000D01*
X86360000Y-106680000D02*
X83820000Y-109220000D01*
X83820000Y-109220000D02*
X83820000Y-121920000D01*
X106045000Y-133350000D02*
X108585000Y-133350000D01*
X106045000Y-133350000D02*
X106680000Y-133350000D01*
X95250000Y-133350000D02*
X106045000Y-133350000D01*
X108585000Y-133350000D02*
X109855000Y-133350000D01*
X109855000Y-133350000D02*
X111125000Y-132080000D01*
X111125000Y-132080000D02*
X113665000Y-132080000D01*
X113665000Y-132080000D02*
X113665000Y-132080000D01*
X86360000Y-107950000D02*
X85090000Y-109220000D01*
X85090000Y-109220000D02*
X85090000Y-110490000D01*
X85090000Y-110490000D02*
X95250000Y-120650000D01*
X106045000Y-120650000D02*
X108585000Y-120650000D01*
X106045000Y-120650000D02*
X106680000Y-120650000D01*
X95250000Y-120650000D02*
X106045000Y-120650000D01*
X108585000Y-120650000D02*
X110490000Y-120650000D01*
X110490000Y-120650000D02*
X111125000Y-120015000D01*
X111125000Y-120015000D02*
X111760000Y-119380000D01*
X111760000Y-119380000D02*
X113665000Y-119380000D01*
X113665000Y-119380000D02*
X113665000Y-119380000D01*
X86360000Y-109220000D02*
X105410000Y-109220000D01*
X105410000Y-109220000D02*
X107315000Y-109220000D01*
X107315000Y-109220000D02*
X108585000Y-109220000D01*
X108585000Y-109220000D02*
X111125000Y-106680000D01*
X111125000Y-106680000D02*
X113665000Y-106680000D01*
X113665000Y-106680000D02*
X113665000Y-106680000D01*
X91440000Y-93980000D02*
X92710000Y-95250000D01*
X106045000Y-95250000D02*
X108585000Y-95250000D01*
X106045000Y-95250000D02*
X106680000Y-95250000D01*
X92710000Y-95250000D02*
X106045000Y-95250000D01*
X108585000Y-95250000D02*
X109855000Y-95250000D01*
X109855000Y-95250000D02*
X111125000Y-93980000D01*
X111125000Y-93980000D02*
X113665000Y-93980000D01*
X113665000Y-93980000D02*
X113665000Y-93980000D01*
X92710000Y-81280000D02*
X93980000Y-82550000D01*
X106045000Y-82550000D02*
X108585000Y-82550000D01*
X106045000Y-82550000D02*
X106680000Y-82550000D01*
X93980000Y-82550000D02*
X106045000Y-82550000D01*
X108585000Y-82550000D02*
X109855000Y-82550000D01*
X109855000Y-82550000D02*
X111125000Y-81280000D01*
X111125000Y-81280000D02*
X113665000Y-81280000D01*
X113665000Y-81280000D02*
X113665000Y-81280000D01*
X93980000Y-68580000D02*
X95250000Y-69850000D01*
X106045000Y-69850000D02*
X108585000Y-69850000D01*
X106045000Y-69850000D02*
X106680000Y-69850000D01*
X95250000Y-69850000D02*
X106045000Y-69850000D01*
X108585000Y-69850000D02*
X109855000Y-69850000D01*
X109855000Y-69850000D02*
X111125000Y-68580000D01*
X111125000Y-68580000D02*
X113665000Y-68580000D01*
X113665000Y-68580000D02*
X113665000Y-68580000D01*
X95250000Y-55880000D02*
X96520000Y-57150000D01*
X106045000Y-57150000D02*
X108585000Y-57150000D01*
X106045000Y-57150000D02*
X106680000Y-57150000D01*
X96520000Y-57150000D02*
X106045000Y-57150000D01*
X108585000Y-57150000D02*
X109855000Y-57150000D01*
X109855000Y-57150000D02*
X111125000Y-55880000D01*
X111125000Y-55880000D02*
X113665000Y-55880000D01*
X113665000Y-55880000D02*
X113665000Y-55880000D01*
X96520000Y-43180000D02*
X97790000Y-44450000D01*
X106045000Y-44450000D02*
X108585000Y-44450000D01*
X106045000Y-44450000D02*
X106680000Y-44450000D01*
X97790000Y-44450000D02*
X106045000Y-44450000D01*
X108585000Y-44450000D02*
X109855000Y-44450000D01*
X109855000Y-44450000D02*
X111125000Y-43180000D01*
X111125000Y-43180000D02*
X113665000Y-43180000D01*
X113665000Y-43180000D02*
X113665000Y-43180000D01*
X97790000Y-30480000D02*
X99060000Y-31750000D01*
X106045000Y-31750000D02*
X108585000Y-31750000D01*
X106045000Y-31750000D02*
X106680000Y-31750000D01*
X99060000Y-31750000D02*
X106045000Y-31750000D01*
X108585000Y-31750000D02*
X109855000Y-31750000D01*
X109855000Y-31750000D02*
X111125000Y-30480000D01*
X111125000Y-30480000D02*
X113665000Y-30480000D01*
X113665000Y-30480000D02*
X113665000Y-30480000D01*
X99060000Y-17780000D02*
X100330000Y-19050000D01*
X106045000Y-19050000D02*
X108585000Y-19050000D01*
X106045000Y-19050000D02*
X106680000Y-19050000D01*
X100330000Y-19050000D02*
X106045000Y-19050000D01*
X108585000Y-19050000D02*
X109855000Y-19050000D01*
X109855000Y-19050000D02*
X111125000Y-17780000D01*
X111125000Y-17780000D02*
X113665000Y-17780000D01*
X113665000Y-17780000D02*
X113665000Y-17780000D01*
X100330000Y-5080000D02*
X101600000Y-6350000D01*
X106045000Y-6350000D02*
X108585000Y-6350000D01*
X106045000Y-6350000D02*
X106680000Y-6350000D01*
X101600000Y-6350000D02*
X106045000Y-6350000D01*
X108585000Y-6350000D02*
X109855000Y-6350000D01*
X109855000Y-6350000D02*
X111125000Y-5080000D01*
X111125000Y-5080000D02*
X113665000Y-5080000D01*
X113665000Y-5080000D02*
X113665000Y-5080000D01*
X100330000Y7620000D02*
X101600000Y6350000D01*
X106045000Y6350000D02*
X108585000Y6350000D01*
X106045000Y6350000D02*
X106680000Y6350000D01*
X101600000Y6350000D02*
X106045000Y6350000D01*
X108585000Y6350000D02*
X109855000Y6350000D01*
X109855000Y6350000D02*
X111125000Y7620000D01*
X111125000Y7620000D02*
X113030000Y7620000D01*
X113030000Y7620000D02*
X113030000Y7620000D01*
X85090000Y-144780000D02*
X91440000Y-144780000D01*
X91440000Y-144780000D02*
X95250000Y-148590000D01*
X95250000Y-148590000D02*
X118110000Y-148590000D01*
X118110000Y-148590000D02*
X119380000Y-147320000D01*
X119380000Y-147320000D02*
X119380000Y-146050000D01*
X119380000Y-146050000D02*
X119380000Y-146050000D01*
X87630000Y-130810000D02*
X95250000Y-138430000D01*
X95250000Y-138430000D02*
X114300000Y-138430000D01*
X114300000Y-138430000D02*
X119380000Y-143510000D01*
X119380000Y-143510000D02*
X119380000Y-143510000D01*
X88900000Y-130810000D02*
X95250000Y-137160000D01*
X95250000Y-137160000D02*
X114300000Y-137160000D01*
X114300000Y-137160000D02*
X119380000Y-142240000D01*
X119380000Y-142240000D02*
X119380000Y-142240000D01*
X90170000Y-130810000D02*
X95250000Y-135890000D01*
X95250000Y-135890000D02*
X113030000Y-135890000D01*
X113030000Y-135890000D02*
X114300000Y-135890000D01*
X114300000Y-135890000D02*
X119380000Y-140970000D01*
X119380000Y-140970000D02*
X119380000Y-140970000D01*
X91440000Y-130810000D02*
X95250000Y-134620000D01*
X95250000Y-134620000D02*
X114300000Y-134620000D01*
X114300000Y-134620000D02*
X119380000Y-139700000D01*
X119380000Y-139700000D02*
X119380000Y-139700000D01*
X90170000Y-121920000D02*
X95250000Y-127000000D01*
X95250000Y-127000000D02*
X113030000Y-127000000D01*
X113030000Y-127000000D02*
X119380000Y-133350000D01*
X119380000Y-133350000D02*
X119380000Y-133350000D01*
X91440000Y-121920000D02*
X95250000Y-125730000D01*
X95250000Y-125730000D02*
X113030000Y-125730000D01*
X113030000Y-125730000D02*
X119380000Y-132080000D01*
X119380000Y-132080000D02*
X119380000Y-132080000D01*
X92710000Y-121920000D02*
X95250000Y-124460000D01*
X95250000Y-124460000D02*
X113030000Y-124460000D01*
X113030000Y-124460000D02*
X119380000Y-130810000D01*
X119380000Y-130810000D02*
X119380000Y-130810000D01*
X93980000Y-121920000D02*
X95250000Y-123190000D01*
X95250000Y-123190000D02*
X113030000Y-123190000D01*
X113030000Y-123190000D02*
X119380000Y-129540000D01*
X119380000Y-129540000D02*
X119380000Y-129540000D01*
X95250000Y-121920000D02*
X113030000Y-121920000D01*
X113030000Y-121920000D02*
X118110000Y-127000000D01*
X118110000Y-127000000D02*
X119380000Y-128270000D01*
X119380000Y-128270000D02*
X119380000Y-128270000D01*
M02*
